<?xml version="1.0" encoding="utf-8"?>
<svg version="1.1" id="Layer_1" xmlns="http://www.w3.org/2000/svg" xmlns:xlink="http://www.w3.org/1999/xlink" x="0px" y="0px"
	 viewBox="0 0 1465.7 581.8" style="enable-background:new 0 0 1465.7 581.8;" xml:space="preserve">
<style type="text/css">
	.st0{fill:#FFFFFF;}
</style>
<g>
	<g>
		<g>
			<path class="st0" d="M690,239.3c7.7,3.3,14.4,7.8,20.1,13.6c5.8,5.8,10.3,12.5,13.6,20.1c3.3,7.7,5,15.9,5,24.8
				c0,8.7-1.7,16.9-5,24.7c-3.3,7.7-7.8,14.6-13.6,20.4c-5.8,5.9-12.5,10.4-20.1,13.7s-15.9,5-24.8,5c-8.7,0-16.9-1.7-24.7-5
				s-14.6-7.9-20.4-13.7c-5.9-5.9-10.4-12.7-13.7-20.4s-5-16-5-24.7V183.4h25.2v68.1c0,0,13.6-17,38.5-17
				C674.1,234.4,682.4,236,690,239.3z M665.2,336.4c5.3,0,10.2-1,14.9-3c4.6-2,8.7-4.7,12.2-8.2s6.2-7.6,8.2-12.3s3-9.7,3-15
				s-1-10.2-3-14.9c-2-4.6-4.7-8.7-8.2-12.2s-7.6-6.2-12.2-8.2c-4.6-2-9.6-3-14.9-3h-0.3c-21.1,0-38.3,17.1-38.3,38.3l0,0
				c0,5.3,1,10.3,3,15s4.7,8.8,8.2,12.3s7.6,6.2,12.3,8.2C655,335.4,660,336.4,665.2,336.4z"/>
			<path class="st0" d="M863.9,233.8v63.5c0,8.7-1.7,16.9-5,24.7s-7.9,14.6-13.7,20.4c-5.9,5.9-12.6,10.4-20.3,13.7
				c-7.6,3.3-15.9,5-24.8,5c-8.7,0-16.9-1.7-24.7-5s-14.5-7.9-20.3-13.7c-5.8-5.9-10.3-12.7-13.6-20.4s-5-16-5-24.7v-63.5h25.2v63.5
				c0,5.3,1,10.3,3,15s4.7,8.8,8.2,12.3s7.6,6.2,12.2,8.2c4.6,2,9.6,3,14.9,3c5.3,0,10.3-1,15-3s8.8-4.7,12.3-8.2s6.2-7.6,8.2-12.3
				s3-9.7,3-15v-63.5H863.9z"/>
			<path class="st0" d="M952.7,233.8V259h-12.8c-5.3,0-10.2,1-14.9,3c-4.6,2-8.7,4.7-12.2,8.2s-6.2,7.6-8.2,12.2
				c-2,4.6-3,9.6-3,14.9v63.8h-25.5v-63.8c0-8.9,1.7-17.1,5-24.8s7.9-14.4,13.7-20.1c5.9-5.8,12.7-10.3,20.4-13.6s16-5,24.7-5
				L952.7,233.8L952.7,233.8z"/>
			<path class="st0" d="M1073.5,233.8V259h-76.8c-3.6,0-6.6,1.2-9.1,3.7s-3.7,5.5-3.7,9.1s1.2,6.7,3.7,9.2s5.5,3.8,9.1,3.8h51
				c5.3,0,10.2,1,14.9,3c4.6,2,8.7,4.7,12.2,8.1c3.5,3.4,6.2,7.4,8.2,12s3,9.6,3,14.9c0,5.3-1,10.3-3,14.9c-2,4.6-4.7,8.7-8.2,12.2
				s-7.6,6.2-12.2,8.2s-9.6,3-14.9,3h-76.5v-25.2h76.5c3.8,0,6.9-1.2,9.4-3.7c2.4-2.5,3.7-5.6,3.7-9.4c0-3.6-1.2-6.6-3.7-9.1
				s-5.6-3.7-9.4-3.7h-51c-5.3,0-10.3-1-14.9-3s-8.6-4.7-12-8.2s-6.1-7.6-8.1-12.2c-2-4.6-3-9.6-3-14.9c0-5.3,1-10.2,3-14.9
				c2-4.6,4.7-8.6,8.1-12s7.4-6.1,12-8.1s9.6-3,14.9-3h76.8V233.8z"/>
			<path class="st0" d="M1168.5,335.8V361H1156c-8.7,0-16.9-1.7-24.7-5c-7.8-3.3-14.6-7.9-20.4-13.7c-5.9-5.9-10.4-12.7-13.7-20.4
				c-3.3-7.7-5-16-5-24.7V182.8h25.2v76.5h51v25.2h-51v12.8c0,5.3,1,10.3,3,15s4.7,8.8,8.2,12.3s7.6,6.2,12.3,8.2c4.7,2,9.7,3,15,3
				H1168.5z"/>
		</g>
	</g>
	<path class="st0" d="M506.8,307.2c3.4-23.4,50.9-38.9,50.9-38.9s-45.6,2.2-56.5-14.5c-13.6-20.8,11.1-76.2,11.1-76.2
		s-39.4,49.8-60.1,42.6c-20.7-7.3-28.8-45.9-28.8-45.9s-5.8,20.4-12.8,33.8c-4.8,9.2-16.7,7.1-16.7-3.3v-62.1h-34.6v92.7l-49.7-14.3
		c0,0,40.3,41.8,40.3,66.3c0,18.5-52.8,40.1-52.8,40.1s51.1-4.7,56.6,5.8s-32.3,55.2-32.3,55.2l81.4-50.7l-0.3-0.2
		c-14.2-9.9-23-27.1-20.9-46.2c2.5-22.8,20.9-41.3,43.7-43.7c30.9-3.3,56.9,21.8,55,52.4c-1.4,22.2-17.9,41.1-39.8,45.5
		c-7.5,1.5-14.8,1.2-21.5-0.5v94.1l21.7-57.2c17.5-2,34.1-9.6,46.9-21.8l79.3,10.3C567.2,370.3,503.3,330.5,506.8,307.2z"/>
</g>
</svg>
