<svg enable-background="new 0 0 308.8 117.2" viewBox="0 0 308.8 117.2" xmlns="http://www.w3.org/2000/svg" xmlns:xlink="http://www.w3.org/1999/xlink"><linearGradient id="a" gradientUnits="userSpaceOnUse" x1="7.1898" x2="98.4146" y1="58.6045" y2="58.6045"><stop offset="0" stop-color="#92278f"/><stop offset="1" stop-color="#262262"/></linearGradient><g fill="#532b74"><path d="m139.9 41.2c2.6 1.1 4.9 2.6 6.8 4.6 1.9 1.9 3.5 4.2 4.6 6.8s1.7 5.4 1.7 8.4c0 2.9-.6 5.7-1.7 8.3s-2.6 4.9-4.6 6.9c-1.9 2-4.2 3.5-6.8 4.6s-5.4 1.7-8.4 1.7c-2.9 0-5.7-.6-8.3-1.7s-4.9-2.7-6.9-4.6c-2-2-3.5-4.3-4.6-6.9s-1.7-5.4-1.7-8.3v-38.7h8.5v23s4.6-5.8 13-5.8c3.1.1 5.8.6 8.4 1.7zm-8.3 32.8c1.8 0 3.5-.3 5-1 1.6-.7 2.9-1.6 4.1-2.8s2.1-2.6 2.8-4.2 1-3.3 1-5.1-.3-3.5-1-5c-.7-1.6-1.6-2.9-2.8-4.1s-2.6-2.1-4.1-2.8c-1.6-.7-3.2-1-5-1h-.1c-7.1 0-12.9 5.8-12.9 12.9 0 1.8.3 3.5 1 5.1s1.6 3 2.8 4.2 2.6 2.1 4.2 2.8c1.5.7 3.2 1 5 1z"/><path d="m198.7 39.4v21.4c0 2.9-.6 5.7-1.7 8.3s-2.7 4.9-4.6 6.9c-2 2-4.3 3.5-6.8 4.6-2.6 1.1-5.4 1.7-8.4 1.7-2.9 0-5.7-.6-8.3-1.7s-4.9-2.7-6.8-4.6c-1.9-2-3.5-4.3-4.6-6.9s-1.7-5.4-1.7-8.3v-21.4h8.5v21.4c0 1.8.3 3.5 1 5.1s1.6 3 2.8 4.2 2.6 2.1 4.1 2.8c1.6.7 3.2 1 5 1s3.5-.3 5.1-1 3-1.6 4.2-2.8 2.1-2.6 2.8-4.2 1-3.3 1-5.1v-21.4z"/><path d="m228.7 39.4v8.5h-4.3c-1.8 0-3.5.3-5 1-1.6.7-2.9 1.6-4.1 2.8s-2.1 2.6-2.8 4.1c-.7 1.6-1 3.2-1 5v21.5h-8.6v-21.5c0-3 .6-5.8 1.7-8.4s2.7-4.9 4.6-6.8c2-1.9 4.3-3.5 6.9-4.6s5.4-1.7 8.3-1.7h4.3z"/><path d="m269.5 39.4v8.5h-25.9c-1.2 0-2.2.4-3.1 1.2-.8.8-1.2 1.9-1.2 3.1s.4 2.2 1.2 3.1 1.9 1.3 3.1 1.3h17.2c1.8 0 3.5.3 5 1 1.6.7 2.9 1.6 4.1 2.7s2.1 2.5 2.8 4.1 1 3.2 1 5-.3 3.5-1 5c-.7 1.6-1.6 2.9-2.8 4.1s-2.6 2.1-4.1 2.8c-1.6.7-3.2 1-5 1h-25.9v-8.5h25.9c1.3 0 2.3-.4 3.2-1.2.8-.8 1.2-1.9 1.2-3.2 0-1.2-.4-2.2-1.2-3.1-.8-.8-1.9-1.2-3.2-1.2h-17.2c-1.8 0-3.5-.3-5-1-1.6-.7-2.9-1.6-4.1-2.8-1.1-1.2-2.1-2.6-2.7-4.1-.7-1.6-1-3.2-1-5s.3-3.5 1-5c.7-1.6 1.6-2.9 2.7-4.1 1.1-1.1 2.5-2.1 4.1-2.7 1.6-.7 3.2-1 5-1z"/><path d="m301.6 73.8v8.5h-4.2c-2.9 0-5.7-.6-8.3-1.7s-4.9-2.7-6.9-4.6c-2-2-3.5-4.3-4.6-6.9s-1.7-5.4-1.7-8.3v-38.7h8.5v25.9h17.2v8.5h-17.2v4.3c0 1.8.3 3.5 1 5.1s1.6 3 2.8 4.2 2.6 2.1 4.2 2.8 3.3 1 5.1 1h4.1z"/></g><path d="m78 64.2c1.2-7.9 17.2-13.2 17.2-13.2s-15.4.7-19.1-4.9c-4.6-7 3.8-25.8 3.8-25.8s-13.3 16.9-20.3 14.4-9.7-15.5-9.7-15.5-2 6.9-4.3 11.4c-1.6 3.1-5.6 2.4-5.6-1.1v-21h-11.8v31.3l-16.8-4.8s13.6 14.1 13.6 22.4c0 6.3-17.8 13.5-17.8 13.5s17.3-1.6 19.1 2c1.9 3.5-10.9 18.7-10.9 18.7l27.5-17.1-.1-.1c-4.8-3.4-7.8-9.2-7.1-15.6.9-7.8 7.1-14 14.8-14.8 10.4-1.1 19.2 7.4 18.6 17.7-.5 7.5-6.1 13.9-13.4 15.4-2.5.5-5 .4-7.3-.2v31.8l7.3-19.3c5.9-.7 11.5-3.3 15.9-7.4l26.8 3.5s-21.5-13.4-20.4-21.3z" fill="url(#a)"/></svg>