<?xml version="1.0" encoding="utf-8"?>
<!-- Generator: Adobe Illustrator 23.0.6, SVG Export Plug-In . SVG Version: 6.00 Build 0)  -->
<svg version="1.1" id="Layer_1" xmlns="http://www.w3.org/2000/svg" xmlns:xlink="http://www.w3.org/1999/xlink" x="0px" y="0px"
	 viewBox="0 0 200 200" style="enable-background:new 0 0 200 200;" xml:space="preserve">
<style type="text/css">
	.st0{fill:#1A1A1A;}
</style>
<g>
	<path class="st0" d="M24.1,37.9c0.1,6.3,0.2,12.6,0.7,18.9c0.2,3.2,0.4,6.3,0.6,9.5c0.1,1.3,0.1,2.7,0.1,4c0.1,1.6,0.2,3.2,0.3,4.8
		c0.1,1.3,0.2,2.6,0.3,3.9c0.1,1.6,0.2,3.3,0.2,4.9c0,0.6,0,1.2,0.1,1.8c0,0.8,0,1.6,0.1,2.4c0.1,1.5,0.2,3,0.4,4.5
		c0.1,1.6,0.3,3.2,0.4,4.8c0.1,1.4,0.2,2.8,0.3,4.3c0.2,2.9,0.2,5.8,0.5,8.6c0.1,0.7,0.1,1.5,0.2,2.2c0.1,0.7,0.2,1.5,0.3,2.2
		c0.2,1.2,0.4,2.4,0.5,3.7c0.2,1.2,0.3,2.3,0.5,3.5c0.2,1.2,0.4,2.5,0.6,3.7c0.2,1.3,0.3,2.6,0.4,4c0.1,1.6,0.1,3.2,0.2,4.7
		c0.1,1.4,0.2,2.9,0.3,4.3c0.1,1.5,0.3,3,0.4,4.5c0.1,0.8,0.2,1.7,0.3,2.5c0.1,0.9,0.1,1.8,0.2,2.7c0,0.5,0,0.9,0.1,1.4
		c0.1,0.5,0.1,1.1,0.2,1.6c0.1,1.1,0.4,2.3,0.7,3.4c0.2,1,1.3,1.6,2.3,1.3c1-0.3,1.6-1.3,1.3-2.3c-0.4-1.3-0.7-2.6-1-3.9
		c-0.1-0.6-0.2-1.2-0.4-1.8c-0.1-0.6-0.2-1.2-0.4-1.8c-0.2-1.1-0.6-2.1-0.8-3.2c-0.1-0.6-0.2-1.2-0.3-1.8c-0.1-0.6-0.1-1.1-0.2-1.6
		c-0.2-1.5-0.3-2.9-0.4-4.4c-0.1-1.4,0-2.8,0-4.2c0-1.5,0-3.1-0.1-4.6c-0.1-1.5-0.1-2.9-0.2-4.4c0-0.8,0-1.6-0.1-2.3
		c-0.1-0.9-0.2-1.9-0.3-2.8c-0.2-1.7-0.5-3.4-0.8-5.1c-0.1-0.7-0.2-1.4-0.3-2c-0.1-0.6-0.1-1.2-0.2-1.8c-0.1-1.6-0.3-3.2-0.4-4.7
		c-0.1-1.5-0.3-3.1-0.4-4.6c-0.1-1.4-0.3-2.8-0.5-4.2c-0.1-1-0.3-1.9-0.4-2.9c-0.2-1.4-0.3-2.9-0.5-4.3c-0.1-1.6-0.3-3.3-0.4-4.9
		c-0.2-2.9-0.6-5.9-0.9-8.8c-0.3-3-0.4-6-0.6-9c-0.1-2.8-0.4-5.5-0.6-8.3c-0.1-1.3-0.2-2.6-0.2-3.9c-0.1-1.7-0.1-3.4-0.2-5
		c0-1.2-0.1-2.4-0.1-3.6c0-1.9-0.1-3.8-0.1-5.6c0-0.5-0.4-0.9-0.9-0.9C24.5,37.1,24.1,37.5,24.1,37.9L24.1,37.9z M31.5,111.7
		c0,0.1,0,0.2,0,0.4C31.5,112,31.5,111.9,31.5,111.7L31.5,111.7z M33.2,139.2c0,0.1,0,0.2,0,0.3C33.2,139.4,33.2,139.3,33.2,139.2
		L33.2,139.2z"/>
	<path class="st0" d="M117.3,20c-0.4,0.3-0.8,0.6-1.2,0.9c-0.3,0.3-0.7,0.6-1,0.8c-1.2,1-2.4,2-3.5,3c-1.2,1-2.5,2-3.8,3
		c0,0,0,0,0,0c-1.5,1.1-3,2.3-4.4,3.5c-2.1,1.6-4.3,3.1-6.4,4.7c-1.1,0.9-2.2,1.8-3.3,2.7c-1,0.8-2,1.6-3,2.4
		c0.1-0.1,0.1-0.1,0.2-0.2c-1.2,0.9-2.5,1.8-3.8,2.7c-1.1,0.8-2.4,1.3-3.6,1.9c-0.6,0.2-1.3,0.5-1.9,0.7c-0.8,0.2-1.5,0.4-2.3,0.5
		c-0.9,0.1-1.7,0.1-2.6,0c-0.8-0.1-1.5-0.3-2.3-0.5c-0.7-0.1-1.4-0.3-2.1-0.4c-1.6-0.3-3.2-0.6-4.9-0.9c-1.6-0.3-3.1-0.5-4.7-0.7
		c-1.5-0.2-3.1-0.5-4.6-0.8c-1.7-0.3-3.4-0.7-5-1.1c-1.5-0.3-3-0.7-4.6-0.9c-1.7-0.3-3.3-0.6-4.9-1c-1.5-0.4-3-0.7-4.5-1.1
		c-1.3-0.3-2.6-0.5-3.8-0.8c-1.3-0.3-2.5-0.6-3.7-1c-1.2-0.3-2.4-0.5-3.6-0.7c-0.5-0.1-0.9-0.1-1.4-0.1c-0.4,0-0.7,0.1-1.1,0.2
		c-0.3,0.1-0.5,0.3-0.7,0.4c-0.4,0.3-0.5,0.9-0.5,1.4c0,0.4-0.1,0.7-0.1,1.1c-0.1,0.4,0.4,0.8,0.8,0.8c0.5,0,0.8-0.4,0.8-0.8
		c0-0.2,0.1-0.5,0.1-0.7c0-0.2,0-0.4,0.1-0.6c0,0,0,0,0,0c0.1,0,0.2-0.1,0.3-0.1c0.5,0,1,0,1.5,0c1.5,0.2,3,0.6,4.5,1
		c1.5,0.4,3,0.8,4.6,1.2c1.6,0.4,3.2,0.8,4.8,1.2c1.6,0.4,3.1,0.9,4.7,1.3c1.5,0.4,3.1,0.7,4.6,1.2c0.7,0.2,1.4,0.4,2.2,0.6
		c0.9,0.3,1.7,0.5,2.6,0.7c1.5,0.4,3,0.8,4.5,1.2c1.5,0.4,3.1,0.7,4.6,1c3.1,0.7,6.2,1.5,9.3,2.3c0.4,0.1,0.7,0.2,1.1,0.2
		c0.4,0.1,0.8,0.1,1.2,0.2c0.7,0.1,1.4,0,2-0.1c1.4-0.2,2.8-0.7,4.1-1.2c0.4-0.2,0.7-0.3,1.1-0.5c0.4-0.2,0.8-0.4,1.2-0.6
		c0.7-0.3,1.3-0.8,2-1.2c1.1-0.7,2.2-1.5,3.3-2.3c1.2-0.9,2.4-1.9,3.6-2.8c0,0-0.1,0-0.1,0.1c0.6-0.5,1.2-0.9,1.8-1.4
		c-0.1,0.1-0.1,0.1-0.2,0.2c0.1-0.1,0.3-0.2,0.4-0.3c0,0,0,0-0.1,0c0.2-0.2,0.4-0.3,0.6-0.5c0,0,0,0,0,0c0,0,0.1-0.1,0.1-0.1
		c0,0,0.1-0.1,0.1-0.1c0,0,0,0-0.1,0.1c0,0,0.1-0.1,0.1-0.1c0,0,0,0,0,0c0,0,0.1,0,0.1-0.1c0.1,0,0.1-0.1,0.2-0.1c0,0-0.1,0-0.1,0.1
		c0.1-0.1,0.3-0.2,0.4-0.3c0,0,0,0-0.1,0c2.5-1.9,5.1-3.5,7.7-5.3c1.3-0.9,2.5-1.7,3.8-2.6c1.4-1,2.9-1.9,4.3-2.9
		c1.2-0.8,2.3-1.5,3.5-2.3c0.7-0.5,1.3-0.9,2-1.3c0.3-0.2,0.7-0.4,1-0.6c0.4-0.2,0.7-0.4,1-0.7c0,0,0,0,0,0c0.1-0.1,0.2-0.1,0.3-0.2
		c0.1,0,0.2-0.1,0.3-0.1c0.7,0,1.3,0,2,0.1c0.7,0.1,1.4,0.2,2.1,0.4c0.8,0.2,1.7,0.4,2.5,0.6c1.6,0.4,3.1,0.9,4.6,1.4
		c1.6,0.5,3.2,1,4.7,1.5c1.4,0.4,2.8,0.9,4.2,1.3c3.2,0.8,6.5,1.6,9.7,2.5c3.1,0.8,6.2,1.8,9.3,2.7c1.5,0.4,2.9,0.8,4.4,1.1
		c1.1,0.2,2.1-0.3,2.4-1.4c0.3-1.1-0.4-2.1-1.4-2.4c-1.7-0.5-3.3-0.9-5-1.3c-1.6-0.4-3.2-0.8-4.8-1.2c-3.1-0.8-6.2-1.4-9.4-2.1
		c-1.6-0.3-3.1-0.7-4.7-1c-1.6-0.4-3.1-0.8-4.6-1.2c-3.2-0.9-6.3-1.7-9.5-2.6c-1.5-0.4-2.9-0.8-4.4-1.3c-1.1-0.3-2.3-0.8-3.5-0.8
		C118.7,19.4,118,19.6,117.3,20L117.3,20z M25.9,38.2C25.9,38.2,25.9,38.2,25.9,38.2C25.9,38.2,25.9,38.2,25.9,38.2
		C25.9,38.2,25.9,38.2,25.9,38.2L25.9,38.2z M25.9,38.2C25.9,38.3,25.9,38.3,25.9,38.2C25.9,38.3,25.9,38.3,25.9,38.2
		C25.9,38.2,25.9,38.2,25.9,38.2L25.9,38.2z M25.8,38.2C25.8,38.3,25.8,38.3,25.8,38.2C25.8,38.3,25.8,38.3,25.8,38.2L25.8,38.2z
		 M25.7,38.4C25.7,38.4,25.7,38.4,25.7,38.4C25.7,38.4,25.7,38.4,25.7,38.4L25.7,38.4z M25.7,38.8C25.7,38.9,25.6,38.9,25.7,38.8
		C25.6,38.9,25.7,38.9,25.7,38.8L25.7,38.8z M79.2,46.6c0,0-0.1,0-0.1,0C79.1,46.6,79.1,46.6,79.2,46.6L79.2,46.6z M95.2,40.3
		c0.1,0,0.1-0.1,0.2-0.1C95.3,40.2,95.2,40.2,95.2,40.3L95.2,40.3z M95.3,40.1C95.3,40.1,95.3,40.1,95.3,40.1
		C95.3,40.1,95.3,40.1,95.3,40.1L95.3,40.1z M96.2,39.5C96.2,39.5,96.2,39.5,96.2,39.5C96.2,39.5,96.3,39.4,96.2,39.5
		C96.3,39.4,96.2,39.4,96.2,39.5L96.2,39.5z"/>
	<path class="st0" d="M121.7,141.6c-0.1,0-0.2,0.1-0.2,0.1c-0.2,0.1-0.4,0.2-0.6,0.3c-0.1,0.1-0.2,0.1-0.3,0.2
		c-0.3,0.2-0.6,0.5-0.9,0.7c-0.4,0.4-0.9,0.8-1.3,1.2c-0.8,0.7-1.6,1.5-2.3,2.2c-1.7,1.7-3.5,3.3-5.2,5c-1.6,1.5-3.3,3-4.9,4.6
		c-1.7,1.7-3.4,3.4-5.1,5c-1.7,1.7-3.4,3.3-5.1,5c-1.6,1.5-3.3,2.9-4.9,4.4c-1.1,1-2.1,2-3.3,2.9c-0.6,0.4-1.2,0.8-1.8,1.1
		c-0.2,0.1-0.4,0.1-0.6,0.2c-0.2,0-0.3,0-0.5,0c-1.3-0.3-2.5-0.7-3.7-1.2c-1.2-0.5-2.4-1-3.5-1.4c-1.1-0.4-2.2-0.8-3.4-1.2
		c-1.2-0.5-2.4-1-3.7-1.5c0.2,0.1,0.3,0.1,0.5,0.2c-1.4-0.6-2.9-1.2-4.3-1.8c-1.2-0.5-2.4-0.9-3.6-1.4c-1.3-0.6-2.6-1.1-3.9-1.8
		c-1.3-0.6-2.5-1.2-3.8-1.8c-1.6-0.7-3.2-1.3-4.8-2c-0.6-0.3-1.3-0.5-2-0.7c-0.6-0.2-1.2-0.5-1.8-0.7c-0.9-0.4-1.7-0.8-2.6-1.2
		c-1-0.5-1.9-1.1-2.9-1.6c-0.9-0.5-1.9-1.1-2.8-1.7c-1-0.6-2-1.3-3-2c-0.7-0.5-1.7-0.1-2.1,0.5c-0.4,0.8-0.1,1.6,0.6,2.1
		c1.1,0.8,2.2,1.5,3.4,2.3c1.1,0.7,2.2,1.3,3.2,2c0.9,0.5,1.7,1.1,2.7,1.6c1.2,0.6,2.4,1.2,3.6,1.7c2.1,1,4.2,1.8,6.3,2.8
		c1.1,0.6,2.3,1.1,3.4,1.7c0.9,0.5,1.8,1,2.7,1.4c2.2,1,4.3,2,6.5,3c2.2,1,4.4,2.1,6.6,3.1c1,0.5,2.1,0.9,3.1,1.4
		c1.1,0.5,2.1,1,3.1,1.6c1,0.5,1.9,1,2.9,1.5c0.5,0.2,1,0.5,1.5,0.7c0.4,0.1,1,0.2,1.3,0.2c0.5,0,0.9,0,1.4-0.1
		c1.7-0.4,3.1-1.5,4.4-2.7c1.1-1.1,2.2-2.3,3.2-3.5c0.7-0.9,1.5-1.7,2.3-2.6c1.6-1.8,3.3-3.5,4.9-5.2c1.6-1.7,3.3-3.3,4.9-5
		c1.6-1.6,3.1-3.2,4.8-4.7c2.2-2,4.5-3.9,6.7-6c2.1-1.9,4.1-3.8,6.2-5.6c0,0,0,0,0,0c1.2,0.3,2.4,0.7,3.5,1.2c1,0.4,1.9,0.9,2.8,1.3
		c1.1,0.5,2.1,1.2,3.2,1.7c2,1.1,4.2,2.1,6.2,3.1c1,0.5,2,1.1,3,1.7c1,0.6,2.1,1.1,3.2,1.6c2.1,1,4.2,1.9,6.4,2.8
		c2.1,0.9,4.2,1.6,6.4,2.2c2.1,0.6,4.2,1.1,6.2,1.9c0.1,0,0.1,0.1,0.2,0.1c0.7,0.3,1.4,0.5,2.1,0.3c0.7-0.2,1.3-0.6,1.6-1.3
		c0.4-0.6,0.5-1.4,0.3-2.1c-0.2-0.6-0.6-1.4-1.3-1.6c-1-0.5-2.1-0.9-3.2-1.2c-1-0.2-1.9-0.5-2.9-0.7c-1.8-0.4-3.7-0.9-5.5-1.4
		c-1.7-0.5-3.4-1.1-5.1-1.7c-1.6-0.6-3.3-1.2-4.9-1.8c-1.5-0.7-3-1.3-4.4-2c-1.6-0.7-3.2-1.3-4.8-2c-2.1-1-4.2-2-6.3-3
		c-1.1-0.5-2.2-0.9-3.4-1.4c-0.4-0.2-0.9-0.3-1.3-0.5c-0.3-0.1-0.7-0.2-1-0.4c-0.3-0.1-0.5-0.2-0.8-0.2c-0.2,0-0.4-0.1-0.6-0.1
		C122.3,141.5,122,141.5,121.7,141.6L121.7,141.6z M123.3,144.7c-0.1,0-0.1,0.1-0.2,0.1C123.1,144.7,123.2,144.7,123.3,144.7
		L123.3,144.7z M122.9,144.8c0,0-0.1,0.1-0.1,0.1C122.8,144.9,122.9,144.9,122.9,144.8L122.9,144.8z"/>
	<path class="st0" d="M161.2,31.4c-0.3,0.3-0.4,0.6-0.4,1c0,0.4,0.2,0.8,0.4,1c0.3,0.3,0.6,0.4,1,0.4c0.2,0,0.5,0.1,0.7,0.1
		c-0.1,0-0.1,0-0.2,0c0.1,0,0.2,0,0.2,0c0.1,0,0.1,0,0.2,0c0,0-0.1,0-0.1,0c0.5,0.1,1.1,0.1,1.6,0.2c0.8,0.2,1.6,0.3,2.3,0.6
		c0,0,0.1,0,0.1,0c0,0,0,0,0,0c0.2,0.3,0.3,0.6,0.5,0.9c0.5,1.3,0.9,2.6,1.1,3.9c0.2,2,0.2,4.1,0.2,6.1c0.1,1.9,0.2,3.8,0.3,5.7
		c0.1,1.9,0.2,3.8,0.2,5.6c0,1.8-0.1,3.7-0.1,5.5c0,1.2-0.1,2.5-0.1,3.7c0,1.3-0.1,2.6-0.1,3.8c0,0.7,0,1.3,0.1,2
		c0.1,0.9,0.2,1.7,0.3,2.6c0.1,0.6,0.2,1.2,0.4,1.8c0.3,0.8,0.6,1.7,0.8,2.6c0.1,0.6,0.1,1.2,0,1.8c-0.1,0.5-0.2,0.9-0.4,1.4
		c-0.8,1.6-1.9,2.9-2.9,4.4c-0.2,0.3-0.4,0.6-0.6,0.9c-0.2,0.3-0.5,0.7-0.6,1.1c-0.1,0.4-0.1,0.9,0.1,1.3c0.6,1,2,1,3,1.1
		c0,0,0,0,0,0c0,0,0,0.1,0.1,0.1c0,0.1,0,0.1,0,0.2c0,0.1,0,0.2,0,0.4c-0.2,0.9-0.5,1.7-0.8,2.6c-0.2,0.5-0.3,1-0.5,1.5
		c-0.2,0.7-0.4,1.6-0.4,2.3c0,0.6,0.3,1.2,0.6,1.7c0.3,0.5,0.6,0.9,0.8,1.4c0.3,0.8,0.5,1.6,0.6,2.5c0,0,0-0.1,0-0.1
		c0,0,0,0.1,0,0.1c0,0.1,0,0.1,0,0.2c0,0,0-0.1,0-0.1c0.2,1.3,0.2,2.7,0.3,4.1c0,1.5,0,2.9,0,4.4c0,1.5,0,3,0.2,4.5
		c0.2,1.5,0.3,3.1,0.6,4.6c0.2,1.9,0.4,3.8,0.6,5.6c0.2,1.8,0.4,3.7,0.6,5.5c0.4,3.5,0.6,7,0.7,10.6c0.1,2.6,0.1,5.2,0.2,7.8
		c0,1.3,0.1,2.5,0.1,3.8c0,0.6,0.1,1.3,0.1,1.9c0,0.5,0.1,1,0.1,1.6c0,0.1-0.1,0.1-0.1,0.2c-0.1,0-0.2,0.1-0.3,0.1
		c-0.2,0.1-0.3,0.1-0.5,0.1c-0.6,0-1.3,0-1.9,0c-0.7,0-1.3,0-2-0.1c-1-0.2-1.9-0.6-2.8-0.9c-0.8-0.3-1.5-0.6-2.3-0.8
		c-0.9-0.3-1.9,0.2-2.3,0.9c-0.3,0.5-0.4,1.1-0.2,1.6c0.1,0.5,0.5,1,0.9,1.2c1.2,0.5,2.5,1.1,3.7,1.6c1.5,0.6,3.2,0.8,4.8,0.8
		c0.5,0,0.9,0,1.4,0c0.5,0,1,0,1.5-0.1c0.6-0.1,1.2-0.3,1.8-0.6c0.7-0.3,1.3-0.8,1.7-1.3c0.6-0.7,1.1-1.4,1.2-2.4c0.2-1,0.1-2,0.1-3
		c0-0.9-0.1-1.8-0.2-2.6c-0.1-1.8-0.2-3.5-0.3-5.3c-0.1-3.4-0.3-6.7-0.7-10c-0.4-3.6-1-7.1-1.5-10.7c-0.1-0.5-0.1-1.1-0.2-1.6
		c0,0,0,0.1,0,0.1c-0.3-1.9-0.5-3.8-0.9-5.6c-0.2-0.8-0.4-1.6-0.5-2.4c-0.2-0.8-0.3-1.7-0.4-2.6c-0.3-2.5-0.6-5.1-0.9-7.6
		c-0.2-1.3-0.4-2.6-0.7-3.9c-0.1-0.6-0.3-1.1-0.5-1.7c-0.2-0.5-0.4-1-0.6-1.5c-0.3-0.6-0.7-1.1-1-1.7c-0.1-0.2-0.1-0.4-0.2-0.6
		c0-0.1,0-0.2,0-0.3c0.3-1.3,0.7-2.6,1.2-3.9c0.3-0.7,0.5-1.4,0.6-2.2c0-0.3-0.1-0.7-0.1-1c-0.1-0.3-0.3-0.6-0.5-0.8
		c-0.4-0.4-0.9-0.6-1.4-0.7c-0.1,0-0.3-0.1-0.4-0.1c0.5-0.6,1-1.1,1.5-1.7c0.4-0.4,0.8-0.9,1.2-1.3c0.9-1.1,1.7-2.3,2.3-3.6
		c0.6-1.3,0.8-2.7,0.9-4.1c0-0.8-0.1-1.6-0.2-2.4c-0.2-0.9-0.3-1.9-0.5-2.8c-0.1-0.8-0.2-1.5-0.2-2.3c-0.1-1-0.1-1.9-0.1-2.9
		c-0.1-1.7-0.1-3.4-0.1-5.1c0-1.8-0.1-3.7-0.2-5.5c-0.1-1.9-0.3-3.8-0.5-5.6c-0.2-1.6-0.4-3.2-0.5-4.8c-0.1-1.7-0.2-3.3-0.3-5
		c-0.1-1.8-0.4-3.5-0.9-5.2c-0.1-0.5-0.3-0.9-0.5-1.4c-0.3-0.9-0.7-1.8-1.4-2.4c-0.6-0.6-1.5-0.8-2.3-1c-0.4-0.1-0.8-0.2-1.2-0.3
		c-1.1-0.2-2.2-0.3-3.3-0.5c0,0-0.1,0-0.1,0C161.8,30.9,161.4,31.2,161.2,31.4L161.2,31.4z M167.1,34.9
		C167.1,35,167.1,35,167.1,34.9C167.1,35,167.1,35,167.1,34.9L167.1,34.9z M169,90.8C169,90.8,169,90.8,169,90.8
		C169,90.8,169,90.8,169,90.8L169,90.8z M169.2,91.1C169.2,91.1,169.2,91.1,169.2,91.1C169.2,91.1,169.2,91.1,169.2,91.1L169.2,91.1
		z M169.2,91.3c0,0.1,0,0.1,0,0.2C169.2,91.4,169.2,91.3,169.2,91.3L169.2,91.3z M173.1,157.9C173.1,157.9,173.1,157.9,173.1,157.9
		C173.1,157.9,173.1,157.9,173.1,157.9L173.1,157.9z M173.1,158.2C173.1,158.2,173.1,158.2,173.1,158.2
		C173.1,158.2,173.1,158.2,173.1,158.2C173.1,158.2,173.1,158.2,173.1,158.2L173.1,158.2z M173,158.3C173,158.3,173,158.3,173,158.3
		C173,158.3,173,158.3,173,158.3C173,158.3,173,158.3,173,158.3C173,158.3,173,158.3,173,158.3L173,158.3z M173,158.3
		C173,158.3,173,158.3,173,158.3C173,158.3,173,158.3,173,158.3C173,158.3,173,158.3,173,158.3L173,158.3z M175,125.4
		C175,125.4,175,125.4,175,125.4C175,125.4,175,125.4,175,125.4L175,125.4z M175,125.4c0-0.1,0-0.2-0.1-0.4
		C174.9,125.1,174.9,125.3,175,125.4L175,125.4z M169.5,103.8C169.5,103.8,169.5,103.8,169.5,103.8c0-0.1,0-0.1,0-0.1
		C169.5,103.7,169.5,103.8,169.5,103.8L169.5,103.8z M163,34C163,34,162.9,34,163,34C162.9,34,162.9,34,163,34
		C162.9,34,163,34,163,34L163,34z"/>
	<path class="st0" d="M78.8,47.6c-0.2,0.2-0.4,0.6-0.4,0.8c0.4,3.3,0.7,6.7,1.1,10c0.2,1.8,0.4,3.6,0.6,5.4c0.2,1.6,0.4,3.2,0.6,4.8
		c0.4,2.9,0.7,5.9,1,8.8c0.1,1.3,0.2,2.7,0.3,4c0.1,1.5,0.2,3,0.3,4.6c0.3,6,0.6,12,0.6,18c0,1.6,0,3.3,0,4.9c0,1.4,0,2.8,0,4.3
		c0,1.6,0.1,3.2,0.1,4.9c0.1,1.4,0.1,2.8,0.2,4.2c0.1,3.1,0.1,6.2,0.2,9.4c0,3,0.2,5.9,0.4,8.9c0.2,3.1,0.3,6.1,0.3,9.2
		c0,2.9,0.3,5.8,0.5,8.8c0.2,2.7,0.4,5.4,0.5,8.1c0,1.3,0.1,2.6,0,3.9c0,0.6,0,1.3,0,1.9c0,0.8,0,1.6,0.1,2.5c0,0.5,0.2,0.9,0.5,1.2
		c0.3,0.3,0.7,0.5,1.2,0.5c0.4,0,0.9-0.2,1.2-0.5c0.3-0.3,0.5-0.7,0.5-1.2c0.1-0.9,0.1-1.7,0.1-2.6c0-0.7,0-1.5-0.1-2.2
		c0-1.4-0.1-2.9-0.2-4.3c-0.1-1.5-0.2-2.9-0.3-4.4c-0.1-1.5-0.2-2.9-0.3-4.4c-0.1-1.6-0.2-3.2-0.3-4.7c-0.1-1.5-0.1-3-0.1-4.6
		c-0.1-3-0.2-6-0.5-8.9c-0.2-2.9-0.4-5.8-0.5-8.7c-0.1-3-0.2-6-0.5-9c-0.1-1.6-0.3-3.3-0.4-4.9c-0.1-1.5-0.2-2.9-0.2-4.4
		c-0.1-3-0.1-5.9-0.1-8.9c0-3-0.1-6-0.2-9c-0.1-3-0.2-5.9-0.3-8.9c-0.1-3.2-0.3-6.4-0.6-9.6c-0.2-3-0.6-6-1-9
		c-0.7-6-1.2-11.9-1.9-17.9c0-0.3-0.1-0.6-0.4-0.8c-0.2-0.2-0.5-0.4-0.9-0.4C79.3,47.3,79,47.4,78.8,47.6L78.8,47.6z"/>
	<path class="st0" d="M120.6,22.6c-0.1,1-0.2,2-0.4,3c-0.1,0.7-0.1,1.4-0.2,2c-0.1,0.8,0,1.6-0.1,2.4c0,0.7,0,1.4,0,2
		c0,3.1,0.1,6.2,0.1,9.2c0.1,5.9,0.2,11.7,0.4,17.6c0.1,2.9,0.1,5.7,0.1,8.6c0,3.1,0,6.1,0.1,9.2c0.1,3,0.2,6,0.3,9.1
		c0.1,3.1,0.1,6.2,0.1,9.3c0,2.9-0.1,5.7-0.2,8.6c-0.1,3-0.1,6.1-0.2,9.1c0,2.8-0.1,5.6-0.1,8.5c0,3,0.1,6,0.4,9
		c0.1,1.2,0.2,2.4,0.2,3.7c0,1.1,0,2.3,0.1,3.4c0,1.2,0,2.4,0.1,3.7c0,0.7,0,1.3,0.1,2c0,0.3,0,0.5,0,0.8c0,0.2,0,0.5,0,0.7
		c-0.4,0.9,0,1.9,0.8,2.4c0.4,0.3,1,0.3,1.4,0.2c0.5-0.1,0.8-0.4,1.1-0.9c0.6-0.9,0.4-2.2,0.3-3.2c0-0.7-0.1-1.4-0.1-2.2
		c-0.1-1.5-0.1-3-0.2-4.5c0-1.4-0.1-2.8-0.2-4.2c-0.1-1.5-0.3-3-0.4-4.5c-0.5-5.8-0.6-11.7-0.6-17.5c0-3-0.1-6,0-9
		c0-3.1,0-6.2-0.1-9.3c-0.1-2.8-0.2-5.5-0.4-8.3c-0.2-3-0.3-6-0.4-8.9c-0.1-3-0.1-5.9-0.2-8.9c-0.1-3.1-0.2-6.2-0.3-9.3
		c-0.2-6.1-0.4-12.3-0.5-18.4c0-2.5-0.1-4.9-0.1-7.4c0-1.1,0-2.3,0.1-3.4c0.1-1.5,0.3-3,0.5-4.5c0.1-0.4-0.4-0.8-0.8-0.8
		C120.9,21.8,120.6,22.1,120.6,22.6L120.6,22.6z"/>
	<path class="st0" d="M97,38.4c-0.5,0.5-1.1,1-1.6,1.5c-0.4,0.5-0.8,1.1-1,1.7c-0.1,0.4-0.2,0.8-0.4,1.2c-0.4,1.2-0.7,2.5-0.8,3.8
		c-0.3,2.7,0.9,5.2,2.5,7.3c0.3,0.4,0.6,0.9,1,1.3c0.5,0.6,0.9,1.2,1.4,1.8c0.6,0.8,1.1,1.6,1.5,2.5c0.2,0.5,0.3,1,0.4,1.5
		c0.1,0.8,0.1,1.6,0,2.5c-0.1,0.5-0.2,1.1-0.4,1.6c-0.1,0.3-0.3,0.5-0.4,0.8c-0.8,0.9-1.7,1.7-2.6,2.5c-0.5,0.4-1,0.8-1.6,1.2
		c-0.5,0.3-1,0.7-1.5,1c-0.4,0.3-0.8,0.5-1.2,0.7c-0.9,0.6-1.8,1.1-2.8,1.6c-1.1,0.6-2.2,1.2-3.2,1.8c-1.1,0.7-2.4,1.5-2.9,2.7
		c-0.2,0.5-0.4,1-0.6,1.5c-0.1,0.2-0.2,0.3-0.3,0.5c-0.1,0.2-0.3,0.3-0.4,0.4C82,79.9,81.9,80,81.9,80c-0.1,0-0.3,0.1-0.4,0.1
		c-0.5,0-1.1,0-1.6-0.1c-0.3,0-0.7-0.1-1-0.1c-0.6-0.1-1.2-0.2-1.7-0.2c-0.6-0.1-1.2-0.2-1.8-0.2c0.1,0,0.2,0,0.2,0
		c-0.8-0.1-1.6-0.3-2.5-0.5c-0.6-0.1-1.1-0.3-1.6-0.5c-0.6-0.2-1.2-0.4-1.8-0.6c-0.7-0.2-1.3-0.3-2-0.4c-0.7-0.1-1.4-0.4-2.1-0.6
		c-0.6-0.2-1.2-0.3-1.9-0.5c-1-0.2-2.1-0.3-3.1-0.3c-0.7,0-1.5,0-2.2,0c-0.7,0-1.4,0.1-2.1,0.1c-1,0.1-2,0.2-3,0.4
		c-1,0.2-2,0.6-2.9,1.1c-1.4,0.8-2.5,2.1-3.2,3.5c-0.8,1.7-1.2,3.5-1.2,5.3c0,2.2,0.4,4.3,0.8,6.4c0.2,1,0.4,2,0.7,3
		c0.4,1.8,0.9,3.6,1.1,5.4c0.1,1.2,0.2,2.3,0.1,3.5c-0.1,0.4-0.2,0.8-0.3,1.1c-0.1,0.3-0.3,0.5-0.4,0.8c-0.2,0.2-0.4,0.5-0.7,0.7
		c-0.2,0.1-0.3,0.2-0.5,0.3c-0.2,0.1-0.4,0.1-0.6,0.2c-0.2,0-0.3,0-0.5,0c-0.3-0.1-0.6-0.1-0.9-0.3c-1.1-0.5-2.1-1.1-3-1.8
		c-1-0.8-1.9-1.7-2.6-2.7c-0.7-0.9-1.3-1.9-2.1-2.7c-0.7-0.9-1.5-1.8-2.3-2.6c-1.7-1.7-3.9-2.7-6.1-3.5c-0.5-0.2-1,0.2-1.1,0.6
		c-0.1,0.5,0.2,0.9,0.6,1.1c0.3,0.1,0.6,0.2,1,0.4c0.6,0.2,1.1,0.5,1.7,0.8c0.6,0.3,1.1,0.6,1.7,1c0.6,0.5,1.2,1.1,1.7,1.7
		c0.6,0.7,1.2,1.5,1.8,2.2c-0.1-0.1-0.1-0.1-0.1-0.2c0.6,0.7,1.1,1.5,1.6,2.2c0.6,0.8,1.3,1.6,2,2.3c0.7,0.7,1.4,1.3,2.2,1.8
		c0.8,0.6,1.6,1.1,2.5,1.5c0.8,0.4,1.8,0.6,2.7,0.5c0.5-0.1,1-0.2,1.5-0.4c0.5-0.2,1-0.6,1.4-0.9c0.7-0.6,1.2-1.3,1.6-2.1
		c0.2-0.5,0.4-0.9,0.5-1.4c0.1-0.6,0.2-1.2,0.2-1.7c0.2-2.9-0.4-5.7-0.9-8.5c-0.2-1.2-0.5-2.5-0.7-3.7c-0.1-0.7-0.2-1.3-0.3-2
		c-0.2-1.5-0.3-3-0.1-4.5c0.1-0.8,0.3-1.6,0.6-2.3c0.2-0.5,0.5-0.9,0.8-1.4c0.3-0.4,0.7-0.7,1-1c0.4-0.3,0.7-0.5,1.2-0.7
		c1.7-0.6,3.5-0.9,5.2-1.2c0.5-0.1,1-0.1,1.6-0.2c1.2-0.1,2.4-0.1,3.6,0c0.9,0.1,1.8,0.3,2.6,0.5c0.7,0.1,1.4,0.2,2.1,0.3
		c0.7,0.1,1.3,0.3,1.9,0.5c0.3,0.1,0.6,0.2,0.9,0.3c0.6,0.2,1.2,0.4,1.8,0.5c1.1,0.3,2.3,0.4,3.5,0.6c0.6,0.1,1.3,0.2,1.9,0.3
		c0.8,0.1,1.6,0.2,2.4,0.3c0.4,0,0.9,0,1.3-0.2c0.4-0.1,0.7-0.3,1-0.5c0.6-0.5,1-1,1.4-1.7c0.2-0.3,0.3-0.6,0.4-1
		c0,0.1-0.1,0.2-0.1,0.2c0.1-0.1,0.1-0.2,0.2-0.4c0,0,0,0,0,0c0.1-0.2,0.2-0.4,0.3-0.6c0.3-0.3,0.5-0.6,0.8-0.8
		c0.9-0.7,1.9-1.2,2.8-1.7c0.6-0.3,1.2-0.7,1.8-1c0.5-0.3,1.1-0.6,1.6-0.9c0.6-0.4,1.2-0.7,1.7-1.1c0.6-0.5,1.3-0.9,1.9-1.4
		c0.3-0.2,0.6-0.5,0.9-0.7c0.2-0.2,0.5-0.4,0.7-0.6c0.7-0.6,1.4-1.3,2-2c0.3-0.3,0.5-0.6,0.8-1c0.2-0.4,0.4-0.8,0.6-1.2
		c0.3-0.9,0.5-1.8,0.5-2.8c0-0.7,0-1.4-0.1-2.1c-0.1-0.8-0.4-1.5-0.7-2.3c-0.3-0.6-0.6-1.1-0.9-1.7c-0.3-0.6-0.8-1.1-1.1-1.7
		c-0.8-1.3-1.7-2.6-2.4-4.1c-0.2-0.6-0.4-1.2-0.5-1.9c-0.1-0.6-0.1-1.1,0-1.7c0.1-0.9,0.4-1.7,0.7-2.6c0.2-0.7,0.4-1.5,0.7-2.2
		c0.4-0.8,0.9-1.5,1.5-2.3c0,0,0,0,0.1-0.1c0.2-0.3,0.3-0.5,0.3-0.8c0-0.3-0.1-0.6-0.3-0.8c-0.2-0.2-0.5-0.3-0.8-0.3
		C97.5,38.1,97.2,38.2,97,38.4L97,38.4z M98.1,57.2C98.1,57.2,98.1,57.2,98.1,57.2C98.1,57.2,98.1,57.2,98.1,57.2L98.1,57.2z
		 M100,63.6C100,63.6,100,63.6,100,63.6C100,63.6,100,63.6,100,63.6L100,63.6z M32.2,98.3C32.2,98.3,32.2,98.4,32.2,98.3
		C32.2,98.4,32.2,98.3,32.2,98.3L32.2,98.3z M38.8,103.3c0,0,0.1,0.1,0.1,0.1C38.9,103.3,38.8,103.3,38.8,103.3L38.8,103.3z
		 M41.6,106.2C41.7,106.2,41.7,106.2,41.6,106.2C41.7,106.2,41.7,106.2,41.6,106.2L41.6,106.2z M44.4,107.8
		C44.4,107.8,44.4,107.8,44.4,107.8C44.4,107.8,44.4,107.8,44.4,107.8L44.4,107.8z M46.9,107.9C46.9,107.9,46.8,107.9,46.9,107.9
		C46.8,107.9,46.9,107.9,46.9,107.9L46.9,107.9z"/>
	<path class="st0" d="M111,29.9c-0.7,0.6-1.4,1.3-1.9,2c-0.6,0.8-1,1.8-1.5,2.7c-0.9,2.1-1.4,4.3-1.6,6.6c-0.1,2.2,0.3,4.5,1,6.5
		c0.3,1,0.8,1.9,1.4,2.8c0.3,0.4,0.6,0.8,1,1.2c0.4,0.4,0.7,0.8,1.1,1.2c0.3,0.4,0.5,0.8,0.7,1.2c0.2,0.4,0.3,0.8,0.4,1.3
		c0.1,0.9,0.1,1.9,0.2,2.8c0,0.5,0.1,1,0.3,1.5c0.2,0.5,0.4,1,0.7,1.5c0.6,0.9,1.3,1.6,2.2,2.2c0.8,0.6,1.7,1,2.7,1.3
		c1,0.3,2,0.5,3,0.7c1,0.1,2.1,0,3.1-0.2c1-0.2,2-0.6,2.9-1.1c0.9-0.5,1.7-1.1,2.5-1.7c0.5-0.4,0.9-0.7,1.4-1.1
		c0.5-0.4,1.1-0.7,1.7-1.1c0.6-0.4,1.3-0.7,2-1c0.6-0.3,1.3-0.5,2-0.6c0.3,0,0.6,0,0.9,0c0.2,0,0.4,0.1,0.6,0.2
		c0.5,0.2,1,0.6,1.5,0.9c0.4,0.2,0.8,0.5,1.1,0.7c1,0.6,2,1.2,2.9,1.9c0.3,0.3,0.7,0.6,0.9,0.9c0.3,0.5,0.6,1,0.9,1.5
		c0.5,1.3,0.9,2.6,1.3,3.8c0.2,0.5,0.4,1,0.6,1.5c0.2,0.5,0.5,1.1,0.8,1.6c0.2,0.5,0.5,1,0.8,1.5c0.2,0.4,0.4,0.7,0.6,1.1
		c0.4,0.7,0.9,1.3,1.4,1.9c0.5,0.6,1,1,1.6,1.4c0.7,0.4,1.4,0.7,2.2,1c1.5,0.5,3.1,0.8,4.6,0.8c1,0,2-0.1,2.9-0.3
		c0.8-0.1,1.6-0.3,2.3-0.5c0.7-0.2,1.3-0.4,2-0.7c0.7-0.2,1.4-0.5,2-0.8c0.4-0.2,0.7-0.4,1-0.7c0.2-0.2,0.4-0.5,0.6-0.7c0,0,0,0,0,0
		c0.3-0.4,0.4-0.9,0.2-1.3c-0.3-0.4-0.7-0.6-1.2-0.5c-0.1,0-0.3,0-0.5,0.1c-0.2,0.1-0.4,0.1-0.5,0.2c0.1,0,0.1-0.1,0.2-0.1
		c-0.2,0.1-0.4,0.2-0.6,0.3c0,0,0,0,0,0c-0.9,0.3-1.7,0.6-2.6,0.9c-0.4,0.1-0.9,0.3-1.3,0.4c-1.1,0.3-2.2,0.6-3.3,0.7
		c-0.6,0.1-1.1,0.1-1.7,0.1c-0.6,0-1.2,0-1.8-0.1c-0.9-0.1-1.7-0.3-2.6-0.6c-0.4-0.2-0.8-0.4-1.2-0.7c-0.5-0.4-0.9-0.8-1.2-1.3
		c-0.5-0.6-0.8-1.3-1.2-2c-0.2-0.4-0.5-0.8-0.7-1.2c-0.2-0.4-0.5-0.8-0.7-1.2c-0.2-0.4-0.4-0.8-0.6-1.2c-0.4-1.1-0.8-2.1-1.2-3.2
		c-0.5-1.4-1.2-2.8-2.3-3.7c-0.5-0.5-1.1-0.8-1.7-1.2c-0.4-0.2-0.8-0.5-1.1-0.7c-0.5-0.3-0.9-0.5-1.4-0.8c-0.3-0.2-0.6-0.3-0.8-0.5
		c-0.5-0.3-1-0.6-1.5-0.8c-1.4-0.6-2.9-0.3-4.3,0.2c-0.7,0.2-1.3,0.5-2,0.8c-0.7,0.3-1.4,0.7-2,1.1c-0.6,0.4-1.2,0.8-1.7,1.2
		c-0.4,0.3-0.8,0.6-1.2,0.8c-0.6,0.4-1.3,0.8-2,1.1c-0.8,0.3-1.6,0.5-2.4,0.7c-0.7,0.1-1.4,0.1-2.1,0c-1-0.2-2.1-0.5-3.1-0.8
		c-0.7-0.3-1.3-0.7-2-1.2c-0.4-0.3-0.7-0.6-1-1c-0.2-0.3-0.5-0.7-0.6-1.1c-0.2-0.5-0.3-1.1-0.4-1.6c-0.1-0.7-0.1-1.5-0.3-2.2
		c-0.1-0.8-0.5-1.6-0.9-2.3c-0.2-0.3-0.4-0.6-0.6-0.9c-0.3-0.3-0.6-0.6-0.9-0.9c-0.6-0.5-1.1-1.1-1.6-1.7c-0.4-0.6-0.8-1.2-1-1.8
		c0,0,0,0,0,0.1c0,0,0-0.1,0-0.1c0,0,0,0,0,0c0,0,0,0,0,0c-0.5-1.3-0.9-2.7-1.1-4.1c-0.2-1.4-0.2-2.8,0-4.3c0,0,0,0.1,0,0.1
		c0.2-1.5,0.6-2.9,1.2-4.3c0.5-1.1,1-2.3,1.8-3.3c0,0,0,0.1-0.1,0.1c0.4-0.5,0.8-0.9,1.3-1.3c0,0,0.1-0.1,0.1-0.1
		c0.2-0.1,0.3-0.4,0.2-0.6c-0.1-0.1-0.2-0.2-0.4-0.2C111.2,29.8,111.1,29.8,111,29.9L111,29.9z M107.2,43.5
		C107.2,43.6,107.2,43.6,107.2,43.5C107.2,43.6,107.2,43.6,107.2,43.5L107.2,43.5z M143.3,62.3c0.1,0,0.1,0.1,0.2,0.1
		C143.4,62.3,143.3,62.3,143.3,62.3L143.3,62.3z M156.4,76.4C156.4,76.4,156.4,76.4,156.4,76.4C156.4,76.4,156.4,76.4,156.4,76.4
		L156.4,76.4z M156.6,76.4c0,0,0.1,0,0.1,0C156.7,76.4,156.6,76.4,156.6,76.4L156.6,76.4z M108.3,47.7
		C108.3,47.7,108.3,47.7,108.3,47.7C108.3,47.7,108.3,47.7,108.3,47.7C108.3,47.7,108.3,47.7,108.3,47.7L108.3,47.7z"/>
	<path class="st0" d="M118.8,82.2c-0.8,0.1-1.6,0.4-2.4,0.6c-0.9,0.3-1.8,0.7-2.6,1.2c-0.7,0.4-1.4,0.9-2.1,1.4
		c-0.8,0.6-1.5,1.2-2.1,2c-0.6,0.7-1.1,1.4-1.4,2.3c-0.2,0.5-0.4,0.9-0.5,1.4c-0.1,0.5-0.2,1.1-0.3,1.7c-0.1,1,0.1,1.9,0.2,2.9
		c0.1,0.9,0.3,1.8,0.6,2.8c0.5,1.8,1.1,3.5,1.9,5.1c0.3,0.7,0.6,1.3,1,1.9c0.6,1.1,1.2,2.3,1.7,3.5c0.7,1.7,1.2,3.5,1.5,5.4
		c0.3,2.1,0.3,4.3,0.1,6.5c-0.1,0.7-0.3,1.4-0.5,2.1c-0.1,0.3-0.3,0.5-0.5,0.8c-0.2,0.3-0.5,0.5-0.7,0.7c-0.6,0.4-1.2,0.8-1.9,1.1
		c-0.8,0.3-1.6,0.5-2.5,0.7c-0.6,0.1-1.1,0.1-1.7,0c-0.5-0.1-1-0.2-1.5-0.4c-0.5-0.2-1-0.5-1.4-0.8c-0.7-0.5-1.3-1.2-1.8-1.8
		c-0.9-1.2-1.8-2.6-2.6-3.9c-0.9-1.3-2-2.5-3.3-3.4c-2.7-1.8-6-2.1-9-3.2c-0.2-0.1-0.4-0.2-0.6-0.3c-0.1-0.1-0.3-0.2-0.4-0.4
		c-0.1-0.2-0.2-0.3-0.3-0.5c-0.1-0.2-0.1-0.5-0.2-0.7c-0.1-1.3,0-2.6,0.1-3.9c0.1-0.6,0.1-1.3,0.1-1.9c0.1-1.5-0.1-2.9-0.3-4.4
		c-0.2-1.4-0.6-2.8-1.1-4.1c-0.5-1.3-1.3-2.5-2.3-3.4c-0.5-0.4-1.1-0.7-1.7-0.9c-0.7-0.2-1.4-0.1-2.1,0c-0.6,0.1-1.2,0.4-1.8,0.7
		c-0.3,0.2-0.5,0.4-0.8,0.6c-0.2,0.2-0.4,0.5-0.6,0.7c-0.1,0.2-0.3,0.3-0.5,0.5c-0.6,0.4-1.2,0.7-1.8,1.1c-0.5,0.3-1,0.6-1.6,0.9
		c-1.2,0.7-2.4,1.4-3.6,2.1c-0.7,0.4-1.4,0.8-2.1,1.3c-0.7,0.5-1.4,0.9-2.1,1.4c-0.8,0.6-1.6,1.2-2.3,1.8c-0.6,0.6-1.2,1.3-1.7,2
		c-0.5,0.8-0.9,1.6-1.2,2.5c-0.3,0.9-0.4,1.8-0.4,2.8c0,0.7,0.1,1.5,0.2,2.2c0.2,1.1,0.3,2.2,0.5,3.3c0.2,1.1,0.4,2.2,0.7,3.3
		c0.3,1.1,0.6,2.3,0.9,3.4c0.5,1.8,1.1,3.6,1.4,5.5c0.2,1.9,0.1,3.8-0.1,5.6c0,0,0,0,0-0.1c0,0,0,0,0,0.1c0,0.1,0,0.2,0,0.2
		c0-0.1,0-0.2,0-0.2c-0.2,1.7-0.6,3.4-1.3,5c-0.4,1-1,1.9-1.6,2.8c-0.5,0.6-1.1,1.2-1.7,1.7c-0.4,0.3-0.8,0.5-1.2,0.8
		c-0.5,0.2-1,0.3-1.5,0.4c-0.2,0-0.4,0-0.7,0c-0.3-0.1-0.6-0.1-0.9-0.3c-0.4-0.2-0.8-0.5-1.2-0.8c-0.5-0.4-0.9-0.8-1.3-1.3
		c-0.6-0.8-1.2-1.7-1.8-2.6c-0.5-0.8-1.1-1.6-1.8-2.3c-0.7-0.8-1.5-1.5-2.4-2.1c-0.9-0.6-1.9-1.2-2.9-1.6c-1-0.4-2.1-0.6-3.2-0.7
		c-1.2-0.1-2.3,0-3.4,0.2c-1.1,0.3-2.2,0.6-3.4,0.9c-0.4,0.1-0.7,0.6-0.6,1c0.1,0.4,0.6,0.7,1,0.6c0.7-0.2,1.4-0.4,2-0.6
		c0.7-0.2,1.5-0.4,2.2-0.5c0.8-0.1,1.6-0.1,2.4,0c0.8,0.1,1.6,0.3,2.4,0.6c1.1,0.5,2.1,1.1,3,1.8c0.8,0.7,1.6,1.5,2.3,2.3
		c0.6,0.8,1.1,1.6,1.6,2.4c0.6,1,1.3,2,2.2,2.8c0.6,0.6,1.3,1.1,2,1.4c0.8,0.4,1.7,0.6,2.6,0.5c0.9-0.1,1.7-0.3,2.5-0.7
		c0.8-0.4,1.6-1,2.2-1.5c1.3-1.2,2.3-2.7,3.1-4.3c0.8-1.7,1.2-3.5,1.5-5.3c0.3-1.8,0.4-3.7,0.4-5.6c0-0.9-0.2-1.8-0.3-2.7
		c-0.1-0.6-0.2-1.2-0.4-1.8c-0.2-0.9-0.5-1.8-0.7-2.8c-0.2-0.8-0.4-1.6-0.6-2.4c-0.1-0.6-0.3-1.3-0.4-1.9c-0.1-0.9-0.3-1.7-0.4-2.6
		c-0.2-1.6-0.4-3.1-0.2-4.7c0.1-0.4,0.2-0.9,0.3-1.3c0.3-0.6,0.6-1.1,1-1.7c0.6-0.8,1.3-1.4,2.1-2c1.4-1.1,2.9-2,4.4-2.9
		c0.8-0.5,1.6-1,2.4-1.5c0.9-0.6,1.8-1.1,2.6-1.7c0.5-0.4,1-0.7,1.5-1.1c0.3-0.2,0.5-0.5,0.7-0.7c0.3-0.3,0.4-0.7,0.6-1
		c0.1-0.2,0.2-0.5,0.3-0.7c0-0.1,0.1-0.1,0.1-0.2c0.1-0.2,0.3-0.3,0.4-0.4c0.2-0.1,0.4-0.3,0.6-0.4c0.4-0.1,0.8-0.2,1.2-0.3
		c0.1,0,0.3,0,0.4,0c0.2,0,0.3,0.1,0.5,0.2c0.3,0.1,0.6,0.3,0.8,0.5c0.4,0.3,0.7,0.7,1,1c0.4,0.5,0.7,1,0.9,1.6
		c0.6,1.6,1,3.2,1.3,4.9c0.1,0.5,0.1,1,0.2,1.6c0,0.6,0,1.1,0,1.7c0,0.5-0.1,1.1-0.2,1.6c-0.1,0.8-0.2,1.7-0.3,2.5
		c-0.1,1-0.1,2,0.2,2.9c0.2,0.5,0.5,1,0.8,1.3c0.4,0.4,0.9,0.7,1.4,1c1.1,0.5,2.3,0.8,3.4,1.1c1.1,0.3,2.2,0.6,3.3,1.1
		c0.8,0.3,1.5,0.8,2.2,1.3c0.7,0.6,1.4,1.3,2,2.1c0.5,0.6,0.9,1.3,1.3,1.9c0.5,0.8,1,1.5,1.6,2.3c0.5,0.7,1,1.3,1.6,1.8
		c0.7,0.6,1.4,1.1,2.3,1.5c0.8,0.4,1.6,0.5,2.5,0.7c0.9,0.1,1.9,0,2.8-0.2c0.8-0.2,1.7-0.5,2.4-0.8c0.8-0.4,1.6-0.9,2.3-1.5
		c1.3-1.1,1.8-2.9,2.1-4.5c0.3-1.9,0.3-3.8,0.2-5.7c-0.1-1.9-0.4-3.7-0.9-5.5c-0.4-1.3-0.8-2.5-1.3-3.7c-0.6-1.3-1.1-2.6-1.7-3.9
		c-0.4-1.1-0.8-2.1-1.1-3.2c-0.3-1.1-0.6-2.3-0.7-3.5c-0.1-0.9-0.2-1.9-0.1-2.8c0.1-0.5,0.2-1,0.4-1.5c0.2-0.5,0.5-1,0.8-1.4
		c0.6-0.7,1.3-1.4,2.1-2c0.6-0.4,1.2-0.8,1.8-1.2c0.6-0.4,1.2-0.7,1.9-0.9c0.3-0.1,0.6-0.2,0.9-0.4c0,0-0.1,0-0.1,0
		c0.4-0.2,0.9-0.4,1.4-0.5c0.7,0,1.4,0.1,2.1,0.2c0.5,0,1,0,1.5,0.1c0,0,0,0,0,0c0.4,0.2,0.8,0.5,1.2,0.7c0.5,0.2,1,0.5,1.5,0.8
		c1.3,0.7,2.6,1.4,3.8,2.3c0,0-0.1-0.1-0.1-0.1c0.4,0.3,0.8,0.7,1.1,1.1c0.4,0.5,0.7,1.1,1,1.7c0.5,1.2,0.8,2.5,0.9,3.7
		c0,0,0,0,0-0.1c0.1,1.1,0.2,2.1,0.2,3.2c0,1-0.1,2.1-0.2,3.1c-0.3,1.9-0.8,3.7-1.5,5.4c-0.5,1.1-1,2.3-1.5,3.4
		c-0.2,0.5-0.4,1-0.6,1.5c-0.2,0.4-0.3,0.8-0.5,1.1c-0.1,0.3-0.1,0.7-0.2,1c0,0.4,0.1,0.7,0.3,1.1c0.5,1.1,1.6,1.9,2.5,2.6
		c0.4,0.3,0.8,0.7,1.2,1c0.9,0.7,1.7,1.6,2.5,2.5c0.3,0.4,0.6,0.8,1,1.2c1.1,1.5,2.1,3,3.2,4.5c0.5,0.7,1.1,1.5,1.6,2.2
		c0.3,0.4,0.6,0.8,0.9,1.2c0.6,0.8,1.1,1.6,1.5,2.5c0.4,0.9,0.6,1.9,0.7,2.8c0.1,1,0.2,2,0.1,2.9c0,0.5,0,1-0.1,1.6
		c0,0.5-0.1,1.1-0.1,1.6c0,0.4-0.1,0.8-0.2,1.2c0,0,0,0,0,0c0,0,0,0.1,0,0.1c-0.2,1-0.4,2-0.6,3c-0.3,1.2-0.6,2.3-0.7,3.5
		c0,0.6,0.5,1.1,1.1,1.1c0.3,0,0.6-0.1,0.8-0.3c0.2-0.2,0.3-0.5,0.3-0.8c0.2-1.1,0.5-2.3,0.7-3.4c0.1-0.7,0.3-1.4,0.4-2
		c0.1-0.7,0.2-1.4,0.3-2.2c0.2-1.3,0.2-2.5,0.3-3.8c0.1-1.8-0.1-3.6-0.6-5.3c-0.4-1.4-1.1-2.6-1.9-3.8c-0.7-1-1.4-2-2.1-3
		c-0.8-1.1-1.5-2.2-2.3-3.4c-0.4-0.5-0.8-1.1-1.1-1.6c-0.4-0.6-0.9-1.1-1.3-1.7c-0.8-1-1.8-1.9-2.9-2.7c-0.7-0.5-1.4-1-2.2-1.6
		c-0.4-0.3-0.7-0.6-1-0.9c-0.1-0.1-0.1-0.2-0.2-0.3c0,0,0,0,0,0c0-0.1,0-0.2,0-0.4c0.3-1.3,0.8-2.6,1.3-3.9c0.4-1.1,0.9-2.2,1.3-3.4
		c0.3-0.8,0.5-1.6,0.7-2.5c0.2-0.9,0.3-1.8,0.4-2.7c0.2-1.8,0.1-3.6-0.1-5.4c-0.2-1.7-0.6-3.3-1.3-4.9c-0.3-0.7-0.8-1.3-1.3-1.9
		c-0.6-0.7-1.3-1.2-2-1.7c-0.7-0.5-1.4-0.8-2.1-1.2c-0.7-0.4-1.3-0.7-2-1c-0.3-0.1-0.6-0.3-0.8-0.5c-0.1-0.1-0.3-0.2-0.4-0.3
		c-0.2-0.1-0.4-0.2-0.7-0.3c-0.5-0.2-0.9-0.5-1.4-0.7c-0.2-0.1-0.5-0.2-0.7-0.4c-0.3-0.1-0.6-0.3-0.9-0.4c-0.3-0.1-0.6-0.1-0.9-0.1
		C119.3,82.1,119.1,82.1,118.8,82.2L118.8,82.2z M123.3,85C123.3,85,123.4,85,123.3,85C123.4,85,123.3,85,123.3,85L123.3,85z
		 M130.9,89.7C130.9,89.7,130.9,89.7,130.9,89.7C130.9,89.7,130.9,89.7,130.9,89.7L130.9,89.7z M74.9,93.9c0,0-0.1,0.1-0.1,0.1
		C74.9,94,74.9,93.9,74.9,93.9L74.9,93.9z M86.4,112.2C86.4,112.2,86.4,112.3,86.4,112.2C86.4,112.3,86.4,112.2,86.4,112.2
		L86.4,112.2z M130.7,113.8C130.7,113.8,130.8,113.8,130.7,113.8C130.8,113.8,130.7,113.8,130.7,113.8L130.7,113.8z M130.8,113.8
		C130.8,113.9,130.8,113.9,130.8,113.8C130.8,113.9,130.8,113.9,130.8,113.8L130.8,113.8z M114.2,114.1
		C114.2,114.1,114.2,114.2,114.2,114.1C114.2,114.2,114.2,114.1,114.2,114.1L114.2,114.1z M114.2,114.2c0,0.1,0,0.1,0,0.2
		C114.2,114.3,114.2,114.3,114.2,114.2L114.2,114.2z M95.4,117.6C95.5,117.7,95.5,117.7,95.4,117.6
		C95.5,117.7,95.5,117.7,95.4,117.6L95.4,117.6z M114.3,120.5C114.3,120.6,114.3,120.6,114.3,120.5
		C114.3,120.6,114.3,120.6,114.3,120.5L114.3,120.5z M144,135.3C144,135.3,144,135.3,144,135.3C144,135.3,144,135.3,144,135.3
		L144,135.3z M144.1,135.4c0,0,0,0.1,0,0.1C144.1,135.5,144.1,135.5,144.1,135.4L144.1,135.4z M60.3,138.2c0,0.1-0.1,0.1-0.1,0.2
		C60.3,138.3,60.3,138.3,60.3,138.2L60.3,138.2z M61.5,133.5C61.5,133.5,61.5,133.5,61.5,133.5C61.5,133.5,61.5,133.5,61.5,133.5
		C61.5,133.5,61.5,133.5,61.5,133.5L61.5,133.5z"/>
	<path class="st0" d="M156.7,93.9c-1.6,0.4-3.2,1-4.6,1.8c-1.4,0.7-2.8,1.5-4.1,2.5c-1.2,0.9-2.4,2-3.1,3.4
		c-0.3,0.7-0.6,1.4-0.7,2.1c-0.1,0.8,0,1.7,0.1,2.5c0.1,0.7,0.4,1.4,0.8,2.1c0.4,0.7,0.8,1.4,1.4,2c0.5,0.6,1.1,1.2,1.7,1.8
		c0.3,0.4,0.7,0.7,1,1.1c0.5,0.5,0.9,1.1,1.3,1.6c0.6,0.8,1.3,1.7,1.9,2.6c0.8,1.2,1.6,2.4,2.2,3.8c0.4,0.9,0.6,1.8,0.7,2.7
		c0.3,2,0.1,4.1,0,6.1c-0.1,1.8-0.1,3.7,0.2,5.5c0.1,0.7,0.3,1.4,0.6,2.1c0.3,0.8,0.7,1.6,1.2,2.2c0.5,0.6,1.1,1,1.7,1.5
		c0.7,0.5,1.5,0.9,2.2,1.3c1.5,0.7,3.1,1.2,4.7,1.4c0.6,0.1,1.1,0.1,1.7,0.1c0.9,0,1.8,0.1,2.7,0c0.5,0,1,0,1.4-0.1
		c0.3,0,0.6-0.1,0.9-0.1c0.2,0,0.4-0.1,0.7-0.2c0.2-0.1,0.3-0.2,0.5-0.3c0,0,0.1-0.1,0.1-0.1c0.1-0.1,0.2-0.2,0.3-0.3
		c0.1-0.2,0.2-0.4,0.2-0.6c0-0.3-0.1-0.6-0.3-0.8c-0.4-0.4-0.9-0.4-1.3-0.2c-0.4,0.1-0.8,0.2-1.2,0.3c-0.9,0.1-1.8,0.1-2.7,0.1
		c-0.9,0-1.9-0.1-2.8-0.2c-1.1-0.2-2.2-0.5-3.3-0.9c-1.1-0.5-2.1-1-3-1.7c-0.3-0.2-0.6-0.5-0.8-0.8c-0.3-0.4-0.5-0.8-0.7-1.3
		c-0.3-0.8-0.6-1.7-0.7-2.6c-0.2-1.5-0.2-3.1-0.2-4.6c0-0.7,0-1.4,0-2c0-0.8,0-1.6,0-2.4c-0.1-0.8-0.2-1.7-0.3-2.5
		c-0.3-1.6-1-3-1.9-4.4c-0.3-0.5-0.6-1-1-1.4c-0.7-1-1.4-1.9-2.1-2.9c-0.2-0.3-0.5-0.6-0.7-0.9c-0.2-0.3-0.5-0.6-0.8-0.9
		c-0.4-0.4-0.7-0.8-1.1-1.2c-0.2-0.3-0.5-0.5-0.8-0.8c-0.4-0.4-0.8-0.8-1.1-1.3c-0.4-0.5-0.7-1.1-1-1.7c-0.2-0.6-0.4-1.2-0.5-1.8
		c0-0.4-0.1-0.8,0-1.3c0.1-0.4,0.2-0.8,0.3-1.1c0.2-0.4,0.4-0.8,0.7-1.2c0.5-0.6,1-1.1,1.6-1.5c0.8-0.6,1.7-1.1,2.6-1.6
		c1-0.6,2-1.1,3-1.5c0,0,0,0-0.1,0c0,0,0.1,0,0.1,0c0.1,0,0.1-0.1,0.2-0.1c-0.1,0-0.1,0-0.2,0.1c1.5-0.6,3.1-1.1,4.7-1.4
		c1.5-0.2,3-0.2,4.6,0c1,0.2,2,0.4,3,0.8c0.5,0.2,1.1,0.5,1.6,0.9c0.5,0.3,1,0.7,1.5,1.1c0.2,0.2,0.6,0.2,0.8,0.1
		c0.3-0.1,0.5-0.2,0.6-0.5c0.1-0.2,0.2-0.5,0.1-0.8c-0.1-0.3-0.3-0.5-0.5-0.6c-0.6-0.4-1.2-0.9-1.8-1.3c-0.7-0.5-1.5-0.8-2.3-1.1
		c-1.5-0.5-3.2-0.8-4.8-0.8c-0.2,0-0.4,0-0.6,0C159.5,93.4,158.1,93.6,156.7,93.9L156.7,93.9z M163.2,95.7
		C163.2,95.7,163.3,95.7,163.2,95.7C163.3,95.7,163.2,95.7,163.2,95.7L163.2,95.7z M158.7,95.7C158.7,95.7,158.7,95.7,158.7,95.7
		C158.7,95.7,158.7,95.7,158.7,95.7L158.7,95.7z M148.6,100.2c0,0-0.1,0.1-0.1,0.1C148.5,100.3,148.5,100.2,148.6,100.2L148.6,100.2
		z M146,105.4c0,0.1,0,0.1,0,0.2C146,105.5,146,105.4,146,105.4L146,105.4z M157.5,134C157.5,134.1,157.5,134.1,157.5,134
		C157.5,134.1,157.5,134.1,157.5,134L157.5,134z M157.5,134.2c0,0,0,0.1,0,0.1C157.5,134.3,157.5,134.2,157.5,134.2L157.5,134.2z
		 M162.6,140.5C162.6,140.5,162.6,140.5,162.6,140.5C162.6,140.5,162.6,140.5,162.6,140.5L162.6,140.5z M154.2,97
		C154.1,97,154.1,97,154.2,97C154.1,97,154.2,97,154.2,97C154.2,97,154.2,97,154.2,97L154.2,97z"/>
	<path class="st0" d="M55.8,131.4c-0.9,0.1-1.6,0.4-2.4,0.8c-0.8,0.3-1.4,0.8-2.1,1.2c-0.7,0.5-1.3,1-1.9,1.7
		c-0.6,0.7-1.2,1.4-1.6,2.2c-0.8,1.4-1.3,2.9-1.4,4.5c-0.1,0.6-0.1,1.2,0,1.7c0.1,0.8,0.2,1.6,0.5,2.3c0.2,0.4,0.3,0.8,0.6,1.2
		c0.3,0.4,0.6,0.8,0.9,1.2c0.5,0.6,1.2,1.1,1.9,1.5c0.5,0.3,1,0.6,1.6,0.8c0.1,0,0.1,0.1,0.2,0.1c1.6,0.9,3.4,1.3,5.3,1.3
		c0,0,0.1,0,0.1,0c0.6,0,1.2,0,1.8-0.1c0.8-0.1,1.6-0.5,2.3-0.8c0.6-0.3,1.2-0.7,1.7-1.2c0,0,0,0,0.1,0c0.4-0.2,0.8-0.5,1.1-0.8
		c0.4-0.3,0.7-0.7,1-1.1c1-1.3,1.6-2.9,1.9-4.6c0.3-1.8,0.3-3.6,0-5.4c-0.2-0.8-0.5-1.6-0.9-2.3c-0.4-0.8-0.9-1.5-1.5-2.1
		c-1-1-2.3-1.5-3.7-1.6c-0.4-0.2-0.8-0.3-1.3-0.4c-0.5-0.1-0.9-0.2-1.4-0.2c-0.2,0-0.5,0-0.7,0C57.2,131.2,56.5,131.3,55.8,131.4
		L55.8,131.4z M55.7,135.6c0.3-0.1,0.6-0.2,1-0.2c0,0,0,0,0.1,0.1c0.5,0.5,1.1,1,1.6,1.6c0.3,0.3,0.5,0.6,0.8,0.9
		c0.5,0.6,1.1,1.1,1.6,1.7c0.3,0.5,0.7,0.9,0.9,1.4c0,0.1,0.1,0.3,0.1,0.4c0,0.6,0,1.1-0.1,1.7c-0.1,0.7-0.3,1.4-0.6,2
		c-0.3,0.6-0.6,1.1-0.9,1.6c-0.3,0.4-0.6,0.7-1,1c0,0,0,0-0.1,0.1c-0.7,0-1.3,0-2,0c-0.9-0.1-1.7-0.4-2.6-0.7
		c-0.7-0.3-1.4-0.7-2-1.2c-0.3-0.3-0.7-0.6-0.9-0.9c-0.2-0.3-0.4-0.7-0.6-1c-0.2-0.4-0.3-0.9-0.4-1.3c0-0.4,0-0.8,0-1.2
		c0.1-0.7,0.3-1.4,0.6-2.1c0.3-0.7,0.7-1.4,1.2-2.1c0,0,0,0,0.1-0.1c0.2-0.2,0.3-0.3,0.5-0.5c0.3-0.2,0.6-0.3,0.9-0.4
		C54.5,136,55.1,135.7,55.7,135.6L55.7,135.6z M53.7,136.3C53.7,136.3,53.7,136.3,53.7,136.3C53.7,136.3,53.7,136.3,53.7,136.3
		L53.7,136.3z"/>
	<path class="st0" d="M152,58.9c-0.3,0.3-0.6,0.6-1,0.9c-0.1,0-0.1,0.1-0.2,0.1c-0.1,0.1-0.2,0.2-0.3,0.3c-0.3,0.3-0.6,0.6-0.8,0.9
		c-0.7,0.7-1.3,1.4-2,2.1c-1,1.1-2,2.2-3,3.3c-0.9,1-1.7,1.9-2.6,2.9c-0.3,0.3-0.5,0.6-0.8,0.9c-1.3,1.3-2.6,2.6-3.8,3.9
		c-0.3,0.3-0.6,0.6-0.8,0.9c-0.6,0.6-0.7,1.5-0.3,2.3c0.5,0.9,1.7,1.2,2.6,0.7c0.5-0.3,0.9-0.6,1.3-1c0.4-0.3,0.8-0.7,1.1-1.1
		c0.1-0.1,0.1-0.1,0.2-0.2c0.4,0.1,0.8,0.1,1.1,0c0.5-0.1,0.9-0.5,1.2-0.9c1.2-1.7,2.5-3.4,3.7-5c0.5-0.7,1.1-1.4,1.7-2
		c0.6-0.7,1.3-1.4,2-2.1c0.7-0.7,1.3-1.3,2-2c0.4-0.4,0.7-0.7,1-1.1c0.4-0.4,0.7-0.9,0.9-1.3c0.5-0.8,0.3-1.9-0.3-2.5
		c-0.4-0.4-0.9-0.6-1.5-0.6C153,58.3,152.4,58.5,152,58.9L152,58.9z"/>
	<path class="st0" d="M146.1,55.1c-0.1,0.1-0.2,0.2-0.3,0.4c-0.2,0.2-0.2,0.4-0.3,0.7c-0.1,0.4-0.1,0.8-0.1,1.3
		c0,0.1-0.1,0.3-0.1,0.4c0,0.2,0,0.4,0,0.6c0,0.1-0.1,0.2-0.1,0.2c-0.1,0.3-0.1,0.7-0.2,1c0,0.5,0,1,0,1.5c0,0.4,0,0.7,0,1.1
		c0,0.2,0,0.3,0,0.5c0,0.2,0,0.4,0,0.5c-0.1,0.7-0.1,1.3-0.2,2c-0.1,1.3-0.2,2.6-0.3,3.9c0,0.5-0.1,1-0.1,1.6c0,0.8,0,1.6,0,2.5
		c0,1.4,0,2.7,0.1,4.1c0,0.6,0.4,1.2,0.9,1.5c0,0.4,0.2,0.8,0.5,1.1c0,0.1,0,0.2,0,0.2c0,0.3,0.1,0.6,0.1,0.8c0,0.1,0.1,0.1,0.1,0.2
		c0.1,0.2,0.2,0.4,0.3,0.6c0.4,0.7,1.4,1.1,2.1,0.9c0.8-0.2,1.4-1,1.4-1.8c0-2.4,0.1-4.8,0.1-7.3c0-1.8,0.1-3.5,0-5.3
		c0-1.7-0.2-3.3-0.4-5c-0.1-0.8-0.2-1.5-0.4-2.3c-0.1-0.2-0.1-0.4-0.2-0.6c0-0.5,0.1-1,0.1-1.5c0-0.6-0.2-1.1-0.7-1.4
		c-0.1-0.5-0.1-1-0.2-1.4c0,0,0,0.1,0,0.1c0,0,0-0.1,0-0.1c0-0.1,0-0.1,0-0.2c0,0.1,0,0.1,0,0.2c0-0.1,0-0.1,0-0.2
		c-0.1-0.4-0.2-0.8-0.6-1.1c-0.2-0.1-0.4-0.2-0.6-0.2C146.7,54.7,146.4,54.8,146.1,55.1L146.1,55.1z M148.2,56.1
		C148.3,56.1,148.3,56.2,148.2,56.1C148.3,56.1,148.3,56.1,148.2,56.1C148.2,56.1,148.2,56.1,148.2,56.1L148.2,56.1z"/>
	<path class="st0" d="M56.9,128.2c-0.6,0.1-1.2,0.2-1.7,0.4c-0.5,0.2-1.1,0.4-1.6,0.6c-0.5,0.2-1,0.4-1.5,0.7
		c-0.4,0.3-0.8,0.6-1.2,0.9c-0.4,0.3-0.8,0.6-1.2,1c-0.4,0.4-0.9,0.8-1.3,1.1c-0.2,0.1-0.1,0.4,0,0.5c0.1,0.1,0.4,0.1,0.5,0
		c0.4-0.3,0.7-0.6,1.1-0.9c0.4-0.4,0.9-0.7,1.4-1.1c0.3-0.2,0.6-0.5,0.9-0.7c0.3-0.2,0.6-0.4,1-0.5c0,0,0,0,0,0
		c0.6-0.3,1.3-0.5,1.9-0.7c0.7-0.2,1.3-0.4,2-0.5c0.3,0,0.5-0.1,0.8-0.1c0.3,0,0.5,0,0.8,0.1c0.7,0.1,1.3,0.3,2,0.5
		c0.5,0.2,1.1,0.5,1.5,0.9c0.3,0.3,0.7,0.5,0.9,0.8c0.4,0.3,0.7,0.7,1,1.1c0,0,0-0.1-0.1-0.1c0.4,0.5,0.7,1,1,1.5
		c0.3,0.5,0.6,1.1,0.8,1.6c0.4,1,0.7,2,0.8,3c0,0,0,0,0,0c0.1,0.4,0.1,0.8,0.1,1.2c0,0.5,0,0.9-0.1,1.4c-0.1,0.9-0.4,1.8-0.7,2.7
		c-0.1,0.3-0.3,0.6-0.4,0.9c-0.2,0.3-0.4,0.7-0.7,1c0,0,0.1-0.1,0.1-0.1c-0.5,0.6-1,1.1-1.6,1.6c-0.2,0.2-0.4,0.3-0.7,0.4
		c-0.3,0.1-0.5,0.2-0.8,0.3c-0.4,0.1-0.7,0.2-1.1,0.3c-0.4,0.1-0.8,0.1-1.2,0.2c-0.4,0.1-0.8,0.1-1.2,0.2c0,0,0.1,0,0.1,0
		c-1.1,0.1-2.3,0.3-3.4,0.3c-0.5,0-1.1,0-1.6,0c-0.6,0-1.1-0.1-1.7-0.1c-0.4-0.1-0.7-0.1-1.1-0.2c-0.4-0.1-0.7-0.2-1-0.4
		c-0.4-0.2-0.8-0.4-1.1-0.6c-0.2-0.2-0.4-0.4-0.6-0.6c-0.3-0.4-0.5-0.7-0.7-1.1c-0.1-0.4-0.3-0.7-0.3-1.1c-0.1-0.5,0-1.1,0-1.6
		c0-0.6,0.1-1.1,0.2-1.7c0,0,0,0.1,0,0.1c0.1-1,0.4-2,0.7-3c0.3-0.8,0.8-1.5,1.3-2.2c0.5-0.6,1-1.1,1.6-1.6c0.5-0.4,1.1-0.7,1.6-1
		c0.3-0.1,0.6-0.2,0.9-0.3c0.3,0,0.6,0,0.9,0c0.2,0,0.3,0.1,0.5,0.1c0,0,0.1,0,0.1,0c0.1,0.1,0.1,0.1,0.2,0.2
		c0.1,0.2,0.3,0.4,0.4,0.6c0.2,0.3,0.5,0.4,0.8,0.2c0.3-0.2,0.4-0.5,0.2-0.8c-0.2-0.3-0.3-0.5-0.5-0.7c-0.1-0.1-0.2-0.2-0.3-0.3
		c-0.1-0.1-0.2-0.2-0.4-0.2c-0.6-0.3-1.2-0.3-1.8-0.3c-0.7,0.1-1.3,0.3-1.9,0.6c-0.7,0.3-1.3,0.7-1.8,1.2c-1.1,0.9-1.9,2-2.5,3.3
		c-0.3,0.6-0.5,1.2-0.7,1.9c-0.2,0.7-0.3,1.5-0.4,2.2c-0.1,0.7-0.1,1.3-0.2,2c0,0.7,0,1.4,0.2,2.1c0.1,0.3,0.2,0.6,0.3,0.9
		c0.1,0.3,0.3,0.6,0.4,0.8c0.2,0.3,0.4,0.5,0.6,0.7c0.2,0.3,0.5,0.5,0.8,0.7c0.5,0.4,1.1,0.6,1.7,0.8c0.7,0.2,1.3,0.4,2,0.5
		c0.7,0.1,1.4,0.1,2.1,0.1c0.8,0,1.6,0,2.4-0.1c1.5-0.1,2.9-0.3,4.4-0.6c0.7-0.1,1.3-0.3,1.9-0.5c0.3-0.1,0.6-0.2,0.8-0.3
		c0.3-0.2,0.6-0.4,0.9-0.6c0.5-0.4,0.9-0.9,1.3-1.4c0.4-0.6,0.8-1.2,1.1-1.8c0.6-1.3,0.9-2.7,1-4.1c0.1-1.4-0.2-2.9-0.6-4.2
		c-0.2-0.6-0.5-1.2-0.8-1.8c-0.3-0.7-0.7-1.3-1.2-1.9c-0.4-0.5-0.8-1-1.2-1.5c-0.5-0.5-1-0.9-1.6-1.3c-0.5-0.4-1.1-0.6-1.7-0.9
		c-0.7-0.3-1.4-0.4-2.1-0.5c-0.2,0-0.3,0-0.5,0C57.6,128.1,57.2,128.1,56.9,128.2L56.9,128.2z M54.9,133.6
		C54.9,133.6,54.9,133.6,54.9,133.6C54.9,133.6,54.9,133.6,54.9,133.6L54.9,133.6z M66.7,138.4C66.7,138.4,66.7,138.4,66.7,138.4
		C66.7,138.4,66.7,138.4,66.7,138.4L66.7,138.4z M66.7,140.8C66.7,140.9,66.7,140.9,66.7,140.8C66.7,140.9,66.7,140.9,66.7,140.8
		L66.7,140.8z M63.4,146.9C63.4,146.9,63.4,146.9,63.4,146.9C63.4,146.9,63.4,146.9,63.4,146.9L63.4,146.9z M49.5,147.8
		C49.6,147.8,49.6,147.9,49.5,147.8C49.6,147.9,49.6,147.8,49.5,147.8L49.5,147.8z"/>
	<path class="st0" d="M46.8,141.7c0,0.4,0.3,0.7,0.7,0.7c0.4,0,0.7-0.3,0.7-0.7c0-0.4-0.3-0.7-0.7-0.7
		C47.1,141,46.8,141.3,46.8,141.7L46.8,141.7z"/>
	<path class="st0" d="M53.5,130.2c-0.5,0.4-1.1,0.8-1.6,1.2c-0.5,0.5-1.1,0.9-1.6,1.4c-0.5,0.4-0.9,0.9-1.3,1.4
		c-0.4,0.6-0.8,1.2-1.1,1.8c-0.3,0.6-0.6,1.2-0.8,1.8c-0.3,0.7-0.5,1.4-0.6,2.1c-0.2,0.7-0.2,1.4-0.3,2.1c-0.1,0.8,0,1.5,0,2.3
		c0.1,0.7,0.2,1.3,0.5,2c0.2,0.7,0.6,1.3,1,1.8c0.4,0.5,0.8,1,1.3,1.4c0.6,0.4,1.2,0.8,1.8,1.1c0.6,0.2,1.3,0.4,1.9,0.6
		c0.7,0.2,1.5,0.2,2.2,0.3c0.2,0,0.5,0,0.7,0.1c0.3,0,0.6,0,1,0.1c0.8,0.1,1.6,0.1,2.4,0.1c0.2,0,0.3-0.2,0.3-0.3
		c0-0.2-0.2-0.3-0.3-0.3c-0.8-0.1-1.6-0.1-2.4-0.2c-0.8-0.1-1.5-0.2-2.3-0.3c-1-0.1-2.1-0.4-3-0.8c-0.6-0.3-1.1-0.6-1.7-1
		c-0.2-0.2-0.4-0.3-0.5-0.5c-0.2-0.2-0.3-0.3-0.5-0.5c-0.3-0.5-0.6-1-0.9-1.5c-0.2-0.6-0.4-1.2-0.5-1.8c-0.1-1-0.1-2,0-3
		c0,0,0,0,0,0c0,0,0,0,0,0c0,0,0-0.1,0-0.1c0,0,0,0,0,0.1c0.1-0.7,0.2-1.3,0.4-1.9c0.2-0.6,0.4-1.3,0.7-1.9c0,0,0,0.1-0.1,0.1
		c0.4-1,0.9-1.9,1.6-2.8c0.5-0.6,1-1.1,1.6-1.6c0.3-0.3,0.6-0.5,0.9-0.8c0.3-0.3,0.6-0.5,0.9-0.8c0,0,0,0,0,0
		c0.3-0.2,0.6-0.4,0.9-0.6c0.1-0.1,0.2-0.2,0.3-0.3c0-0.1,0-0.3-0.1-0.4c-0.1-0.1-0.2-0.2-0.3-0.3c0,0-0.1,0-0.2,0
		C53.7,130.1,53.6,130.1,53.5,130.2L53.5,130.2z M54.2,150.4C54.3,150.4,54.3,150.4,54.2,150.4C54.3,150.4,54.3,150.4,54.2,150.4
		L54.2,150.4z M47.3,141.4C47.3,141.4,47.3,141.4,47.3,141.4C47.3,141.4,47.3,141.4,47.3,141.4C47.3,141.4,47.3,141.4,47.3,141.4
		L47.3,141.4z"/>
	<path class="st0" d="M66.4,133.9c-0.2,0-0.3,0.2-0.3,0.4c0,0.1,0,0.2,0,0.3c0,0.1,0.1,0.2,0.1,0.4c0,0.1,0.1,0.3,0.1,0.4
		c0,0.1,0.1,0.3,0.1,0.4c0,0.4,0,0.9-0.1,1.3c-0.1,0.8-0.4,1.6-0.6,2.5c-0.2,0.6-0.3,1.2-0.5,1.8c-0.3,1-0.6,2-0.9,3
		c-0.1,0.2,0.1,0.4,0.3,0.5c0.2,0.1,0.4-0.1,0.4-0.3c0.4-1.2,0.7-2.4,1.1-3.6c0.2-0.8,0.5-1.6,0.7-2.4c0.1-0.4,0.2-0.7,0.2-1.1
		c0,0,0,0,0,0c0.1,0.4,0.2,0.8,0.3,1.2c0.1,0.9,0,1.9-0.1,2.8c-0.2,1.5-0.6,3-1.2,4.5c-0.2,0.4-0.4,0.8-0.6,1.1
		c-0.2,0.4-0.5,0.7-0.7,1c-0.4,0.5-0.9,1-1.3,1.5c-0.3,0.3-0.5,0.6-0.8,0.9c-0.8,0.9-1.7,1.8-2.5,2.7c-0.2,0.2-0.2,0.6,0,0.9
		c0.2,0.2,0.6,0.2,0.9,0c0.9-0.9,1.7-1.9,2.6-2.8c0.3-0.4,0.6-0.7,1-1.1c0.2-0.2,0.3-0.4,0.5-0.6c0.4-0.5,0.8-1,1.2-1.6
		c0.3-0.5,0.6-1.1,0.9-1.6c0.2-0.6,0.4-1.2,0.6-1.8c0.2-0.6,0.3-1.2,0.4-1.9c0.1-0.7,0.2-1.4,0.3-2.1c0-0.6,0-1.3-0.1-1.9
		c0-0.4-0.1-0.7-0.2-1.1c-0.1-0.3-0.2-0.5-0.3-0.8c-0.2-0.5-0.4-0.9-0.6-1.3c0,0,0,0,0,0c0-0.1-0.1-0.2-0.1-0.3c0-0.2,0-0.4-0.1-0.5
		c0-0.2-0.1-0.3-0.1-0.5c0-0.1-0.1-0.1-0.1-0.2c0-0.1-0.1-0.1-0.2-0.2C66.7,133.9,66.6,133.8,66.4,133.9
		C66.5,133.8,66.5,133.8,66.4,133.9L66.4,133.9z M66.5,137C66.5,137,66.5,137,66.5,137C66.5,137,66.5,137,66.5,137L66.5,137z
		 M67.4,138.5C67.4,138.5,67.4,138.6,67.4,138.5C67.4,138.6,67.4,138.5,67.4,138.5L67.4,138.5z M64.9,148
		C64.9,148.1,64.9,148.1,64.9,148C64.9,148.1,64.9,148.1,64.9,148L64.9,148z M64.9,148.1C64.9,148.1,64.9,148.1,64.9,148.1
		C64.9,148.1,64.9,148.1,64.9,148.1L64.9,148.1z"/>
	<path class="st0" d="M143.6,54.5c-0.2,0-0.3,0.2-0.4,0.3c-0.1,0.2-0.1,0.3-0.1,0.5c0.1,0.4,0.1,0.8,0.2,1.2c0,0,0-0.1,0-0.1
		c0,0,0,0.1,0,0.1c0,0,0,0.1,0,0.1c0,0,0,0,0,0c0.1,0.8,0.2,1.7,0.4,2.5c0-0.1,0-0.1,0-0.2c0.1,1.1,0.1,2.2,0.2,3.3
		c0,0.4,0,0.8,0,1.2c0,0.7,0,1.4,0,2.2c0,1,0,2,0.1,3.1c0,0.4,0,0.8,0.1,1.2c0,0.5,0.1,1,0.1,1.5c0,0.4,0.1,0.7,0.1,1.1
		c0,0.3,0.1,0.5,0.1,0.8c0,0.2,0,0.3,0.1,0.5c0,0.2,0.2,0.4,0.3,0.7c0.1,0.1,0.2,0.3,0.4,0.3c0,0.1,0,0.1,0,0.2
		c0.1,0.6,0.2,1.3,0.3,1.9c0.1,0.5,0.2,0.9,0.3,1.3c0.1,0.2,0.1,0.5,0.1,0.7c0,0.2,0.1,0.4,0.2,0.6c0,0.1,0.1,0.3,0.2,0.4
		c0.1,0.1,0.2,0.3,0.3,0.4c0.2,0.3,0.5,0.5,0.9,0.5c0.4,0,0.9-0.3,1-0.7c0.1-0.3,0.1-0.6,0.2-1c0.2,0.1,0.5,0.1,0.7,0.1
		c0.3-0.1,0.5-0.3,0.7-0.5c0.2-0.3,0.2-0.6,0.1-0.9c-0.1-0.5-0.2-1.1-0.3-1.6c-0.1-0.4-0.1-0.8-0.2-1.3c-0.1-0.5-0.1-1-0.1-1.4
		c-0.1-0.9-0.1-1.8-0.2-2.7c-0.1-1.5-0.2-3-0.3-4.4c-0.1-1.4-0.3-2.8-0.5-4.2c-0.1-0.6-0.3-1.3-0.5-1.9c-0.2-0.7-0.6-1.3-0.8-2
		c-0.1-0.2-0.2-0.3-0.4-0.4c-0.2-0.1-0.3-0.1-0.5-0.1c-0.5,0-0.8,0.3-1,0.8c0,0.1,0,0.1-0.1,0.2c-0.1-0.5-0.1-0.9-0.2-1.4
		c0-0.2-0.1-0.3-0.2-0.4c-0.1-0.1-0.1-0.1-0.2-0.1c-0.1-0.5-0.2-1.1-0.2-1.6c0-0.2-0.2-0.3-0.3-0.4c-0.1-0.1-0.2-0.1-0.4-0.1
		C143.7,54.5,143.6,54.5,143.6,54.5L143.6,54.5z M143.3,56.6C143.3,56.6,143.3,56.6,143.3,56.6C143.3,56.6,143.3,56.6,143.3,56.6
		C143.3,56.6,143.3,56.6,143.3,56.6L143.3,56.6z"/>
	<path class="st0" d="M158.5,60.2c-0.5,0.3-1,0.7-1.4,1c0,0,0,0,0,0c0,0,0,0,0,0c0,0,0,0,0,0c0.1-0.6-0.8-1.1-1.3-0.7
		c-0.7,0.4-1.3,0.9-2,1.4c-0.5,0.4-1.1,0.7-1.6,1.1c-0.2,0.1-0.4,0.3-0.6,0.4c-0.1-0.1-0.1-0.3-0.2-0.4c-0.2-0.2-0.5-0.3-0.8-0.3
		c-0.3,0-0.6,0.1-0.8,0.3c-3.7,3-7.3,6.2-11,9.3c-2.1,1.8-4.1,3.6-6.2,5.5c-0.4,0.3-0.3,0.9,0,1.3c0.2,0.2,0.4,0.3,0.6,0.3
		c0.3,0,0.4-0.1,0.6-0.3c0.5-0.4,1.1-0.9,1.6-1.3c-0.1,0-0.1,0.1-0.2,0.1c0.7-0.5,1.4-1.1,2.1-1.6c-0.2,0.2-0.3,0.4-0.5,0.5
		c-0.2,0.2-0.3,0.5-0.3,0.8c0,0.3,0.1,0.6,0.3,0.8c0.4,0.4,1.2,0.5,1.6,0c0.7-0.8,1.5-1.6,2.2-2.4c0.1-0.1,0.2-0.1,0.3-0.2
		c0,0,0,0,0,0c0.9-0.7,1.7-1.3,2.6-2c1-0.8,2-1.6,3-2.4c0.7-0.6,1.4-1.2,2.1-1.8c0.5-0.4,1-0.8,1.5-1.3c1.1-0.7,2.1-1.5,3.2-2.2
		c2-1.4,4.1-2.8,6.1-4.2c0.2-0.2,0.4-0.3,0.5-0.6c0.1-0.3,0-0.5-0.1-0.8c-0.2-0.3-0.5-0.5-0.9-0.5C158.8,60,158.6,60.1,158.5,60.2
		L158.5,60.2z M141.2,75.6C141.1,75.6,141.1,75.6,141.2,75.6C141.1,75.6,141.1,75.6,141.2,75.6L141.2,75.6z"/>
	<path class="st0" d="M145.1,62.1c-0.1,0.1-0.2,0.2-0.2,0.4c0,0.1,0,0.3,0,0.4c0.2,1.1,0.4,2.1,0.6,3.2c0.2,1.1,0.4,2.2,0.6,3.4
		c0.1,0.4,0.5,0.6,0.9,0.5c0.4-0.1,0.6-0.5,0.5-0.9c-0.4-1.7-0.6-3.4-0.9-5.1c-0.1-0.4-0.1-0.9-0.2-1.3c0-0.2-0.1-0.4-0.2-0.6
		c-0.2-0.2-0.4-0.2-0.6-0.2C145.4,61.8,145.2,61.9,145.1,62.1L145.1,62.1z M146.6,63.7C146.6,63.8,146.6,63.8,146.6,63.7
		C146.6,63.8,146.6,63.8,146.6,63.7L146.6,63.7z"/>
	<path class="st0" d="M50,116.9c-0.3,1.2-0.6,2.4-0.7,3.6c-0.2,1.9,0,3.8,0.1,5.7c0,0.5,0.2,1,0.6,1.3c0.4,0.4,0.8,0.6,1.3,0.6
		c1,0,2-0.9,1.9-1.9c-0.1-1.7-0.3-3.3-0.3-5c0-1.1,0.1-2.2,0.3-3.3c0,0,0-0.1,0-0.1c0,0,0-0.1,0-0.1c0,0,0,0,0,0c0,0,0,0,0,0
		c0-0.4,0-0.8-0.2-1.1c-0.2-0.4-0.6-0.7-1-0.8c-0.1,0-0.3-0.1-0.4-0.1C50.9,115.7,50.2,116.2,50,116.9L50,116.9z"/>
	<path class="st0" d="M55.2,102.6c-0.4,0.2-0.6,0.5-0.7,0.9c-1.3,3.2-2.3,6.6-3.2,9.9c-0.3,0.9,0.3,1.9,1.2,2.2
		c0.9,0.3,1.9-0.3,2.2-1.3c0.9-3.4,1.9-6.7,2.8-10.1c0.2-0.8-0.3-1.7-1.1-1.9c-0.1,0-0.3-0.1-0.4-0.1
		C55.7,102.4,55.4,102.4,55.2,102.6L55.2,102.6z"/>
	<path class="st0" d="M62.6,91.5c-0.9,0.6-1.8,1.3-2.6,1.9c-0.4,0.4-0.8,0.7-1.2,1.1c-0.4,0.5-0.7,1-1,1.5c-0.6,1-1.1,2-1.3,3.1
		c-0.1,0.4-0.1,0.8,0.1,1.1c0.2,0.3,0.5,0.6,0.9,0.7c0.4,0.1,0.8,0,1.1-0.1c0.3-0.2,0.6-0.5,0.7-0.9c0.1-0.4,0.2-0.7,0.3-1
		c0.3-0.7,0.7-1.3,1.1-1.9c1-1.2,2.3-2.2,3.6-3.2c0.2-0.2,0.3-0.4,0.4-0.7c0.1-0.4,0.1-0.8-0.2-1.2c-0.3-0.5-0.8-0.8-1.3-0.8
		C63,91.3,62.8,91.3,62.6,91.5L62.6,91.5z M60.7,97.1C60.7,97.1,60.7,97.2,60.7,97.1C60.7,97.2,60.7,97.1,60.7,97.1L60.7,97.1z"/>
	<path class="st0" d="M76.3,85.7c-1.2,0.1-2.3,0.3-3.5,0.5c-1,0.1-1.9,0.4-2.9,0.7c-1.1,0.4-2.3,1-3.1,1.8c-0.5,0.5-0.5,1.5,0,2
		c0.5,0.5,1.5,0.5,2,0c0.1-0.1,0.1-0.1,0.2-0.2c0.5-0.4,1.1-0.7,1.7-1c1.9-0.7,3.9-1.1,5.9-1.5c0.5-0.1,0.9-0.6,0.9-1.1
		c0-0.3-0.1-0.6-0.3-0.8C76.9,85.8,76.6,85.7,76.3,85.7C76.3,85.7,76.3,85.7,76.3,85.7L76.3,85.7z"/>
	<path class="st0" d="M80.5,85.5c-0.5,0-1,0.2-1.4,0.6c-0.4,0.4-0.6,0.9-0.6,1.4s0.2,1,0.6,1.4c0.3,0.3,0.9,0.6,1.4,0.6
		c1.8-0.2,3.5-0.4,5.3-0.3c0.9,0,1.8,0.1,2.7,0.1c0.8,0,1.5-0.6,1.7-1.3c0.1-0.5,0.1-0.9-0.2-1.4c-0.2-0.4-0.6-0.7-1-0.8
		c-1-0.1-2-0.3-3-0.4c-0.7-0.1-1.4-0.1-2.1-0.1c-0.1,0-0.1,0-0.2,0C82.6,85.3,81.6,85.4,80.5,85.5L80.5,85.5z"/>
	<path class="st0" d="M98,84.7c-2.3,0.4-4.6,1.1-6.8,1.7c-0.9,0.2-1.4,1.2-1.1,2c0.2,0.9,1.2,1.4,2,1.1c2.2-0.6,4.5-1.3,6.7-2
		c0.8-0.2,1.2-1,1-1.8c-0.1-0.4-0.3-0.7-0.7-0.9c-0.2-0.1-0.5-0.2-0.7-0.2C98.3,84.6,98.1,84.6,98,84.7L98,84.7z"/>
	<path class="st0" d="M105.8,77.9c-1.1,1.3-2.1,2.6-3.1,4c-0.2,0.3-0.2,0.8-0.1,1.1c0.1,0.4,0.3,0.7,0.6,0.8
		c0.3,0.2,0.7,0.2,1.1,0.1c0.4-0.1,0.6-0.3,0.8-0.6c0.9-1.3,1.8-2.5,2.7-3.8c0.3-0.5,0.2-1.2-0.2-1.6c-0.2-0.2-0.6-0.4-0.9-0.4
		C106.3,77.5,106,77.6,105.8,77.9L105.8,77.9z"/>
	<path class="st0" d="M113.2,68.2c-0.7,0.4-1.5,0.8-2.2,1.3c-0.7,0.4-1.4,1-2,1.5c-0.7,0.6-1.3,1.4-1.8,2.1
		c-0.4,0.5-0.4,1.3-0.2,1.8c0.2,0.6,0.6,1.1,1.1,1.4c0.5,0.3,1.2,0.4,1.8,0.2c0.6-0.2,1-0.6,1.4-1.1c0,0,0-0.1,0.1-0.1
		c0.4-0.5,0.9-1,1.4-1.4c0.9-0.6,1.9-1.2,2.8-1.8c1.1-0.6,1.5-2.1,0.8-3.2c-0.4-0.7-1.2-1.1-2-1.1C114,67.9,113.6,68,113.2,68.2
		L113.2,68.2z"/>
	<path class="st0" d="M121.2,66.1c-1.3,0.3-2.7,0.6-3.9,1.3c-0.6,0.4-0.8,1.1-0.5,1.8c0.3,0.6,1.2,0.8,1.8,0.5
		c0.3-0.2,0.6-0.3,0.9-0.4c0.8-0.3,1.6-0.5,2.4-0.7c0.6-0.2,1-0.8,0.8-1.5c-0.1-0.3-0.3-0.6-0.6-0.7c-0.2-0.1-0.4-0.2-0.6-0.2
		C121.5,66.1,121.3,66.1,121.2,66.1L121.2,66.1z"/>
	<path class="st0" d="M140.2,64.8c-3.7,0-7.4,0.2-11.2,0.3c-0.7,0-1.4,0.6-1.4,1.4c0,0.7,0.6,1.4,1.4,1.4c3.7-0.1,7.4-0.3,11.2-0.4
		c0.7,0,1.3-0.6,1.3-1.3C141.5,65.5,140.9,64.8,140.2,64.8C140.2,64.8,140.2,64.8,140.2,64.8L140.2,64.8z"/>
	<path class="st0" d="M93.8,129c-0.1,0-0.2,0.1-0.3,0.2c-1.2,2.7-2.5,5.3-3.7,8c-0.9,1.9-1.7,3.7-2.5,5.6c-0.7,1.4-1.3,2.9-1.9,4.3
		c0,0.1-0.1,0.2,0,0.3c0,0.1,0.1,0.2,0.2,0.2c0.2,0.1,0.4,0,0.5-0.1c0.3-0.6,0.6-1.2,0.9-1.8c0.3-0.6,0.5-1.1,0.8-1.7
		c0.4-0.8,0.8-1.7,1.2-2.5c0.9-1.9,1.8-3.9,2.7-5.8c0.9-2,1.9-4,2.8-6c0.1-0.1,0.1-0.2,0-0.4c0-0.1-0.1-0.2-0.2-0.3
		c-0.1,0-0.2-0.1-0.2-0.1C93.9,129,93.9,129,93.8,129L93.8,129z"/>
	<path class="st0" d="M98.6,129.9c-0.7,1.3-1.4,2.5-2.1,3.8c-0.7,1.3-1.4,2.6-2.1,3.9c-0.3,0.5-0.6,1.1-0.9,1.6
		c-0.1,0.2-0.2,0.4-0.3,0.6c-0.5,1-1,2-1.5,3.1c-0.4,0.9-0.9,1.8-1.3,2.6c0,0.1-0.1,0.2-0.1,0.3c-0.1,0.3-0.2,0.6-0.4,0.8
		c-0.3,0.6-0.6,1.3-0.8,1.9c-0.4,0.9-0.7,1.8-1.1,2.6c-0.4,1-0.7,2-1.1,3c-0.1,0.3,0.1,0.6,0.4,0.7c0.1,0,0.3,0,0.4-0.1
		c0.1-0.1,0.2-0.2,0.3-0.3c0.7-1.7,1.4-3.3,2-5c0.5-1,0.9-2.1,1.4-3.1c0.1-0.2,0.2-0.4,0.3-0.6c0.3-0.6,0.6-1.2,0.9-1.7
		c0.6-1.1,1.2-2.3,1.7-3.4c0.3-0.6,0.7-1.2,1-1.9c0.7-1.4,1.5-2.7,2.2-4.1c0.7-1.3,1.5-2.7,2.2-4c0.2-0.3,0.1-0.7-0.2-0.9
		c-0.1-0.1-0.2-0.1-0.3-0.1C98.9,129.5,98.7,129.6,98.6,129.9L98.6,129.9z"/>
	<path class="st0" d="M98.8,136.2c-0.7,1.3-1.3,2.7-2,4c-0.7,1.3-1.3,2.6-2,3.9c-0.9,1.7-1.7,3.3-2.6,4.9c-1,1.8-2,3.7-3,5.6
		c-0.2,0.5-0.5,1-0.7,1.4c-0.2,0.4-0.4,0.9-0.6,1.4c-0.4,1-0.9,1.9-1.3,2.9c-0.1,0.2,0.1,0.5,0.3,0.7c0.3,0.2,0.7,0.1,0.8-0.2
		c0.5-1,1-2,1.5-3c0.2-0.4,0.4-0.8,0.6-1.2c0.3-0.6,0.7-1.2,1-1.8c1.1-2,2.2-3.9,3.2-5.9c0.8-1.5,1.6-3,2.4-4.6
		c0.6-1.1,1.2-2.3,1.8-3.4c0.7-1.3,1.3-2.6,2-3.9c0.2-0.4,0.1-0.8-0.3-1c-0.1-0.1-0.3-0.1-0.4-0.1C99.2,135.8,98.9,135.9,98.8,136.2
		L98.8,136.2z"/>
	<path class="st0" d="M98.3,141.8c0,0,0,0.1,0,0.1c-0.2,1.1-0.7,2.1-1.1,3.2c0,0,0-0.1,0-0.1c-0.6,1.4-1.3,2.7-2,4.1
		c-0.3,0.5-0.5,1.1-0.8,1.6c-0.6,1.3-1.2,2.5-1.9,3.8c-0.3,0.7-0.7,1.4-1,2.1c-0.3,0.7-0.6,1.3-1,2c-0.1,0.3-0.3,0.6-0.5,1
		c-0.3,0.7-0.6,1.4-0.9,2.1c-0.2,0.5-0.4,1-0.6,1.6c-0.5,1.2-1,2.5-1.4,3.7c-0.1,0.3,0.1,0.7,0.4,0.8c0.2,0,0.3,0,0.5-0.1
		c0.1-0.1,0.2-0.2,0.3-0.4c0.6-1.6,1.2-3.2,1.9-4.7c0.2-0.5,0.4-0.9,0.6-1.4c0.2-0.4,0.3-0.7,0.5-1.1c0.5-1.1,1.1-2.2,1.6-3.4
		c0.4-0.8,0.8-1.6,1.2-2.5c0.5-1.1,1.1-2.2,1.6-3.3c0.6-1.3,1.3-2.6,2-4c0.4-0.8,0.7-1.7,1.1-2.5c0.2-0.5,0.3-0.9,0.5-1.4
		c0.1-0.4,0.2-0.9,0.3-1.3c0-0.4-0.3-0.7-0.7-0.7C98.6,141.1,98.3,141.4,98.3,141.8L98.3,141.8z"/>
	<path class="st0" d="M88.9,49.4c-1.5,2.9-3,5.8-4.6,8.8c-0.6,1.2-1.2,2.3-1.8,3.5c-0.3,0.7-0.7,1.3-1,2c-0.4,0.8-0.8,1.5-1.1,2.3
		c-0.1,0.1-0.1,0.2-0.2,0.4c-0.2,0.4-0.4,0.9-0.6,1.3c-0.1,0.3-0.3,0.6-0.4,0.9c-0.1,0.3-0.3,0.7-0.4,1c-0.1,0.2-0.2,0.5-0.3,0.7
		c-0.1,0.2-0.2,0.4-0.3,0.6c-0.1,0.3-0.2,0.5-0.3,0.8c0,0.1,0,0.3,0.2,0.3c0.1,0,0.1,0,0.2,0c0.1,0,0.1-0.1,0.1-0.1
		c0.1-0.3,0.2-0.6,0.3-0.8c0.1-0.2,0.2-0.5,0.3-0.7c0,0,0,0,0,0.1c0.2-0.5,0.4-1,0.7-1.5c0.2-0.5,0.4-0.9,0.7-1.4
		c0.2-0.4,0.3-0.7,0.5-1.1c0.3-0.5,0.5-1.1,0.8-1.6c0.3-0.6,0.6-1.3,1-1.9c0.1-0.2,0.2-0.4,0.3-0.6c0.5-1,1-2,1.6-3
		c1.7-3.2,3.3-6.3,5-9.5c0.1-0.1,0-0.3-0.1-0.3c0,0-0.1,0-0.1,0C89,49.3,89,49.3,88.9,49.4L88.9,49.4z"/>
	<path class="st0" d="M94.3,50.6c-2.5,4.1-5,8.3-7.5,12.4c-0.6,1-1.1,1.9-1.7,2.9c-0.2,0.3-0.4,0.7-0.6,1c-0.4,0.6-0.7,1.3-1.1,1.9
		c-0.5,0.9-1,1.8-1.4,2.7c-0.2,0.4-0.4,0.8-0.6,1.2c-0.2,0.5-0.4,0.9-0.7,1.4c-0.1,0.2-0.2,0.4-0.3,0.6c0,0.1-0.1,0.2,0,0.4
		c0,0.1,0.1,0.2,0.2,0.3c0.2,0.1,0.5,0.1,0.6-0.2c0.5-1,1-2,1.5-2.9c0.5-0.9,1-1.7,1.5-2.6c0.6-1.1,1.2-2.1,1.9-3.2
		c0.5-0.8,1-1.6,1.4-2.4c2.4-4,4.9-8,7.3-12c0.2-0.3,0.4-0.6,0.6-0.9c0.2-0.3,0.1-0.7-0.2-0.9c-0.1-0.1-0.2-0.1-0.3-0.1
		C94.6,50.3,94.4,50.4,94.3,50.6L94.3,50.6z"/>
	<path class="st0" d="M95.1,56.3c-0.4,0.8-0.7,1.6-1.1,2.5c-0.2,0.5-0.5,0.9-0.7,1.4c-0.7,1.3-1.3,2.6-2,4c-0.2,0.3-0.3,0.6-0.5,0.9
		c-0.1,0.2-0.3,0.5-0.4,0.7c-0.7,1.3-1.4,2.5-2.1,3.8c-1,1.8-2,3.6-3.1,5.5c-0.5,0.9-0.9,1.7-1.4,2.6c-0.2,0.3-0.4,0.7-0.5,1
		c-0.2,0.3-0.3,0.6-0.5,0.9c-0.1,0.2-0.2,0.3-0.2,0.5c-0.4,0.8-0.7,1.6-1,2.4c-0.1,0.2,0,0.4,0.2,0.5c0.1,0.1,0.2,0.1,0.3,0
		c0.1,0,0.2-0.1,0.3-0.2c0.2-0.6,0.5-1.1,0.8-1.7c0.1-0.2,0.2-0.5,0.3-0.7c0.1-0.2,0.2-0.4,0.3-0.7c0.2-0.4,0.4-0.8,0.6-1.2
		c0.3-0.6,0.7-1.2,1-1.8c0.9-1.7,1.9-3.4,2.9-5.1c1.1-2,2.2-4,3.4-6c0.1-0.2,0.2-0.4,0.3-0.5c0.3-0.6,0.6-1.1,0.8-1.7
		c0.6-1.3,1.3-2.5,1.9-3.8c0.5-0.9,0.9-1.8,1.3-2.8c0.1-0.1,0.1-0.2,0-0.4c0-0.1-0.1-0.2-0.2-0.3c-0.1,0-0.2-0.1-0.2-0.1
		C95.4,56,95.2,56.1,95.1,56.3L95.1,56.3z"/>
	<path class="st0" d="M99.1,64c-2.6,4.3-5.3,8.5-8,12.7c-0.5,0.7-0.9,1.5-1.4,2.2c-0.7,1.1-1.3,2.2-2,3.3c-0.2,0.3-0.3,0.6-0.5,0.8
		c-0.3,0.6-0.6,1.1-1,1.7c-0.3,0.5-0.5,0.9-0.7,1.4c-0.2,0.4-0.4,0.8-0.7,1.3c-0.2,0.4-0.4,0.7-0.6,1.1c-0.1,0.2-0.1,0.5,0.2,0.6
		c0.2,0.1,0.5,0.1,0.6-0.2c0.5-1,1.1-2,1.7-3c0.5-1,1.1-1.9,1.6-2.9c0.2-0.3,0.4-0.6,0.5-0.8c0.4-0.6,0.8-1.3,1.2-1.9
		c0.4-0.6,0.8-1.3,1.2-1.9c2.4-3.8,4.8-7.6,7.2-11.4c0.5-0.8,1-1.6,1.5-2.5c0.1-0.2,0.1-0.6-0.2-0.7c-0.1,0-0.2-0.1-0.3-0.1
		C99.4,63.7,99.2,63.8,99.1,64L99.1,64z"/>
	<path class="st0" d="M100.5,72.4c-1.4,2.5-2.9,4.9-4.3,7.4c-0.1,0.2-0.2,0.3-0.3,0.5c-0.3,0.5-0.6,1-1,1.5
		c-0.8,1.2-1.5,2.4-2.3,3.7c-1.1,1.8-2.2,3.5-3.3,5.3c-0.2,0.3-0.4,0.6-0.5,0.9c-0.1,0.1-0.1,0.2-0.2,0.3c-0.2,0.3-0.3,0.6-0.5,0.9
		c-0.3,0.6-0.7,1.2-1,1.7c-0.2,0.4-0.4,0.7-0.6,1.1c-0.7,1.2-1.4,2.4-2,3.7c-0.1,0.1,0,0.3,0.1,0.3c0.1,0.1,0.3,0,0.3-0.1
		c0.5-1,1-1.9,1.6-2.9c0.3-0.6,0.6-1.1,0.9-1.7c0.2-0.4,0.4-0.7,0.6-1.1c0.4-0.6,0.7-1.2,1.1-1.8c0.1-0.2,0.2-0.4,0.3-0.6
		c0.7-1.2,1.4-2.3,2.2-3.5c1.1-1.7,2.1-3.4,3.2-5.1c0.6-0.9,1.1-1.9,1.7-2.8c0.1-0.2,0.3-0.5,0.4-0.7c0.4-0.6,0.7-1.2,1.1-1.8
		c0.4-0.7,0.8-1.4,1.2-2.1c0.6-1,1.1-1.9,1.7-2.9c0.1-0.1,0-0.3-0.1-0.3c0,0-0.1,0-0.1,0C100.6,72.3,100.5,72.4,100.5,72.4
		L100.5,72.4z"/>
	<path class="st0" d="M99,83.5c-0.8,1.2-1.5,2.3-2.3,3.5c-0.8,1.2-1.6,2.5-2.5,3.7c-1,1.5-2.1,3.1-3.1,4.6c-0.8,1.1-1.5,2.3-2.3,3.4
		c-0.5,0.7-0.9,1.4-1.4,2.1c-0.3,0.5-0.7,1-1,1.5c-0.2,0.3-0.4,0.7-0.6,1.1c-0.5,0.9-1,1.8-1.5,2.8c-0.3,0.5-0.5,1-0.7,1.6
		c-0.1,0.1-0.1,0.2-0.1,0.4c0,0.1,0.1,0.2,0.2,0.3c0.2,0.1,0.6,0.1,0.7-0.2c0.3-0.6,0.5-1.1,0.8-1.6c0.2-0.5,0.5-0.9,0.7-1.4
		c0.3-0.6,0.6-1.1,1-1.7c0.2-0.3,0.3-0.6,0.5-0.9c0.7-1,1.3-2.1,2-3.1c0.1-0.2,0.3-0.4,0.4-0.6c0.4-0.5,0.7-1.1,1.1-1.6
		c1.1-1.6,2.2-3.2,3.2-4.8c1.4-2.1,2.7-4.1,4.1-6.2c0.5-0.8,1-1.6,1.6-2.4c0.2-0.2,0.1-0.6-0.2-0.7c-0.1,0-0.2-0.1-0.3-0.1
		C99.3,83.2,99.1,83.3,99,83.5L99,83.5z"/>
	<path class="st0" d="M97.5,91c-0.7,1.4-1.5,2.9-2.2,4.3c-0.3,0.6-0.7,1.3-1,1.9c-0.1,0.2-0.2,0.4-0.3,0.6c-0.6,1.1-1.3,2.2-1.9,3.2
		c-0.3,0.6-0.7,1.1-1,1.7c-0.1,0.2-0.2,0.4-0.3,0.6c-2.3,3.6-4.6,7.2-6.8,10.9c-0.2,0.3-0.3,0.5-0.5,0.8c-0.1,0.2,0,0.5,0.1,0.6
		c0.2,0.1,0.4,0,0.6-0.1c1.2-1.9,2.4-3.8,3.6-5.6c1.2-1.9,2.4-3.8,3.6-5.7c0.4-0.6,0.7-1.2,1.1-1.8c0.7-1.2,1.4-2.4,2.2-3.7
		c0.1-0.2,0.2-0.4,0.3-0.6c0.3-0.5,0.5-1,0.8-1.5c0.6-1.2,1.2-2.3,1.8-3.5c0.3-0.6,0.6-1.1,0.8-1.7c0.1-0.2,0.1-0.5-0.2-0.7
		c-0.1,0-0.2-0.1-0.3-0.1C97.7,90.7,97.6,90.8,97.5,91L97.5,91z"/>
	<path class="st0" d="M100.1,98.3c-0.9,1.3-1.7,2.7-2.6,4c-0.7,1.1-1.5,2.3-2.2,3.4c-1.1,1.6-2.1,3.3-3.2,4.9
		c-2.3,3.7-4.7,7.4-6.9,11.2c-0.3,0.5-0.6,1-0.9,1.5c-0.1,0.2-0.1,0.5,0.2,0.7c0.2,0.1,0.5,0.1,0.7-0.2c1.2-2,2.4-4,3.6-6
		c1.2-1.9,2.4-3.8,3.5-5.7c0.9-1.5,1.9-3,2.8-4.5c1.3-2,2.6-4,3.9-6.1c0.6-0.9,1.2-1.9,1.8-2.8c0.1-0.2,0-0.5-0.2-0.6
		c-0.1,0-0.1-0.1-0.2-0.1C100.3,98.1,100.2,98.2,100.1,98.3L100.1,98.3z"/>
	<path class="st0" d="M98.1,108.5c-1.5,2.7-3,5.5-4.4,8.2c-0.3,0.6-0.6,1.2-0.9,1.8c-0.6,1.2-1.3,2.5-1.9,3.7c-0.3,0.7-0.7,1.3-1,2
		c-0.6,1.2-1.2,2.4-1.8,3.6c-0.9,1.8-1.7,3.6-2.6,5.4c-0.1,0.1-0.1,0.3-0.2,0.4c0,0.1-0.1,0.2,0,0.2c0,0.1,0.1,0.2,0.1,0.2
		c0.1,0,0.2,0.1,0.3,0c0.1,0,0.2-0.1,0.2-0.2c0.4-1,0.9-1.9,1.3-2.9c0.4-0.9,0.9-1.8,1.3-2.8c0.6-1.2,1.1-2.3,1.7-3.5
		c0.1-0.3,0.3-0.6,0.4-0.8c0.2-0.4,0.4-0.8,0.6-1.1c0.7-1.3,1.3-2.6,1.9-3.9c0.1-0.2,0.2-0.4,0.3-0.6c0.2-0.3,0.4-0.7,0.6-1
		c1.4-2.6,2.8-5.1,4.1-7.7c0.1-0.3,0.3-0.6,0.5-0.8c0.1-0.1,0-0.3-0.1-0.4c0,0-0.1,0-0.1,0C98.2,108.4,98.1,108.4,98.1,108.5
		L98.1,108.5z"/>
	<path class="st0" d="M134.4,121.3c-0.1,0-0.2,0.1-0.3,0.2c-0.5,0.7-1.1,1.4-1.6,2.2c-0.3,0.5-0.7,0.9-1,1.4
		c-0.8,1.1-1.6,2.2-2.4,3.3c-0.5,0.7-1,1.4-1.4,2.1c-0.4,0.6-0.8,1.2-1.2,1.7c-0.2,0.2-0.3,0.5-0.5,0.7c-0.6,1-1.2,2-1.9,3
		c-0.6,1-1.2,2-1.8,3c-0.1,0.2,0,0.5,0.2,0.6c0.2,0.1,0.5,0,0.6-0.2c1.2-1.9,2.4-3.9,3.6-5.8c0.5-0.8,1.1-1.6,1.6-2.4
		c0.5-0.7,1-1.5,1.5-2.2c0.8-1.1,1.6-2.2,2.4-3.3c0.3-0.5,0.7-0.9,1-1.4c0.5-0.7,1.1-1.5,1.6-2.2c0.1-0.1,0.1-0.3,0-0.4
		c0-0.1-0.1-0.2-0.2-0.3c-0.1,0-0.2-0.1-0.3-0.1C134.4,121.3,134.4,121.3,134.4,121.3L134.4,121.3z"/>
	<path class="st0" d="M136.7,123.7c-0.6,0.9-1.1,1.9-1.7,2.8c-0.2,0.3-0.4,0.6-0.6,1c-0.8,1.2-1.6,2.5-2.4,3.7
		c-0.6,0.9-1.1,1.7-1.7,2.6c-0.1,0.2-0.2,0.3-0.3,0.5c-0.4,0.5-0.7,1.1-1.1,1.6c-1.9,2.8-3.8,5.7-5.7,8.5c-0.1,0.2,0,0.4,0.1,0.5
		c0.1,0,0.2,0.1,0.3,0c0.1,0,0.2-0.1,0.2-0.2c1.2-1.7,2.3-3.4,3.5-5.1c0.7-1,1.4-2.1,2.1-3.1c0.4-0.6,0.8-1.1,1.2-1.7
		c0.1-0.2,0.3-0.4,0.5-0.7c1-1.5,1.9-3,2.9-4.5c0.5-0.8,1-1.6,1.6-2.4c0.7-1.1,1.3-2.1,2-3.2c0.1-0.2,0-0.4-0.1-0.5
		c-0.1,0-0.1,0-0.2,0C136.9,123.5,136.8,123.6,136.7,123.7L136.7,123.7z"/>
	<path class="st0" d="M141.6,126.8c-0.4,0.6-0.7,1.2-1.1,1.8c-0.4,0.6-0.8,1.2-1.2,1.9c-0.2,0.3-0.3,0.5-0.5,0.8
		c-0.3,0.4-0.5,0.8-0.8,1.1c-1.2,1.8-2.5,3.5-3.7,5.3c-0.9,1.3-1.8,2.5-2.6,3.8c-0.4,0.6-0.8,1.3-1.2,1.9c-0.4,0.8-0.9,1.5-1.3,2.3
		c-0.1,0.3-0.1,0.6,0.2,0.8c0.3,0.2,0.6,0.1,0.8-0.2c0.3-0.5,0.6-1,0.9-1.5c0.3-0.4,0.5-0.9,0.8-1.3c0.5-0.8,1.1-1.6,1.6-2.4
		c1.2-1.7,2.4-3.4,3.6-5.1c1-1.4,1.9-2.7,2.9-4.1c0.1-0.2,0.2-0.4,0.4-0.5c0.3-0.4,0.6-0.9,0.9-1.3c0.2-0.4,0.5-0.7,0.7-1.1
		c0.3-0.5,0.6-0.9,0.9-1.4c0.2-0.3,0.1-0.7-0.2-0.9c-0.1-0.1-0.2-0.1-0.3-0.1C142,126.4,141.7,126.6,141.6,126.8L141.6,126.8z"/>
	<path class="st0" d="M141.4,132.6c-0.8,1.4-1.7,2.8-2.5,4.2c-0.5,0.8-1,1.7-1.5,2.5c-0.5,0.8-1,1.5-1.5,2.3c-0.7,1.1-1.4,2.1-2,3.2
		c-0.7,1.1-1.4,2.2-2.2,3.3c-0.9,1.3-1.7,2.6-2.6,3.9c-0.1,0.2,0,0.5,0.2,0.6c0.2,0.1,0.5,0,0.6-0.2c1.3-1.9,2.5-3.8,3.7-5.7
		c1.2-1.8,2.4-3.6,3.5-5.5c0.3-0.5,0.7-1.1,1-1.6c0.3-0.6,0.7-1.1,1-1.7c1-1.7,2-3.3,3-5c0.1-0.2,0-0.5-0.2-0.6
		c-0.1,0-0.1-0.1-0.2-0.1C141.7,132.4,141.5,132.4,141.4,132.6L141.4,132.6z"/>
	<path class="st0" d="M42.5,146.5c-0.1,0-0.1,0.1-0.1,0.1c-0.9,2.1-1.7,4.2-2.6,6.3c-0.3,0.8-0.7,1.7-1,2.5
		c-0.1,0.1-0.1,0.2-0.1,0.4c-0.1,0.3-0.2,0.6-0.3,0.8c-0.2,0.5-0.4,1-0.5,1.5c0,0.1,0,0.3,0.2,0.3c0.1,0,0.3,0,0.3-0.2
		c0.2-0.5,0.3-1,0.5-1.5c0.1-0.2,0.2-0.5,0.3-0.7c0.1-0.2,0.1-0.3,0.2-0.5c0.3-0.8,0.7-1.7,1-2.5c0.9-2.1,1.7-4.2,2.6-6.3
		c0-0.1,0-0.1,0-0.2c0-0.1-0.1-0.1-0.1-0.1c0,0,0,0-0.1,0C42.6,146.5,42.6,146.5,42.5,146.5L42.5,146.5z"/>
	<path class="st0" d="M45.5,147.1c-0.7,2.4-1.4,4.7-2.1,7.1c-0.6,2-1.1,3.9-1.6,5.9c-0.1,0.3,0.1,0.6,0.4,0.7
		c0.3,0.1,0.6-0.1,0.7-0.4c0.5-1.9,1-3.9,1.6-5.8c0.7-2.4,1.4-4.8,2.1-7.2c0.1-0.3-0.1-0.6-0.4-0.7c-0.1,0-0.1,0-0.2,0
		C45.8,146.7,45.6,146.8,45.5,147.1L45.5,147.1z"/>
	<path class="st0" d="M49,151.1c-0.2,0.1-0.3,0.2-0.2,0.4c0,0,0,0.1,0,0.1c0,0.4,0,0.7,0,1.1c0,0.3-0.1,0.6-0.1,0.8
		c-0.1,0.3-0.1,0.6-0.2,0.9c-0.1,0.4-0.2,0.7-0.3,1.1c-0.1,0.3-0.2,0.6-0.3,0.9c-0.1,0.2-0.1,0.3-0.2,0.5c-0.3,1-0.7,2-1,3
		c-0.1,0.2,0.1,0.4,0.2,0.4c0.2,0.1,0.4-0.1,0.4-0.2c0.2-0.6,0.4-1.1,0.6-1.7c0.2-0.5,0.3-0.9,0.5-1.4c0.2-0.6,0.4-1.1,0.5-1.7
		c0.2-0.7,0.4-1.4,0.5-2.1c0-0.3,0.1-0.6,0.1-0.9c0-0.3,0-0.6-0.1-1C49.4,151.2,49.2,151.1,49,151.1C49,151.1,49,151.1,49,151.1
		L49,151.1z"/>
	<path class="st0" d="M150.9,137.1c-0.2,0-0.3,0.1-0.4,0.3c-1,1.3-1.9,2.6-2.9,3.9c-0.6,0.8-1.2,1.6-1.8,2.4
		c-0.6,0.9-1.2,1.7-1.8,2.6c-0.3,0.4-0.5,0.8-0.8,1.2c-0.2,0.2-0.3,0.5-0.5,0.7c-0.2,0.3-0.3,0.5-0.5,0.8c-0.1,0.1-0.1,0.3-0.2,0.4
		c-0.1,0.2-0.1,0.4,0,0.6c0,0.1,0,0.1,0,0.2c0,0.2,0.3,0.3,0.4,0.3c0.2,0,0.5-0.2,0.5-0.5c0-0.1,0-0.1,0-0.2c0,0,0-0.1,0-0.1
		c0.2-0.5,0.6-0.8,0.9-1.3c0.2-0.2,0.3-0.5,0.5-0.7c0.2-0.3,0.5-0.7,0.7-1c0.6-0.9,1.2-1.7,1.9-2.6c1.5-2.1,3.1-4.1,4.7-6.2
		c0.1-0.1,0.1-0.3,0.1-0.5c0-0.2-0.1-0.3-0.3-0.4c-0.1-0.1-0.2-0.1-0.3-0.1C151,137.1,151,137.1,150.9,137.1L150.9,137.1z
		 M143,149.7C143,149.7,143,149.7,143,149.7C143,149.7,143,149.7,143,149.7L143,149.7z"/>
	<path class="st0" d="M157.2,136.3c-0.1,0-0.2,0.1-0.2,0.2c-1.8,2.4-3.6,4.8-5.4,7.2c-0.4,0.6-0.9,1.2-1.3,1.7
		c-0.4,0.6-0.9,1.2-1.3,1.8c-0.2,0.3-0.5,0.6-0.7,0.9c-1.3,1.8-2.6,3.7-3.9,5.5c-0.1,0.2,0,0.4,0.1,0.5c0.1,0.1,0.2,0.1,0.3,0
		c0.1,0,0.2-0.1,0.2-0.2c1.3-1.8,2.6-3.6,3.9-5.4c0.6-0.9,1.2-1.7,1.9-2.6c0.4-0.6,0.9-1.2,1.3-1.8c1.8-2.5,3.7-5,5.5-7.5
		c0.1-0.1,0.1-0.2,0-0.3c0-0.1-0.1-0.2-0.2-0.2c-0.1,0-0.1-0.1-0.2-0.1C157.3,136.2,157.3,136.2,157.2,136.3L157.2,136.3z"/>
	<path class="st0" d="M157.3,141.2c-0.2,0-0.3,0.1-0.4,0.3c-2.8,3.9-5.7,7.7-8.3,11.8c-0.2,0.3-0.1,0.6,0.2,0.8
		c0.3,0.2,0.6,0.1,0.8-0.2c2.6-4,5.5-7.9,8.3-11.8c0.1-0.1,0.1-0.3,0.1-0.5c0-0.2-0.1-0.3-0.3-0.4c-0.1-0.1-0.2-0.1-0.3-0.1
		C157.5,141.2,157.4,141.2,157.3,141.2L157.3,141.2z"/>
	<path class="st0" d="M157.7,146.1c-1,1.6-2,3.2-3,4.7c0,0.1-0.1,0.2-0.1,0.2c-0.1,0.2-0.3,0.5-0.4,0.7c-0.1,0.1-0.2,0.3-0.2,0.4
		c-0.1,0.1-0.1,0.3-0.2,0.4c-0.4,0.8-0.8,1.6-1.2,2.4c-0.1,0.1,0,0.3,0.1,0.3c0.1,0.1,0.3,0,0.3-0.1c0.4-0.8,0.8-1.6,1.2-2.4
		c0.1-0.2,0.2-0.3,0.3-0.5c0.1-0.1,0.1-0.2,0.2-0.4c0.1-0.2,0.3-0.5,0.4-0.7c0.1-0.1,0.1-0.2,0.2-0.3c1-1.6,2-3.2,3-4.8
		c0.1-0.1,0-0.3-0.1-0.3c0,0-0.1,0-0.1,0C157.8,146,157.8,146,157.7,146.1L157.7,146.1z"/>
	<path class="st0" d="M26.3,35.2c-0.5,0.2-0.9,0.5-1.2,0.9c-0.4,0.4-0.7,1-0.9,1.5c-0.3,0.8-0.5,1.7-0.6,2.6
		c-0.1,0.9-0.3,1.8-0.3,2.7c-0.1,1.4-0.1,2.9-0.1,4.3c0,1.5,0.1,3,0.2,4.6c0.1,1.5,0.2,2.9,0.2,4.4c0.1,1.5,0.1,3,0.2,4.6
		c0.1,1.6,0.2,3.2,0.3,4.8c0.1,1.1,0.2,2.1,0.3,3.2c0.1,1.2,0.2,2.3,0.3,3.5c0.1,1.3,0.3,2.6,0.5,3.8c0.2,1.1,0.3,2.1,0.5,3.2
		c0.1,0.9,0.2,1.7,0.3,2.6c0.1,0.9,0.2,1.7,0.4,2.6c0,0,0,0,0-0.1c0,0,0,0,0,0.1c0,0.1,0,0.2,0,0.3c0-0.1,0-0.2,0-0.2
		c0.3,2.5,0.7,5,1,7.5c0.4,2.9,0.6,5.9,0.9,8.8c0.3,3,0.5,6,0.8,9.1c0.1,1.5,0.3,3,0.4,4.5c0.1,1.5,0.3,3,0.5,4.6
		c0.4,3.1,1.1,6.1,1.8,9.1c0.1,0.5,0.2,1.1,0.4,1.6c0.1,0.5,0.6,0.7,1.1,0.6c0.5-0.1,0.7-0.6,0.6-1.1c-0.6-3.2-1.2-6.3-1.7-9.5
		c-0.3-2.9-0.6-5.8-0.8-8.7c-0.3-3.1-0.5-6.2-0.7-9.3c-0.1-1.4-0.3-2.9-0.4-4.3c-0.1-1.5-0.2-3.1-0.4-4.6c-0.1-1.5-0.4-2.9-0.5-4.4
		c-0.1-1.5-0.2-3-0.3-4.5c-0.1-1.6-0.2-3.1-0.2-4.7c0-1.5-0.1-3-0.2-4.4c-0.1-1.5-0.1-3-0.2-4.5c-0.1-1.5-0.2-2.9-0.4-4.3
		c-0.2-1.5-0.3-3-0.5-4.4c-0.2-1.5-0.3-3.1-0.5-4.6c-0.2-1.5-0.3-3-0.5-4.4c-0.2-1.6-0.3-3.1-0.4-4.7c-0.1-1.8-0.1-3.6,0.1-5.4
		c0.2-1.2,0.4-2.4,0.8-3.5c0.1-0.1,0.1-0.2,0.2-0.4c0,0,0,0,0,0c0.1-0.1,0.3-0.2,0.4-0.2c0,0,0,0,0,0c0.3,0,0.6,0,0.9,0
		c1,0.2,2,0.4,3,0.6c1.1,0.2,2.2,0.5,3.3,0.9c1,0.3,2.1,0.4,3.1,0.6c1.2,0.2,2.4,0.4,3.6,0.5c0.6,0.1,1.1,0.2,1.7,0.3
		c0.6,0.1,1.2,0.3,1.9,0.5c0.7,0.2,1.3,0.3,2,0.5c0.4,0.1,0.8,0.2,1.2,0.2c0.7,0.1,1.3,0.3,2,0.6c0.8,0.4,1.5,0.7,2.3,1.1
		c1,0.4,2.1,0.7,3.1,1c0.4,0.1,0.8,0.3,1.3,0.4c0.4,0.1,0.7,0.3,1.1,0.4c0.8,0.3,1.6,0.6,2.3,0.9c0.4,0.2,1-0.2,1.1-0.6
		c0.1-0.5-0.2-0.9-0.6-1.1c-1.2-0.4-2.3-0.9-3.4-1.3c-0.5-0.2-1.1-0.3-1.6-0.5c-0.8-0.3-1.7-0.5-2.5-0.8c-0.7-0.3-1.4-0.7-2.1-1
		c-1.1-0.5-2.2-0.8-3.4-1c-1.3-0.3-2.6-0.7-3.9-1.1c-1.3-0.4-2.7-0.6-4-0.9c-1.3-0.3-2.5-0.6-3.8-1.1c-0.7-0.3-1.4-0.6-2.1-0.9
		c-0.7-0.3-1.3-0.5-2-0.7c-1.2-0.4-2.6-0.9-3.9-0.9C27.4,34.8,26.8,34.9,26.3,35.2L26.3,35.2z M27.1,38.5
		C27.1,38.6,27,38.6,27.1,38.5C27,38.6,27,38.6,27.1,38.5C27,38.6,27.1,38.6,27.1,38.5L27.1,38.5z M27,38.6C27,38.6,27,38.6,27,38.6
		C27,38.6,27,38.6,27,38.6C27,38.6,27,38.6,27,38.6L27,38.6z M53.3,42.5C53.3,42.5,53.3,42.5,53.3,42.5
		C53.3,42.5,53.3,42.5,53.3,42.5L53.3,42.5z M50.2,42.9c0,0,0.1,0,0.1,0C50.3,43,50.3,43,50.2,42.9L50.2,42.9z M26.2,84.4
		C26.2,84.4,26.2,84.4,26.2,84.4C26.2,84.4,26.2,84.4,26.2,84.4C26.2,84.4,26.2,84.4,26.2,84.4L26.2,84.4z M25.9,81.9
		c0-0.1,0-0.1,0-0.2c0-0.1,0-0.2,0-0.2C25.8,81.7,25.9,81.8,25.9,81.9L25.9,81.9z"/>
</g>
</svg>
