<?xml version="1.0" encoding="utf-8"?>
<!-- Generator: Adobe Illustrator 23.0.6, SVG Export Plug-In . SVG Version: 6.00 Build 0)  -->
<svg version="1.1" id="Layer_1" xmlns="http://www.w3.org/2000/svg" xmlns:xlink="http://www.w3.org/1999/xlink" x="0px" y="0px"
	 viewBox="0 0 200 200" style="enable-background:new 0 0 200 200;" xml:space="preserve">
<style type="text/css">
	.st0{fill:#1A1A1A;}
</style>
<g>
	<path class="st0" d="M107.1,47.1c-1.7,1.6-3.5,3.1-5.2,4.7c-1,0.9-2,1.9-3,2.8c-0.7,0.7-1.4,1.4-2.1,2c-1.5,1.5-2.9,3-4.3,4.5
		c-1.4,1.5-2.8,2.8-4.3,4.2c-0.7,0.7-1.4,1.4-2.1,2.1c-0.7,0.7-1.5,1.4-2.1,2.2c-0.4,0.4-0.7,0.9-1,1.4c-0.4,0.8-0.7,1.7-0.7,2.6
		c-0.1,1.2,0.3,2.3,0.7,3.5c0.3,1,0.6,2,0.8,2.9c0.5,2,1.3,3.9,1.9,5.8c0.6,1.8,1.1,3.7,1.5,5.7c0,0.2,0.1,0.4,0.1,0.6
		c0.1,0.4,0.3,0.8,0.7,1.1c0.2,0.3,0.5,0.6,0.9,0.7c0.3,0.1,0.5,0.2,0.8,0.3c0.4,0.1,0.8,0.1,1.1,0.1c0.5,0,1-0.1,1.4-0.2
		c0.8-0.2,1.6-0.3,2.4-0.5c1.5-0.3,2.9-0.6,4.4-0.9c1.6-0.2,3.1-0.3,4.7-0.4c0.7,0,1.5-0.1,2.2,0c0.8,0,1.5,0.1,2.3,0.2
		c1.9,0.3,3.8,0.6,5.7,0.9c1.9,0.3,3.8,0.9,5.6,1.6c1.4,0.6,2.8,1.2,4.1,2.1c0.4,0.4,0.8,0.8,1.2,1.2c0.5,0.7,0.9,1.4,1.3,2.2
		c0.4,0.9,0.6,1.8,0.8,2.7c0.1,1.2,0.1,2.5-0.1,3.7c-0.7,0.6-1.4,1.2-2.2,1.8c-0.4,0.3-0.8,0.6-1.3,0.9c-1,0.7-2,1.2-3.1,1.7
		c-0.9,0.4-1.9,0.8-2.8,1.3c-0.8,0.3-1.6,0.6-2.4,0.9c-0.9,0.3-1.8,0.5-2.7,0.7c-0.9,0.2-1.8,0.4-2.6,0.6c-1.4,0.3-2.8,0.7-4.2,0.9
		c-2.1,0.2-4.2,0.1-6.2-0.1c-1.5-0.1-3.1-0.3-4.6-0.5c-2.6-0.4-5.2-0.9-7.8-1.4c-0.6-0.1-1.1-0.3-1.7-0.4c-0.6-0.2-1.3-0.3-1.9-0.6
		c-0.6-0.2-1.3-0.4-1.9-0.7c-0.7-0.3-1.3-0.5-2-0.8c-0.7-0.3-1.5-0.7-2.2-1c-0.8-0.4-1.6-0.8-2.4-1.1c-0.7-0.4-1.5-0.8-2.2-1.2
		c-0.3-0.2-0.6-0.4-1-0.6c-0.4-0.2-0.7-0.5-1.1-0.7c-0.8-0.6-1.6-1.2-2.3-1.8c-0.8-0.6-1.5-1.3-2.1-2.1c-0.1-0.1-0.1-0.2-0.2-0.2
		c0.3-0.6,0.2-1.4-0.3-1.8c-0.3-0.3-0.7-0.5-1.1-0.5c-0.4,0-0.8,0.2-1.1,0.5c-1.2,1.1-2.4,2.2-3.6,3.2c-0.8,0.7-1.5,1.5-2.3,2.3
		c-1.5,1.5-2.8,3.1-4.2,4.7c-0.7,0.8-1.5,1.6-2.3,2.4c-0.8,0.8-1.7,1.6-2.4,2.5c-0.2,0.3-0.5,0.6-0.7,0.9c-0.2,0.3-0.3,0.7-0.4,1.1
		c-0.2,0.7-0.4,1.4-0.4,2c-0.1,1-0.2,2.1-0.3,3.1c0,0.9-0.1,1.8,0,2.7c0.1,1,0.2,2,0.4,3c0.3,2.1,0.6,4.3,1,6.4
		c0.4,2.2,0.8,4.4,1.4,6.6c0.3,1.2,0.8,2.3,1.3,3.4c0.5,1,1,2,1.6,2.9c0.9,1.3,2.1,2.4,3.3,3.3c1,0.8,2,1.6,3,2.2
		c1.8,1.1,3.6,2.1,5.4,3.1c1.9,1,3.9,1.8,5.9,2.7c2,0.9,3.9,1.8,6,2.5c2.1,0.7,4.1,1.3,6.2,1.9c2.1,0.6,4.1,1.2,6.2,1.6
		c2.2,0.4,4.3,0.8,6.5,1.2c1.1,0.2,2.2,0.4,3.3,0.6c1.3,0.2,2.5,0.4,3.8,0.5c2.1,0.3,4.3,0.3,6.4,0.4c1,0,2,0,2.9,0
		c1.2,0,2.4,0,3.6-0.1c0.4,0,0.8-0.1,1.2-0.1c0.7-0.1,1.5-0.1,2.2-0.3c1.1-0.2,2.1-0.3,3.1-0.5c2.2-0.4,4.4-0.8,6.5-1.3
		c2-0.4,4-0.9,5.9-1.6c2.1-0.7,4.1-1.5,6.2-2.4c1.1-0.4,2.2-0.9,3.2-1.4c0.5-0.2,1-0.4,1.4-0.7c0.6-0.3,1.2-0.7,1.9-1
		c1.8-1,3.6-2.1,5.4-3.2c0.9-0.6,1.8-1.1,2.6-1.7c1.1-0.8,2.1-1.6,3.1-2.4c1.7-1.4,3.2-2.9,4.8-4.4c1.2-1.1,2.3-2.4,3.3-3.7
		c1.2-1.5,2-3.2,2.9-4.9c0.3-0.7,0.6-1.4,0.9-2c0.3-0.7,0.6-1.4,0.9-2.2c0.1-0.4,0.1-0.7,0-1.1c-0.1-0.3-0.2-0.5-0.4-0.8
		c0.5-1.2,1.1-2.3,1.6-3.5c0.4-0.9,0.8-1.9,1.2-2.8c0.7-1.8,1.2-3.7,1.6-5.5c0.4-1.8,0.7-3.5,1-5.3c0.2-1.2,0.3-2.3,0.4-3.5
		c0-0.4,0.1-0.8,0.1-1.2c0-0.5,0-1.1,0-1.6c0-0.9,0-1.9,0-2.8c0-0.9,0-1.7-0.1-2.6c-0.1-2.1-0.2-4.1-0.6-6.2
		c-0.3-1.9-0.7-3.7-1.1-5.6c-0.4-1.8-0.9-3.6-1.5-5.4c-0.6-1.8-1.2-3.5-1.9-5.3c-0.7-1.8-1.4-3.6-2.2-5.4c-0.8-1.7-1.8-3.3-2.8-4.9
		c-0.5-0.8-1.1-1.6-1.7-2.4c-0.6-0.8-1.2-1.5-1.9-2.2c-0.5-0.5-1-1-1.6-1.4c-1.4-1.2-2.9-2.2-4.5-3.3c-0.8-0.5-1.6-1.1-2.4-1.6
		c-0.9-0.5-1.7-1.1-2.6-1.6c-0.8-0.4-1.5-0.8-2.3-1.2c-0.9-0.4-1.8-0.9-2.7-1.4c-0.8-0.4-1.5-0.8-2.3-1.3c-0.8-0.4-1.6-0.9-2.4-1.3
		c-1-0.4-1.9-0.9-2.9-1.3c-0.9-0.4-1.9-0.7-2.8-1c-1.7-0.6-3.5-1.2-5.2-1.8c-1.7-0.6-3.5-0.9-5.2-1.2c-1.4-0.3-2.9-0.6-4.3-0.8
		c-0.4,0-0.7-0.1-1.1-0.1c-0.4-0.1-0.9-0.1-1.3-0.1c-0.5,0-0.9,0-1.4,0.1c-0.8,0-1.5,0.1-2.3,0.2c-1.4,0.1-2.7,0.2-4.1,0.3
		c-0.6,0-1.1,0.1-1.7,0.1c-0.1-0.2-0.2-0.4-0.3-0.5c-0.3-0.3-0.6-0.4-1-0.4C107.8,46.7,107.4,46.8,107.1,47.1L107.1,47.1z
		 M120.1,49.3C120.1,49.3,120.1,49.3,120.1,49.3C120.1,49.3,120.1,49.3,120.1,49.3C120.1,49.3,120.1,49.3,120.1,49.3L120.1,49.3z
		 M128.8,51.2C128.8,51.2,128.9,51.2,128.8,51.2C128.9,51.3,128.9,51.3,128.8,51.2L128.8,51.2L128.8,51.2z M105.9,119.9
		c1.7-0.1,3.3-0.5,4.9-0.8c0.7-0.1,1.5-0.3,2.2-0.4c0.3-0.1,0.7-0.1,1-0.2c0.4-0.1,0.9-0.2,1.3-0.3c0.8-0.2,1.5-0.4,2.3-0.7
		c0.9-0.3,1.7-0.6,2.6-1c0.8-0.3,1.7-0.7,2.5-1.1c0.6-0.3,1.2-0.5,1.8-0.8c0.7-0.4,1.3-0.8,1.9-1.3c0.8-0.6,1.7-1.2,2.5-1.9
		c0.7-0.5,1.3-1.1,1.9-1.7c0.7-0.6,1.3-1.2,2-1.9c1.7-1.8,2.7-4.1,3.6-6.4c0.8-2,1.3-4.2,1.6-6.4c0.2-1.2,0.3-2.4,0.3-3.6
		c0-1.3-0.1-2.5-0.3-3.8c-0.2-1.1-0.6-2.2-1-3.2c-0.3-0.7-0.6-1.3-1-1.9c-0.3-0.6-0.6-1.1-1-1.6c-0.7-1-1.5-1.9-2.4-2.8
		c-0.9-0.8-1.8-1.5-2.8-2.1c-1.4-0.9-2.8-1.8-4.3-2.5c-1.6-0.7-3.2-1.4-4.9-2c-0.7-0.3-1.5-0.6-2.2-0.7c-0.3-0.1-0.6-0.1-0.8-0.2
		c0-0.2,0.1-0.4,0.1-0.6c0.8-1.7,1.9-3.2,2.9-4.8c0.6-1,1.3-1.9,2-2.8c0.5-0.8,1.1-1.5,1.7-2.2c0.6-0.7,1.1-1.3,1.7-2
		c0.4-0.5,0.8-1,1.2-1.4c1.5-1.6,2.9-3.1,4.4-4.6c0.5,0.2,1,0.4,1.5,0.6c1.3,0.5,2.7,1.1,4.1,1.6c0.8,0.3,1.5,0.7,2.3,1
		c0.8,0.4,1.6,0.8,2.4,1.3c1.6,1,3.2,1.9,4.9,2.8c1.6,0.9,3.3,1.7,4.8,2.7c1.6,1,3.2,2.1,4.7,3.2c0.3,0.2,0.6,0.5,1,0.7
		c0.5,0.4,0.9,0.7,1.3,1.1c0.3,0.3,0.6,0.6,0.9,0.8c0.7,0.6,1.2,1.3,1.8,1.9c0.9,1.2,1.8,2.5,2.5,3.8c0.4,0.7,0.8,1.5,1.2,2.2
		c0.3,0.6,0.6,1.2,0.8,1.8c0.6,1.5,1.1,3,1.7,4.5c0,1.9-0.1,3.7-0.3,5.6c0,0,0,0,0-0.1c-0.1,0.6-0.1,1.1-0.2,1.7
		c-0.1,0.8-0.3,1.5-0.5,2.3c-0.3,1.4-0.7,2.8-1.1,4.1c-0.8,2.7-1.9,5.4-2.9,8c-0.6,1.2-1.1,2.5-1.8,3.7c-0.8,1.3-1.5,2.6-2.4,3.9
		c-1.7,2.4-3.5,4.8-5.3,7.2c-0.4,0.5-0.9,1-1.3,1.6c-0.4,0.5-0.8,0.9-1.3,1.4c-0.8,0.8-1.6,1.7-2.4,2.5c-1,0.9-2,1.9-3,2.8
		c-0.4,0.4-0.9,0.8-1.3,1.2c-0.5,0.4-1,0.8-1.4,1.1c-0.5,0.3-1,0.7-1.5,1c-0.4,0.3-0.9,0.6-1.4,0.8c-0.9,0.5-1.8,1-2.8,1.5
		c-1.1,0.5-2.1,1.1-3.2,1.6c-1,0.5-2,0.9-2.9,1.3c-0.6,0.2-1.2,0.4-1.8,0.7c-0.5,0.2-1.1,0.3-1.6,0.5c-1.1,0.3-2.3,0.6-3.5,0.9
		c-2.8,0.7-5.6,1.4-8.5,1.8c-1.9,0.2-3.8,0.2-5.7,0.2c-1.3,0-2.6-0.1-3.9-0.1c-1.2,0-2.4-0.1-3.6-0.1c-0.6,0-1.2-0.1-1.9-0.1
		c-0.7-0.1-1.4-0.1-2.1-0.2c-0.7-0.1-1.3-0.2-2-0.3c-0.8-0.1-1.6-0.3-2.4-0.4c-1.4-0.3-2.9-0.6-4.3-0.9c-0.7-0.1-1.3-0.3-2-0.5
		c-0.8-0.2-1.5-0.4-2.3-0.6c-0.5-0.1-0.9-0.3-1.4-0.4c-0.3-0.1-0.7-0.2-1-0.3c-0.7-0.3-1.4-0.6-2.1-0.8c-1.7-0.8-3.3-1.5-5-2.3
		c0.3-0.4,0.6-0.8,0.8-1.1c0.6-0.7,1.1-1.4,1.8-2.1c0.7-0.8,1.5-1.7,2.3-2.5c1.5-1.5,2.9-3,4.4-4.6c0.9-1,1.8-1.9,2.7-2.9
		c0.4-0.5,0.8-1,1.3-1.4c0.2-0.2,0.3-0.4,0.5-0.5c1,0.3,2,0.5,3,0.8c1.5,0.4,3,0.7,4.5,1c0.9,0.2,1.8,0.3,2.7,0.5
		c0.8,0.1,1.7,0.3,2.5,0.3c1.1,0.1,2.1,0.2,3.2,0.2C105.1,119.9,105.5,119.9,105.9,119.9L105.9,119.9z M124.3,60
		C124.3,60,124.3,60,124.3,60C124.3,60,124.3,60,124.3,60L124.3,60z M91.7,67C91.7,67,91.7,67,91.7,67C91.7,67,91.7,67.1,91.7,67
		C91.7,67,91.7,67,91.7,67L91.7,67z M102.7,71.8c2-0.1,4-0.2,6-0.2c0.3,0,0.5,0,0.8,0c0.2,0,0.5,0,0.7,0c0.5,0,1,0.1,1.5,0.1
		c1.2,0.1,2.3,0.2,3.5,0.4c0.2,0,0.4,0.1,0.6,0.2c0.1,0.1,0.2,0.4,0.2,0.6c0,0.4-0.4,0.8-0.8,0.8c-1.2,0-2.5-0.1-3.7-0.1
		c-0.5,0-1-0.1-1.4-0.1c-0.5,0-1,0-1.5,0c-2,0-4,0.1-6,0c-1,0-2-0.1-3-0.2c-0.5,0-1,0-1.5,0c-0.5,0-1,0-1.5,0.1
		c-0.8,0.1-1.7,0.3-2.5,0.5c-0.9,0.2-1.8,0.4-2.7,0.7c-0.4,0.1-0.7-0.1-0.8-0.5c-0.1-0.4,0.1-0.7,0.5-0.8c1.1-0.3,2.1-0.5,3.2-0.8
		c0.9-0.2,1.9-0.5,2.9-0.6c1-0.1,1.9-0.1,2.9,0c0.5,0,1.1,0,1.6,0C101.9,71.8,102.3,71.8,102.7,71.8L102.7,71.8z M88.3,72.5
		c0.1,0,0.2,0,0.3-0.1C88.5,72.5,88.4,72.5,88.3,72.5C88.3,72.5,88.3,72.5,88.3,72.5L88.3,72.5z M127.7,97.3c-0.7-1.1-1.6-2-2.6-2.8
		c-0.7-0.6-1.6-1-2.4-1.4c-0.9-0.4-1.8-0.8-2.7-1.2c0,0,0.1-0.1,0.1-0.1c0.2-0.3,0.2-0.6,0.1-0.9c0,0,0,0,0,0
		c-0.1-1.3-0.3-2.7-0.5-4c-0.2-1.4-0.4-2.8-0.6-4.1c-0.2-1.3-0.4-2.6-0.6-3.9c-0.2-1.4-0.4-2.9-0.7-4.3c0-0.1,0-0.3-0.1-0.4
		c0.4,0.1,0.7,0.2,1.1,0.4c0.8,0.3,1.6,0.6,2.5,1c0.7,0.3,1.4,0.6,2,0.9c0.7,0.4,1.5,0.8,2.2,1.2c0.6,0.4,1.3,0.8,1.9,1.2
		c0.6,0.4,1.1,0.8,1.7,1.2c0.8,0.6,1.5,1.3,2.1,2c0.5,0.7,0.9,1.4,1.3,2.1c0.3,0.6,0.6,1.1,0.8,1.7c0.3,0.8,0.6,1.7,0.7,2.6
		c0.2,1.7,0.1,3.4-0.1,5.1c-0.3,2.2-0.9,4.4-1.7,6.5c-0.6,1.3-1.2,2.6-2.1,3.8c-0.2,0.2-0.3,0.4-0.5,0.5
		C129.8,101.9,129,99.4,127.7,97.3L127.7,97.3z M87.9,74.7C87.9,74.7,87.9,74.7,87.9,74.7l0,0.2C88,74.8,88,74.8,87.9,74.7
		L87.9,74.7z M121.3,75.5c0.1,0,0.2,0.1,0.3,0.1C121.5,75.6,121.4,75.5,121.3,75.5L121.3,75.5z M100.2,87c-0.1-0.1-0.2-0.2-0.2-0.4
		c-0.1-0.9-0.2-1.7-0.3-2.6c-0.1-0.8-0.1-1.6-0.2-2.4c0-0.5,0.4-0.9,0.9-0.9c0.5,0,0.8,0.4,0.9,0.9c0.1,0.8,0.1,1.6,0.2,2.4
		c0.1,0.8,0.2,1.6,0.3,2.4c0,0.2-0.1,0.5-0.2,0.6c-0.2,0.2-0.4,0.2-0.6,0.2C100.6,87.2,100.4,87.1,100.2,87L100.2,87z M96.8,86.8
		c-0.1-0.1-0.2-0.2-0.2-0.3c-0.2-1.4-0.4-2.9-0.6-4.3c0-0.1,0-0.2,0-0.4c0.1-0.1,0.2-0.2,0.3-0.2c0,0,0.1,0,0.1,0
		c0.1,0,0.2,0,0.2,0.1c0.1,0.1,0.2,0.2,0.2,0.3c0.2,1.4,0.4,2.9,0.6,4.3c0,0.1,0,0.2,0,0.4c-0.1,0.1-0.2,0.2-0.3,0.2
		c0,0-0.1,0-0.1,0C96.9,86.9,96.8,86.8,96.8,86.8L96.8,86.8z M93.8,86.8c-0.3-1.2-0.7-2.3-1-3.5c-0.1-0.2,0.1-0.4,0.3-0.5
		c0,0,0.1,0,0.1,0c0.2,0,0.3,0.1,0.4,0.3c0.2,0.6,0.4,1.2,0.5,1.9c0.2,0.5,0.3,1.1,0.4,1.6c0.1,0.2-0.1,0.4-0.3,0.4c0,0-0.1,0-0.1,0
		C93.9,87,93.8,86.9,93.8,86.8L93.8,86.8z M112.2,142.7c2.7-0.1,5.3-0.5,7.9-1.1c1.5-0.3,3-0.7,4.6-1c0.7-0.2,1.5-0.4,2.2-0.6
		c0.8-0.2,1.5-0.4,2.3-0.7c0.8-0.3,1.7-0.6,2.5-1c0.7-0.3,1.4-0.6,2.2-0.9c1.4-0.7,2.9-1.3,4.3-2.1c0.7-0.4,1.4-0.7,2.1-1.1
		c0.7-0.4,1.3-0.8,2-1.2c0.7-0.5,1.5-1,2.2-1.6c0.6-0.5,1.2-0.9,1.7-1.4c0.6-0.6,1.3-1.2,1.9-1.8c0.7-0.6,1.3-1.2,1.9-1.8
		c1.1-1.1,2.1-2.2,3.1-3.4c1.1-1.2,2.1-2.6,3.1-3.9c0.9-1.3,1.9-2.5,2.8-3.8c0.5-0.7,0.9-1.3,1.4-2c0.5-0.7,0.9-1.3,1.3-2
		c0.8-1.3,1.6-2.7,2.3-4.1c0.2-0.3,0.3-0.6,0.4-0.9c0.2-0.5,0.4-0.9,0.6-1.4c0.3-0.7,0.6-1.4,0.8-2.1c0.6-1.5,1.1-3,1.6-4.5
		c0.5-1.5,1-3,1.4-4.5c0.3-1.3,0.6-2.6,0.8-3.9c0.3,1.2,0.6,2.4,0.8,3.6c0.3,1.6,0.6,3.2,0.8,4.8c0.2,2.3,0.4,4.6,0.4,6.9
		c0,1.2,0,2.4,0,3.5c0,0.6,0,1.2-0.1,1.8c-0.1,0.6-0.1,1.1-0.2,1.7c-0.2,1.5-0.5,2.9-0.8,4.4c-0.2,0.9-0.4,1.7-0.6,2.6
		c-0.1,0.5-0.3,1.1-0.4,1.6c-0.3,1.2-0.7,2.3-1.2,3.5c-1.9,4.4-3.9,8.7-5.8,13.1c-0.1,0.2-0.2,0.4-0.2,0.6c-0.1,0.4-0.1,0.9,0,1.3
		c0.1,0.3,0.2,0.5,0.4,0.8c-0.2,0.3-0.4,0.6-0.6,0.8c-1.6,1.9-3.4,3.6-5.1,5.3c-1.4,1.4-2.9,2.6-4.4,3.8c-2.3,1.6-4.7,3.1-7.1,4.5
		c-1.2,0.7-2.4,1.4-3.6,2c-1.1,0.5-2.2,1-3.3,1.5c-1.7,0.7-3.3,1.3-5,2c-0.9,0.3-1.8,0.6-2.7,0.9c-0.8,0.3-1.7,0.5-2.6,0.7
		c-0.8,0.2-1.5,0.3-2.3,0.5c-0.9,0.2-1.9,0.4-2.8,0.5c-1.8,0.3-3.5,0.7-5.3,1c-0.6,0.1-1.2,0.1-1.9,0.2c-0.6,0.1-1.1,0.1-1.7,0.1
		c-1.3,0.1-2.5,0-3.8,0c-1.3,0-2.5,0-3.8-0.1c-1.4-0.1-2.7-0.2-4-0.3c0,0,0,0,0,0c-0.8-0.1-1.6-0.2-2.4-0.4
		c-1.2-0.2-2.4-0.4-3.6-0.6c-2.1-0.4-4.2-0.7-6.3-1.1c-2.1-0.4-4.1-0.9-6.2-1.5c-2.1-0.6-4.2-1.2-6.3-1.9c0,0,0.1-0.1,0.1-0.1
		c0.4-0.4,0.4-1.1,0-1.6c-0.1-0.3-0.1-0.6-0.2-0.9c-0.1-0.3-0.1-0.5-0.2-0.8c-0.1-0.5-0.2-1.1-0.4-1.6c-0.2-1.1-0.5-2.1-0.7-3.2
		c-0.4-2.3-0.7-4.6-1.1-6.8c-0.2-1.4-0.4-2.7-0.6-4.1c-0.1-0.7-0.3-1.4-0.4-2.1c-0.1-0.6-0.2-1.3-0.4-1.9c1.6,0.8,3.2,1.6,4.8,2.3
		c0.4,0.2,0.8,0.3,1.2,0.5c0.5,0.2,0.9,0.4,1.4,0.6c0.2,0.1,0.5,0.2,0.8,0.3c0.5,0.2,1,0.3,1.6,0.5c0.7,0.2,1.5,0.4,2.2,0.6
		c0.7,0.2,1.4,0.4,2.1,0.5c1.5,0.3,2.9,0.7,4.4,1c0.8,0.2,1.6,0.3,2.4,0.5c0.9,0.1,1.8,0.3,2.7,0.4c0.8,0.1,1.5,0.2,2.3,0.3
		c0.8,0.1,1.7,0.1,2.5,0.2c1.6,0.1,3.3,0.1,4.9,0.2c1.4,0.1,2.8,0.1,4.1,0.1C111.7,142.7,112,142.7,112.2,142.7L112.2,142.7z
		 M120.2,90.6c0,0.1,0,0.1,0,0.2C120.2,90.7,120.2,90.6,120.2,90.6L120.2,90.6z M117.9,90.9c0,0.1,0,0.2,0,0.3h0
		C117.9,91,117.9,90.9,117.9,90.9L117.9,90.9z M171.2,98.7c0,0.1,0,0.1,0,0.2C171.2,98.8,171.2,98.8,171.2,98.7L171.2,98.7z
		 M132.2,100.1c0,0.1,0,0.1-0.1,0.2C132.2,100.3,132.2,100.2,132.2,100.1L132.2,100.1z M126.4,100.5c0,0,0,0.1,0,0.1
		C126.4,100.6,126.4,100.6,126.4,100.5L126.4,100.5z M94.4,115.1c0.1,0,0.1,0,0.2,0C94.5,115.1,94.5,115.1,94.4,115.1L94.4,115.1z
		 M86.2,116.4c0.2,0.1,0.4,0.1,0.6,0.2c0,0,0,0,0,0C86.6,116.5,86.4,116.4,86.2,116.4L86.2,116.4z M152.6,118.8c0,0-0.1,0.1-0.1,0.1
		C152.5,118.8,152.6,118.8,152.6,118.8L152.6,118.8z M54.3,123.8c-0.7-0.5-1.3-1.1-2-1.7c-0.3-0.3-0.3-0.8,0-1.1
		c0.2-0.2,0.4-0.2,0.6-0.2c0.2,0,0.4,0.1,0.6,0.2c0.6,0.5,1.2,1.1,1.8,1.6c0.7,0.6,1.5,1.1,2.3,1.7c0.8,0.6,1.7,1.2,2.5,1.7
		c0.8,0.5,1.7,1.1,2.5,1.6c0.8,0.6,1.7,1.1,2.6,1.6c0.4,0.2,0.5,0.7,0.3,1.1c-0.1,0.2-0.3,0.3-0.5,0.4c-0.1,0-0.3,0-0.4,0
		c-0.9-0.4-1.7-0.7-2.5-1.2c-0.7-0.4-1.3-0.8-1.9-1.2c-0.7-0.4-1.3-0.9-2-1.4c-0.6-0.5-1.2-1-1.9-1.4c0,0,0,0,0,0c0,0,0,0-0.1,0
		c0,0,0,0,0,0s0,0,0,0C55.6,124.9,54.9,124.3,54.3,123.8L54.3,123.8z M56.8,136.8c0-0.1,0.1-0.2,0.1-0.3c0.1-0.1,0.2-0.1,0.3-0.1
		c0.1,0,0.2,0,0.3,0.1c0.1,0.1,0.1,0.2,0.1,0.3c0.4,2.8,0.7,5.7,1.1,8.5c0,0.1,0,0.2-0.1,0.2c-0.1,0.1-0.2,0.1-0.2,0.1
		c-0.1,0-0.3-0.1-0.3-0.3c-0.4-2.3-0.7-4.7-1-7c0,0,0,0.1,0,0.1C56.9,138,56.9,137.4,56.8,136.8L56.8,136.8z M61.2,144.8
		c-0.1-0.1-0.1-0.2-0.1-0.3c0-0.2,0-0.5,0-0.7c0-0.2,0-0.3,0-0.5c0-0.3,0-0.5,0-0.8c0-0.6,0-1.1,0.1-1.7c0-0.5,0.1-1,0.1-1.5
		c0.1-0.8,0.1-1.6,0.2-2.3c0-0.1,0-0.2,0.1-0.3c0.1-0.1,0.2-0.1,0.3-0.1c0.2,0,0.4,0.2,0.4,0.4c-0.1,0.8-0.1,1.6-0.2,2.4
		c0,0.5-0.1,0.9-0.1,1.4c0,0.6,0,1.2-0.1,1.8c0,0.2,0,0.5,0,0.7c0,0.2,0,0.3,0,0.5c0,0.2,0,0.4,0,0.6c0,0.2-0.2,0.4-0.4,0.4
		C61.3,145,61.2,144.9,61.2,144.8L61.2,144.8z M64.1,147.7c-0.1-0.1-0.2-0.3-0.2-0.5c-0.2-2.4-0.3-4.7-0.5-7.1
		c0-0.4,0.4-0.8,0.8-0.8c0.4,0,0.7,0.4,0.8,0.8c0.1,2.4,0.2,4.7,0.4,7.1c0,0.4-0.3,0.7-0.7,0.7C64.4,147.9,64.2,147.9,64.1,147.7
		L64.1,147.7z M60.6,149.5c0,0,0.1,0.1,0.1,0.1C60.7,149.6,60.7,149.5,60.6,149.5L60.6,149.5z M75.8,157.2
		C75.8,157.2,75.8,157.2,75.8,157.2C75.8,157.2,75.8,157.2,75.8,157.2C75.8,157.2,75.8,157.2,75.8,157.2L75.8,157.2z"/>
	<path class="st0" d="M85.9,148.1c-0.1,0-0.1,0.1-0.1,0.1c0,0.1,0,0.1,0,0.2c0.1,0.8,0.2,1.5,0.3,2.3c0.1,0.7,0.2,1.4,0.3,2.1
		c0,0.1,0,0.2,0.1,0.4c0,0.2,0.1,0.4,0.1,0.6c0.2,0.7,0.3,1.4,0.5,2.1c0,0.1,0.1,0.3,0.1,0.4c0,0,0,0.1,0,0.1c0,0.2,0.1,0.3,0.1,0.5
		c0.2,0.6,0.3,1.2,0.5,1.8c0,0.2,0.1,0.4,0.2,0.5c0.1,0.3,0.2,0.6,0.3,1c0.1,0.2,0.2,0.4,0.2,0.6c0.1,0.2,0.2,0.5,0.3,0.7
		c0.1,0.2,0.1,0.3,0.2,0.5c0.1,0.2,0.2,0.4,0.3,0.7c0.1,0.1,0.2,0.1,0.3,0.1c0.1,0,0.1-0.1,0.1-0.1c0-0.1,0-0.1,0-0.2
		c-0.1-0.2-0.2-0.5-0.3-0.7c-0.1-0.2-0.1-0.3-0.2-0.5c-0.1-0.2-0.2-0.5-0.3-0.7c0-0.1-0.1-0.2-0.1-0.3c0-0.1,0-0.1-0.1-0.2
		c-0.1-0.3-0.2-0.6-0.3-1c0-0.2-0.1-0.3-0.1-0.5c-0.2-0.6-0.3-1.3-0.5-1.9c0-0.1-0.1-0.2-0.1-0.4c0,0,0-0.1,0-0.1
		c0-0.2-0.1-0.4-0.1-0.6c-0.1-0.7-0.3-1.4-0.4-2.1c0-0.2-0.1-0.3-0.1-0.5c0-0.1,0-0.3-0.1-0.4c-0.1-0.7-0.2-1.4-0.3-2
		c-0.1-0.8-0.2-1.5-0.4-2.3c0-0.1-0.1-0.1-0.1-0.1C86.1,148.1,86.1,148.1,85.9,148.1C86,148.1,86,148.1,85.9,148.1L85.9,148.1z"/>
	<path class="st0" d="M90.9,149.8c-0.3,0.1-0.5,0.4-0.4,0.7c0.5,2.4,1,4.7,1.4,7.1c0.1,0.7,0.3,1.3,0.4,1.9c0.1,0.4,0.2,0.7,0.3,1.1
		c0.1,0.6,0.3,1.2,0.5,1.8c0.1,0.3,0.2,0.5,0.3,0.7c0.1,0.2,0.3,0.4,0.4,0.7c0.2,0.2,0.5,0.3,0.7,0.2c0.2-0.1,0.3-0.5,0.2-0.7
		c-0.1-0.2-0.2-0.4-0.3-0.6c-0.3-0.8-0.5-1.6-0.7-2.4c-0.1-0.5-0.2-0.9-0.3-1.4c-0.1-0.6-0.3-1.2-0.4-1.8c-0.5-2.3-0.9-4.6-1.4-6.9
		c0-0.3-0.3-0.4-0.6-0.4C91,149.8,90.9,149.8,90.9,149.8L90.9,149.8z"/>
	<path class="st0" d="M95.3,149.8c-0.6,0.2-0.8,0.7-0.7,1.3c0.6,2.4,1.1,4.8,1.7,7.2c0.1,0.3,0.2,0.7,0.2,1c0,0.2,0.1,0.3,0.1,0.5
		c0.2,0.5,0.4,1.1,0.5,1.6c0.3,1.1,0.7,2.1,1.2,3.1c0.1,0.1,0.2,0.3,0.3,0.3c0.2,0.1,0.5,0.2,0.7,0.1c0.5-0.1,0.8-0.7,0.6-1.1
		c-0.6-2-1.2-4-1.8-6c-0.6-2.4-1.1-4.8-1.7-7.2c-0.1-0.5-0.6-0.8-1-0.8C95.5,149.8,95.4,149.8,95.3,149.8L95.3,149.8z"/>
	<path class="st0" d="M100.4,151.4c-0.5,0.1-0.8,0.7-0.7,1.2c0.4,1.9,0.9,3.8,1.3,5.7c0.2,0.8,0.3,1.5,0.5,2.3
		c0.1,0.4,0.2,0.9,0.3,1.3c0.1,0.3,0.1,0.6,0.2,1c0.1,0.2,0.1,0.4,0.2,0.6c0.1,0.3,0.2,0.5,0.4,0.8c0.3,0.4,0.9,0.6,1.4,0.4
		c0.5-0.3,0.6-0.9,0.4-1.4c-0.1-0.1-0.1-0.2-0.2-0.3c-0.2-0.6-0.3-1.2-0.5-1.8c-0.1-0.4-0.2-0.8-0.3-1.2c-0.2-0.8-0.3-1.5-0.5-2.3
		c-0.4-1.9-0.9-3.8-1.3-5.7c-0.1-0.4-0.5-0.7-1-0.7C100.6,151.4,100.5,151.4,100.4,151.4L100.4,151.4z"/>
	<path class="st0" d="M106.4,152.7c-0.3,0.1-0.5,0.4-0.4,0.7c0.5,1.6,1.1,3.1,1.6,4.7c0.5,1.5,1,3,1.4,4.4c0.1,0.3,0.4,0.6,0.8,0.5
		c0.3-0.1,0.6-0.5,0.5-0.8c-1.1-3-2.1-6.1-3.2-9.1c-0.1-0.2-0.3-0.4-0.6-0.4C106.5,152.7,106.4,152.7,106.4,152.7L106.4,152.7z"/>
	<path class="st0" d="M111.5,151.4c-0.2,0.1-0.4,0.4-0.5,0.6c-0.1,0.2-0.1,0.6,0.1,0.8c0.2,0.3,0.4,0.7,0.6,1.1
		c0.3,0.7,0.5,1.3,0.6,2c0.2,0.7,0.3,1.3,0.5,2c0.2,0.7,0.3,1.4,0.5,2.1c0.3,1.2,0.7,2.4,1.1,3.6c0.2,0.5,0.7,0.8,1.2,0.7
		c0.5-0.1,0.8-0.7,0.7-1.2c-0.4-1.3-0.7-2.6-1.1-3.9c-0.2-0.8-0.4-1.7-0.6-2.5c-0.2-0.8-0.4-1.7-0.7-2.5c-0.3-0.8-0.6-1.7-1.1-2.4
		c-0.2-0.2-0.3-0.4-0.6-0.5c-0.1,0-0.2,0-0.3,0C111.9,151.3,111.7,151.3,111.5,151.4L111.5,151.4z"/>
	<path class="st0" d="M135.2,145.7c-0.2,0-0.2,0.2-0.2,0.4c0.3,1.4,0.6,2.7,0.9,4.1c0.3,1.3,0.6,2.6,0.9,3.8c0,0.2,0.3,0.3,0.5,0.3
		c0.2-0.1,0.3-0.3,0.3-0.5c-0.4-1.3-0.7-2.5-1-3.8c-0.1-0.5-0.3-1.1-0.4-1.6c-0.2-0.8-0.4-1.7-0.6-2.5
		C135.6,145.8,135.4,145.7,135.2,145.7C135.3,145.7,135.3,145.7,135.2,145.7L135.2,145.7z"/>
	<path class="st0" d="M139.4,141.6c-0.3,0.1-0.4,0.4-0.4,0.7c0.4,1.9,0.8,3.9,1.3,5.8c0.4,1.6,0.7,3.3,1.1,4.9
		c0.1,0.3,0.4,0.5,0.7,0.4c0.3-0.1,0.5-0.4,0.4-0.7c-0.4-1.6-0.8-3.2-1.1-4.9c-0.4-1.9-0.9-3.8-1.3-5.8c-0.1-0.2-0.3-0.4-0.5-0.4
		C139.5,141.6,139.4,141.6,139.4,141.6L139.4,141.6z"/>
	<path class="st0" d="M144.5,139.8c-0.2,0.1-0.4,0.2-0.5,0.4c-0.1,0.2-0.1,0.4-0.1,0.6c0.3,1.8,0.5,3.6,0.8,5.4
		c0.2,1.4,0.5,2.8,0.8,4.2c0.1,0.4,0.5,0.6,0.9,0.5c0.2,0,0.3-0.2,0.4-0.3c0.1-0.2,0.1-0.4,0.1-0.5c-0.2-1.4-0.4-2.8-0.6-4.3
		c-0.3-1.8-0.5-3.6-0.8-5.4c0-0.2-0.2-0.4-0.4-0.5c-0.1-0.1-0.3-0.1-0.4-0.1C144.6,139.8,144.5,139.8,144.5,139.8L144.5,139.8z"/>
	<path class="st0" d="M149.9,137.3c-0.3,0.2-0.4,0.5-0.2,0.8c0.1,0.2,0.2,0.3,0.3,0.5c0.5,1.3,0.7,2.6,0.9,3.9
		c0.1,0.7,0.2,1.4,0.3,2.1c0-0.1,0-0.1,0-0.2c0,0.2,0,0.4,0.1,0.6c0,0.2,0.1,0.3,0.2,0.4c0.1,0.1,0.3,0.2,0.4,0.2
		c0.2,0,0.3-0.1,0.4-0.2c0.1-0.1,0.2-0.3,0.2-0.4c-0.1-0.9-0.2-1.9-0.4-2.8c-0.1-0.5-0.2-1-0.3-1.6c-0.1-0.6-0.2-1.1-0.4-1.6
		c-0.1-0.3-0.2-0.5-0.3-0.8c-0.1-0.3-0.2-0.5-0.4-0.8c-0.1-0.1-0.2-0.2-0.4-0.3c-0.1,0-0.1,0-0.2,0
		C150.1,137.2,150,137.3,149.9,137.3L149.9,137.3z"/>
	<path class="st0" d="M124.2,82.8c-0.2,2.3-0.3,4.5-0.5,6.8c-0.2,1.9-0.3,3.9-0.4,5.8c0,0.3,0.3,0.6,0.6,0.6c0.2,0,0.3-0.1,0.4-0.2
		c0.1-0.1,0.1-0.2,0.2-0.4c0.4-4.2,0.7-8.4,1-12.6c0-0.3-0.3-0.6-0.6-0.6C124.4,82.1,124.2,82.4,124.2,82.8L124.2,82.8z"/>
	<path class="st0" d="M127.3,84.5c-0.1,0.1-0.3,0.2-0.3,0.4c-0.1,0.4-0.1,0.8-0.2,1.2c0,0,0,0,0-0.1c-0.2,1.3-0.4,2.6-0.6,3.9
		c0,0.3-0.1,0.6-0.1,0.9c0,0.1,0,0.2-0.1,0.3c-0.1,0.5-0.2,1-0.3,1.6c-0.1,0.5-0.2,0.9-0.3,1.4c-0.1,0.6-0.3,1.1-0.4,1.7
		c-0.3,1-0.5,2.1-0.9,3.1c-0.1,0.3,0.1,0.7,0.4,0.7c0.3,0.1,0.6-0.1,0.7-0.4c0.3-1,0.6-2,0.9-3.1c0.1-0.6,0.3-1.1,0.4-1.7
		c0-0.1,0.1-0.3,0.1-0.5c0.1-0.4,0.2-0.7,0.2-1.1c0.1-0.3,0.1-0.7,0.2-1c0-0.1,0.1-0.3,0.1-0.4c0.1-0.5,0.2-1,0.2-1.5
		c0.1-0.7,0.2-1.4,0.3-2.1c0.1-0.8,0.2-1.7,0.3-2.5c0,0.1,0,0.1,0,0.2c0-0.1,0-0.1,0-0.2c0-0.2,0-0.3-0.1-0.5
		c-0.1-0.1-0.2-0.2-0.4-0.3c-0.1,0-0.1,0-0.2,0C127.5,84.4,127.4,84.4,127.3,84.5L127.3,84.5z"/>
	<path class="st0" d="M129,91.7c0,0.4,0.3,0.7,0.7,0.7c0.4,0,0.7-0.3,0.7-0.7c0-0.4-0.3-0.7-0.7-0.7C129.3,91,129,91.3,129,91.7
		L129,91.7z"/>
	<path class="st0" d="M23.9,35.2c-0.3,0.2-0.5,0.4-0.6,0.8c-0.4,0.9-0.7,1.9-1,2.8c-0.8,2.3-1.7,4.9-0.8,7.3
		c0.4,1.2,1.2,2.2,2.2,2.9c0.7,0.6,1.5,1,2.3,1.3c1.2,0.5,2.3,1,3.5,1.5c-0.1-0.1-0.3-0.1-0.4-0.2c1.5,0.6,3,1.3,4.3,2.3
		c0,0,0,0,0,0c-0.4,0.3-0.9,0.5-1.3,0.7c-1.2,0.6-2.4,1.1-3.5,1.8c-1.4,0.9-2.3,2.7-1.5,4.3c0.4,0.7,0.9,1.2,1.6,1.7
		c0.6,0.4,1.3,0.9,2,1.2c0.6,0.3,1.2,0.7,1.9,0.9c0.7,0.3,1.3,0.6,2,0.9c0.7,0.3,1.4,0.7,2.1,1c1.4,0.7,2.7,1.5,3.9,2.4
		c0.9,0.7,1.7,1.4,2.4,2.2c0.2,0.3,0.5,0.7,0.6,1c0,0.1,0.1,0.2,0.1,0.4c0,0.1,0,0.1,0,0.2c0,0.1,0,0.1-0.1,0.2
		c-0.1,0.2-0.3,0.5-0.4,0.7c-0.5,0.5-1,1-1.5,1.4c-0.4,0.4-0.9,0.8-1.3,1.2c-0.7,0.6-1.4,1.3-2.1,1.9c-0.6,0.6-1.2,1.2-1.8,1.8
		c-0.9,0.9-1.8,1.9-2.6,3c-0.7,1-1.4,2.1-1.6,3.3c-0.1,0.4-0.1,0.7-0.1,1.1c0,0.4,0.1,0.7,0.1,1.1c0,0.1,0.1,0.1,0.1,0.2
		c0.1,0.3,0.2,0.5,0.4,0.7c0.1,0.2,0.3,0.5,0.5,0.6c0.2,0.2,0.4,0.3,0.7,0.5c1,0.7,2.2,1.1,3.4,1.5c0.4,0.2,0.9,0.3,1.3,0.4
		c0.8,0.3,1.6,0.5,2.4,0.7c1.8,0.5,3.5,0.9,5.3,1.2c0.5,0.1,1,0.2,1.6,0.3c0.7,0.1,1.3,0.2,2,0.3c0,0.1-0.1,0.2-0.1,0.2
		c-0.5,1-1,2-1.6,3.1c-0.3,0.7-0.7,1.3-1,2c-1.3,2.4-2.6,4.9-3.9,7.3c-0.4,0.7-0.2,1.7,0.6,2.1c0.7,0.4,1.7,0.2,2.1-0.6
		c1.3-2.4,2.5-4.7,3.8-7.1c0.9-1.6,1.7-3.2,2.6-4.8c0.6-1.1,1.2-2.4,0.9-3.6c-0.1-0.6-0.5-1.2-1-1.6c-0.6-0.5-1.4-0.8-2.1-1
		c-1-0.3-2.1-0.6-3.1-0.9c-1.9-0.6-3.9-1.1-5.8-1.7c-1.5-0.5-3-1-4.5-1.6c0,0,0,0,0,0c0-0.1,0-0.1,0.1-0.2c0.3-0.6,0.6-1.2,1-1.7
		c1.1-1.4,2.2-2.6,3.4-3.9c0.6-0.7,1.3-1.3,1.9-2c1-1.1,2.1-2.3,2.7-3.7c0.2-0.6,0.4-1.1,0.5-1.7c0-0.5-0.1-1.1-0.2-1.6
		c-0.4-1.1-1.3-2.1-2.1-2.9c-0.9-0.8-1.9-1.5-2.9-2.2c-1-0.7-2-1.3-3.1-1.8c-0.9-0.4-1.7-0.8-2.6-1.2c-0.8-0.3-1.5-0.6-2.3-1
		c-1.3-0.6-2.7-1.2-3.9-2.1c-0.2-0.2-0.3-0.3-0.5-0.5c0,0.1,0.1,0.1,0.1,0.2c-0.1-0.1-0.2-0.2-0.3-0.4c0-0.1-0.1-0.3-0.1-0.4
		c0-0.1,0-0.1,0-0.2c0-0.1,0.1-0.3,0.1-0.4c0.1-0.1,0.1-0.2,0.2-0.3c0.2-0.2,0.3-0.3,0.5-0.5c0.8-0.5,1.7-0.9,2.5-1.3
		c0.5-0.2,1-0.4,1.5-0.6c-0.1,0-0.1,0-0.2,0.1c0.3-0.1,0.6-0.3,0.9-0.4c0.3-0.1,0.7-0.2,1-0.3c0.5-0.1,0.8-0.5,1.1-0.9
		c0.6-1-0.1-2.1-0.7-2.9c-0.3-0.3-0.7-0.6-1-0.9c-0.5-0.4-1-0.8-1.5-1.1c-1.2-0.9-2.6-1.5-4-2.2c-1.1-0.5-2.3-1-3.3-1.8
		c-0.2-0.2-0.4-0.4-0.6-0.6c-0.1-0.2-0.3-0.4-0.4-0.7c-0.1-0.3-0.2-0.6-0.2-0.9c0-0.5,0-0.9,0-1.4c0.2-1.2,0.5-2.4,0.8-3.7
		c0.2-0.7,0.3-1.4,0.5-2.1c0.2-0.7-0.2-1.4-0.9-1.6c-0.1,0-0.2,0-0.3,0C24.4,35,24.1,35,23.9,35.2L23.9,35.2z M29.3,58.2
		C29.3,58.2,29.3,58.2,29.3,58.2C29.3,58.2,29.3,58.2,29.3,58.2L29.3,58.2z M42.7,71.1c0,0,0.1,0.1,0.1,0.1
		C42.8,71.2,42.7,71.1,42.7,71.1L42.7,71.1z M43.5,73.3C43.5,73.3,43.4,73.3,43.5,73.3C43.4,73.3,43.5,73.3,43.5,73.3L43.5,73.3z
		 M50.2,95.1C50.2,95.1,50.2,95.1,50.2,95.1C50.2,95.1,50.2,95.2,50.2,95.1C50.2,95.2,50.2,95.1,50.2,95.1L50.2,95.1z"/>
	<path class="st0" d="M40.6,31.7c-0.2,0.2-0.2,0.5,0,0.6c1.4,1.3,2.7,2.6,3.9,3.9c1.1,1.2,2.1,2.5,3.6,3.1c0.5,0.2,1,0.3,1.6,0.3
		c0.6,0,1.1-0.2,1.7-0.4c1-0.4,1.9-1,2.9-1.4c0.6-0.2,1.1-0.5,1.8-0.6c0.2,0,0.3,0,0.5,0c0.1,0,0.2,0.1,0.3,0.1
		c-0.1,0-0.1-0.1-0.2-0.1c0.1,0,0.2,0.1,0.3,0.1c0,0,0,0,0,0c0.1,0.1,0.1,0.2,0.2,0.3c0.2,0.5,0.2,0.9,0.3,1.4
		c0.2,1.5,0.3,3,0.4,4.6c0.1,0.7,0.1,1.4,0.2,2.1c0.1,0.7,0.2,1.4,0.3,2c0.1,0.9,0.3,1.8,0.8,2.6c0.5,0.9,1.8,1.1,2.6,0.6
		c0.4-0.2,0.8-0.4,1.1-0.6c0.7-0.3,1.3-0.7,1.9-1.1c1.9-1.1,3.7-2.3,5.7-3.2c0.6-0.2,1.1-0.4,1.7-0.5c0.1,0,0.3,0,0.4,0
		c0.2,0,0.5,0.1,0.7,0.2c0.3,0.1,0.6,0.3,0.8,0.5c0.2,0.2,0.4,0.3,0.6,0.5c0.6,0.9,1.1,1.9,1.6,3c0.3,0.6,0.5,1.2,0.7,1.8
		c0.5,1.2,1,2.5,1.4,3.7c0.2,0.6,0.4,1.1,0.6,1.7c0.1,0.4,0.2,0.7,0.4,1.1c0.1,0.2,0.1,0.5,0.2,0.7c0.1,0.6,0.4,1.1,0.7,1.6
		c0.3,0.5,0.8,0.9,1.4,1.1c0.4,0.1,0.8,0.1,1.3,0c0.4-0.1,0.8-0.3,1.1-0.6c0.7-0.9,1.4-1.9,2.1-2.9c0.4-0.6,0.9-1.2,1.4-1.8
		c0.8-1.1,1.7-2.2,2.5-3.2c-0.1,0.1-0.1,0.2-0.2,0.3c0.5-0.6,0.9-1.1,1.3-1.7c0.8-1.1,1.7-2.1,2.8-3c0.1-0.1,0.2-0.1,0.3-0.2
		c0.9-0.5,1.2-1.8,0.7-2.7c-0.5-0.9-1.8-1.2-2.7-0.7c-0.5,0.3-1,0.7-1.5,1.1c-0.5,0.4-0.9,0.8-1.3,1.3c-0.9,1-1.6,2-2.5,3
		c-0.7,0.8-1.3,1.6-2,2.4c-0.5,0.6-1,1.2-1.5,1.7c-0.2-0.6-0.5-1.1-0.7-1.7c-0.7-1.6-1.4-3.2-2.2-4.8c-0.3-0.5-0.5-1-0.8-1.5
		c-0.3-0.5-0.6-0.9-0.9-1.3c-0.4-0.6-0.8-1.1-1.3-1.6c-0.9-0.8-2-1.4-3.2-1.7c-1.3-0.4-2.6-0.2-3.9,0.2c-1.9,0.7-3.6,1.8-5.3,3
		c-0.7,0.5-1.4,0.9-2.1,1.4c-0.8,0.6-1.6,1.1-2.4,1.7c-0.3-1-0.5-2-0.6-3c-0.1-0.6-0.2-1.2-0.2-1.7c-0.2-1.3-0.3-2.6-0.5-3.9
		c-0.1-0.4-0.1-0.8-0.2-1.2c-0.2-0.8-0.4-1.6-0.9-2.2c-0.5-0.6-1.2-0.8-2-0.8c-0.8-0.1-1.5,0.3-2.2,0.6c0,0,0,0,0,0
		c-0.7,0.3-1.3,0.6-1.9,1c-0.6,0.3-1.2,0.7-1.8,1c-0.2,0.1-0.4,0.1-0.6,0.2c-0.3,0-0.5,0-0.8,0c-0.2,0-0.4-0.1-0.6-0.2
		c-0.3-0.1-0.6-0.3-0.9-0.5c-0.7-0.6-1.4-1.3-2-1.9c-0.4-0.4-0.8-0.8-1.3-1.3c-1-0.9-2-1.8-3-2.7c-0.1-0.1-0.2-0.1-0.3-0.1
		C40.8,31.6,40.7,31.6,40.6,31.7L40.6,31.7z"/>
	<path class="st0" d="M28,39.1c-0.3,0.3-0.3,0.8,0,1.1c0.3,0.3,0.6,0.6,0.9,0.8c0.3,0.3,0.7,0.6,1.1,0.9c0.7,0.6,1.5,1.1,2.3,1.7
		c0.8,0.5,1.6,1,2.5,1.4c0.8,0.5,1.7,0.9,2.5,1.4c0.8,0.4,1.5,0.9,2.3,1.4c0.8,0.5,1.6,1.1,2.3,1.6c0.6,0.4,1.2,0.9,1.8,1.3
		c0.4,0.3,0.9,0.7,1.3,1c0,0,0.1,0.1,0.1,0.1c-0.1,0.1-0.3,0.2-0.4,0.4c0,0,0,0,0,0c-0.4,0.3-0.8,0.6-1.2,0.9c0,0,0,0,0,0
		c-1.3,1-2.6,2-3.7,3.2c-0.5,0.5-0.9,0.9-1.3,1.4c0,0.1-0.1,0.2-0.1,0.3c0,0.2-0.1,0.3-0.1,0.5c0,0.3,0.1,0.6,0.2,0.9
		c0.1,0.1,0.1,0.2,0.2,0.3c0.1,0.1,0.2,0.2,0.3,0.3c0.2,0.2,0.5,0.4,0.7,0.5c0.8,0.4,1.7,0.7,2.5,1c0.4,0.2,0.8,0.3,1.2,0.5
		c1.3,0.6,2.6,1.2,3.7,2c0,0-0.1-0.1-0.1-0.1c0,0,0.1,0.1,0.1,0.1c0,0,0,0,0,0c0,0,0,0,0,0c0.3,0.2,0.5,0.4,0.8,0.6
		c0.2,0.1,0.3,0.2,0.5,0.2c0.2,0,0.4-0.1,0.5-0.2c0.3-0.3,0.3-0.8,0-1.1c-0.4-0.4-0.8-0.8-1.2-1.1c-0.5-0.4-1-0.8-1.5-1.1
		c-0.6-0.4-1.2-0.6-1.7-0.9c-0.4-0.2-0.9-0.4-1.3-0.6c-0.6-0.3-1.3-0.5-1.9-0.7c-0.4-0.2-0.7-0.3-1.1-0.5c-0.1,0-0.1-0.1-0.2-0.2
		c0.1-0.1,0.1-0.2,0.2-0.3c0.4-0.4,0.7-0.9,1.1-1.3c0.3-0.3,0.6-0.7,1-1c0.8-0.7,1.6-1.4,2.4-2.1c0.2-0.2,0.4-0.4,0.7-0.6
		c0.2-0.2,0.5-0.4,0.7-0.6c0.1-0.1,0.2-0.2,0.2-0.4c0-0.1,0.1-0.2,0.1-0.3c0-0.1,0-0.2,0-0.3c-0.1-0.2-0.1-0.3-0.2-0.4
		c-0.1-0.1-0.2-0.2-0.3-0.3c-0.1-0.1-0.3-0.2-0.4-0.4c-0.3-0.2-0.5-0.4-0.8-0.6c-0.4-0.3-0.8-0.7-1.2-1c-0.8-0.7-1.7-1.3-2.6-2
		c-0.7-0.5-1.5-1-2.3-1.4c-0.8-0.5-1.6-1-2.5-1.4c-0.8-0.4-1.6-0.8-2.3-1.3c-0.8-0.5-1.5-1-2.3-1.5c-0.4-0.3-0.7-0.6-1.1-0.9
		c-0.2-0.2-0.4-0.4-0.6-0.6c-0.2-0.2-0.4-0.4-0.6-0.6c-0.1-0.1-0.3-0.2-0.5-0.2C28.3,38.9,28.1,39,28,39.1L28,39.1z M44.7,51.7
		C44.7,51.7,44.7,51.8,44.7,51.7C44.7,51.8,44.7,51.7,44.7,51.7L44.7,51.7z M43.2,53.2C43.2,53.2,43.2,53.2,43.2,53.2
		C43.2,53.2,43.2,53.2,43.2,53.2L43.2,53.2z M40,58.3c0,0,0,0.1,0,0.1C39.9,58.4,39.9,58.4,40,58.3L40,58.3z M39.9,58.4
		C39.9,58.4,39.9,58.4,39.9,58.4C39.9,58.4,39.9,58.4,39.9,58.4L39.9,58.4z M40,58.6C40,58.6,40,58.6,40,58.6
		C40,58.6,40,58.6,40,58.6L40,58.6z M47,64.2C47,64.2,47,64.2,47,64.2C47,64.2,47,64.2,47,64.2C47,64.2,47,64.2,47,64.2L47,64.2z"/>
	<path class="st0" d="M52.8,70.7c-0.8,1.5-1.6,2.9-2.4,4.4c-0.4,0.7-0.7,1.3-1.1,2c-0.1,0.3-0.3,0.5-0.4,0.8
		c-0.3,0.6-0.6,1.2-0.9,1.7c-0.4,0.8-0.7,1.5-1,2.3c0,0.1-0.1,0.3-0.1,0.4c0,0.2-0.1,0.3-0.1,0.5c0,0.1,0,0.3,0,0.4
		c0,0.1,0,0.3,0.1,0.4c0.1,0.2,0.4,0.4,0.7,0.5c0.1,0.1,0.3,0.1,0.4,0.1c0.2,0,0.5,0.1,0.7,0.1c0.3,0,0.5,0,0.8,0.1
		c0.1,0,0.2,0,0.3,0c0.4,0,0.7,0.1,1,0.1c0,0,0,0,0,0c0.2,0,0.4,0.1,0.5,0.1c0.3,0.1,0.6,0.1,0.9,0.2c0.1,0,0.3,0.1,0.4,0.1
		c0.3,0.1,0.7,0.2,1,0.3c0.5,0.1,0.9,0.3,1.3,0.5c0.4,0.1,0.8,0.3,1.3,0.5c-0.1,0-0.1,0-0.2-0.1c0.5,0.2,0.9,0.5,1.4,0.7
		c0.4,0.2,0.8,0.1,1-0.3c0.1-0.2,0.1-0.4,0.1-0.6c0-0.2-0.2-0.4-0.3-0.4c-0.5-0.2-1-0.4-1.5-0.7c-0.3-0.1-0.7-0.2-1.1-0.4
		c-0.4-0.1-0.7-0.2-1.1-0.3c-0.3-0.1-0.6-0.2-0.9-0.2C53.5,84.1,53.3,84,53,84c-0.1,0-0.2-0.1-0.3-0.1c-0.5-0.1-0.9-0.1-1.4-0.2
		c-0.9-0.1-1.8-0.2-2.7-0.3c-0.2,0-0.3-0.1-0.5-0.1c0,0,0,0,0,0c0,0,0,0,0,0c0.1-0.3,0.1-0.5,0.2-0.7c0.1-0.2,0.1-0.3,0.2-0.5
		c0,0.1,0,0.1-0.1,0.2c0.4-1,1-2,1.5-2.9c0.3-0.5,0.5-1,0.8-1.5c1.1-2.1,2.3-4.2,3.4-6.3c0.2-0.4,0.1-0.8-0.3-1
		c-0.1-0.1-0.2-0.1-0.4-0.1C53.2,70.3,52.9,70.5,52.8,70.7L52.8,70.7z M48,83.1C48,83.2,48,83.2,48,83.1C48,83.2,48,83.2,48,83.1
		L48,83.1z M48.1,83.3C48.1,83.3,48.1,83.3,48.1,83.3C48.1,83.3,48.1,83.3,48.1,83.3L48.1,83.3z"/>
	<path class="st0" d="M70.1,54.5c-0.4,0.1-0.8,0.2-1.2,0.4c-0.4,0.2-0.8,0.4-1.2,0.7c-0.7,0.4-1.3,0.8-2,1.2
		c-0.6,0.4-1.1,0.7-1.7,1.1c-1.3,0.8-2.6,1.6-3.9,2.3c-0.4,0.2-0.5,0.8-0.3,1.2c0.2,0.4,0.8,0.5,1.2,0.3c1.3-0.6,2.5-1.3,3.8-2
		c0.5-0.3,1.1-0.6,1.6-1c0.4-0.2,0.7-0.5,1.1-0.7c0.7-0.4,1.4-0.9,2.2-1.2c0.2-0.1,0.3-0.1,0.5-0.2c0,0,0,0,0,0.1
		c0.2,0.6,0.4,1.2,0.6,1.8c0.1,0.4,0.3,0.8,0.4,1.3c0.3,1,0.7,2,1,3c0.3,0.9,0.6,1.8,1,2.7c0.3,0.7,0.6,1.4,0.9,2.1
		c0.1,0.2,0.2,0.5,0.3,0.7c0.2,0.5,0.4,0.9,0.7,1.4c0.3,0.5,1,0.7,1.5,0.4c0.2-0.1,0.4-0.4,0.5-0.7c0.1-0.3,0-0.6-0.1-0.8
		c-0.2-0.3-0.3-0.6-0.5-1c-0.4-1.1-0.9-2.1-1.3-3.2c-0.1-0.3-0.2-0.6-0.3-0.9c-0.2-0.7-0.5-1.4-0.8-2.2c-0.3-1-0.7-2-1-3
		c-0.2-0.5-0.4-1-0.5-1.5c-0.1-0.4-0.3-0.8-0.5-1.3c-0.1-0.3-0.4-0.5-0.6-0.7c-0.2-0.1-0.4-0.3-0.6-0.3c-0.1,0-0.3,0-0.4-0.1
		C70.4,54.4,70.3,54.4,70.1,54.5L70.1,54.5z"/>
	<path class="st0" d="M50.2,45.2c-0.2,0.1-0.5,0.2-0.6,0.5c-0.1,0.2-0.2,0.5-0.1,0.8c0.3,0.7,0.5,1.3,0.8,2c0,0,0-0.1,0-0.1
		c0.2,0.5,0.4,1.1,0.7,1.6c0.3,0.6,0.5,1.2,0.8,1.7c0.2,0.5,0.5,0.9,0.7,1.3c0.4,0.8,0.8,1.6,1.2,2.4c0.3,0.5,1,0.7,1.4,0.4
		c0.5-0.3,0.6-0.9,0.4-1.4c-0.8-1.5-1.6-2.9-2.3-4.4c-0.7-1.4-1.3-2.8-1.9-4.2c-0.1-0.3-0.5-0.5-0.9-0.5
		C50.4,45.2,50.3,45.2,50.2,45.2L50.2,45.2z M50.3,48.4c0-0.1,0-0.1-0.1-0.2C50.3,48.3,50.3,48.3,50.3,48.4L50.3,48.4z"/>
	<path class="st0" d="M42.4,137.3c-0.3,0.3-0.4,0.7-0.5,1.1c-0.2,1.5-0.2,2.9,0,4.4c0.2,1.6,0.6,3.1,1.1,4.6c0.5,1.4,1,2.8,1.6,4.2
		c0.2,0.5,1,0.8,1.5,0.6c0.7-0.2,1.1-0.9,0.9-1.6c-0.3-0.9-0.5-1.8-0.7-2.7c-0.5-1.7-1-3.5-1.3-5.3c-0.1-1.4-0.1-2.8,0-4.2
		c0-0.4-0.2-0.9-0.5-1.1c-0.3-0.3-0.7-0.5-1.1-0.5C43.1,136.8,42.7,137,42.4,137.3L42.4,137.3z"/>
	<path class="st0" d="M37.6,139.5c-0.4,0.1-0.8,0.4-1,0.8c-0.2,0.4-0.2,0.8-0.2,1.3c0.3,2.1,0.7,4.2,1.5,6.2
		c0.5,1.3,1.1,2.6,1.7,3.9c0.7,1.5,1.5,2.9,2.3,4.4c0.4,0.7,1.4,1,2.1,0.6c0.8-0.4,1-1.4,0.6-2.1c-0.5-1-1.1-2.1-1.6-3.1
		c-0.5-1.1-1.1-2.3-1.6-3.4c-0.5-1.1-0.8-2.3-1.1-3.5c-0.3-1.2-0.5-2.5-0.7-3.7c-0.1-0.4-0.4-0.8-0.8-1c-0.3-0.1-0.5-0.2-0.8-0.2
		C37.9,139.4,37.7,139.4,37.6,139.5L37.6,139.5z"/>
	<path class="st0" d="M166.1,62.1c-0.5,0.8-0.2,2,0.6,2.4c0.4,0.2,0.8,0.5,1.1,0.7c0.5,0.4,1,0.9,1.5,1.5c0.5,0.7,1,1.5,1.4,2.3
		c0.5,1.3,0.9,2.6,1.3,4c0.2,0.8,0.5,1.6,0.7,2.5c0.2,0.9,1.3,1.5,2.2,1.2c1-0.3,1.4-1.2,1.2-2.2c-0.4-1.8-0.9-3.6-1.5-5.3
		c-0.3-0.8-0.6-1.5-0.9-2.2c-0.3-0.7-0.8-1.4-1.3-2.1c-1.1-1.4-2.4-2.6-3.9-3.5c-0.3-0.2-0.6-0.2-0.9-0.2
		C167,61.2,166.4,61.5,166.1,62.1L166.1,62.1z"/>
	<path class="st0" d="M174,59.3c-0.9,0.3-1.6,1.3-1.3,2.3c0.8,2.2,1.5,4.5,2.3,6.7c0.6,1.8,1.1,3.6,1.5,5.4c0.2,1,1.3,1.5,2.2,1.3
		c1-0.3,1.5-1.3,1.3-2.2c-0.2-1-0.5-2-0.7-2.9c-0.2-0.8-0.5-1.6-0.8-2.4c-0.3-0.9-0.6-1.9-1-2.8c-0.4-1.3-0.9-2.6-1.3-3.9
		c-0.3-0.8-1-1.4-1.8-1.4C174.4,59.2,174.2,59.2,174,59.3L174,59.3z"/>
</g>
</svg>
