<?xml version="1.0" encoding="utf-8"?>
<!-- Generator: Adobe Illustrator 23.0.6, SVG Export Plug-In . SVG Version: 6.00 Build 0)  -->
<svg version="1.1" id="Layer_1" xmlns="http://www.w3.org/2000/svg" xmlns:xlink="http://www.w3.org/1999/xlink" x="0px" y="0px"
	 viewBox="0 0 200 200" style="enable-background:new 0 0 200 200;" xml:space="preserve">
<style type="text/css">
	.st0{fill:#1A1A1A;}
</style>
<g>
	<path class="st0" d="M44.9,58.2c-0.5,0-1,0.1-1.5,0.2c-0.2,0-0.4,0.1-0.6,0.1c-0.4,0.1-0.8,0.2-1.2,0.4c-1,0.4-1.9,0.9-2.8,1.5
		c-0.8,0.5-1.5,1.1-2.2,1.8c0,0-0.1,0.1-0.1,0.1c-0.4,0.3-0.9,0.7-1.3,1c-1.4,1.2-2.7,2.5-3.7,4.1c-1,1.6-1.5,3.5-1.9,5.3
		c-0.4,1.9-0.6,3.9-0.4,5.9c0.2,1.9,0.8,3.7,1.8,5.3c1,1.6,2.3,3,3.8,4.2c0.7,0.6,1.4,1.1,2.2,1.6c0.9,0.5,1.9,0.9,2.9,1.2
		c1.9,0.6,4.1,0.6,6.1,0c0.9-0.3,1.8-0.7,2.6-1.2c0.4-0.2,0.8-0.5,1.1-0.8c0.5-0.3,0.9-0.7,1.3-1.1c1.6-1.6,2.4-3.8,3.4-5.8
		c0.4-1,0.9-2,1.2-3c0.3-1.1,0.5-2.2,0.7-3.3c0.1-0.7,0.2-1.4,0.3-2c0.1-0.8,0.2-1.5,0.2-2.3c0-0.5,0-1,0-1.5c0-0.6-0.1-1.3-0.1-1.9
		c-0.1-0.7-0.1-1.3-0.3-2c-0.1-0.4-0.2-0.7-0.4-1.1c-0.2-0.5-0.5-1.1-0.8-1.6c-0.4-0.7-0.9-1.4-1.5-2c-0.1-0.1-0.3-0.3-0.4-0.4
		c-0.3-0.3-0.7-0.6-1.1-0.9c-1.2-0.9-2.7-1.3-4.1-1.5c-0.8-0.1-1.5-0.2-2.3-0.2c-0.1,0-0.1,0-0.2,0C45.4,58.2,45.1,58.2,44.9,58.2
		L44.9,58.2z M46.2,61.6c0.6,0,1.1,0,1.7,0.1c0.6,0.1,1.2,0.2,1.8,0.5c0.4,0.2,0.7,0.4,1,0.6c0.5,0.4,1,0.9,1.5,1.5
		c0.5,0.6,0.9,1.3,1.2,2.1c0.3,0.7,0.4,1.4,0.5,2.2c0.1,0.7,0.1,1.4,0.2,2.1c0.1,0.8,0.1,1.5,0,2.3c0,0.3-0.1,0.7-0.1,1
		c-0.1,0.5-0.1,1-0.2,1.6c-0.2,1.2-0.4,2.4-0.9,3.6c-0.4,0.9-0.8,1.8-1.3,2.7c-0.5,1.1-1,2.2-1.7,3.1c-0.4,0.5-0.8,0.9-1.3,1.3
		c-0.8,0.6-1.7,1.1-2.6,1.6c-0.7,0.3-1.4,0.5-2.1,0.6c-0.8,0.1-1.6,0.1-2.5,0c-0.3-0.1-0.7-0.1-1-0.2c0-0.5-0.3-0.9-0.7-1.1
		c-0.8-0.4-1.5-0.8-2.2-1.3c-0.6-0.5-1.3-1-1.8-1.7c-0.3-0.4-0.6-0.8-0.8-1.3c-0.3-0.4-0.5-0.9-0.7-1.4c0-0.1-0.1-0.2-0.1-0.4
		c-0.3-0.6-0.4-1.3-0.5-2c-0.1-0.8-0.1-1.7-0.1-2.5c0-0.7,0.1-1.5,0.2-2.2c0.1-0.9,0.3-1.8,0.6-2.6c0.2-0.5,0.4-1,0.6-1.4
		c0.3-0.6,0.6-1.2,0.9-1.8c0.3-0.5,0.6-0.9,0.9-1.4c0.5-0.5,0.9-1.1,1.4-1.5c0.6-0.6,1.2-1.1,1.9-1.7c0.2-0.1,0.3-0.2,0.5-0.4
		c0.7-0.5,1.5-1,2.3-1.4c0.5-0.2,0.9-0.3,1.4-0.4c0.2,0,0.4-0.1,0.5-0.1C45.1,61.7,45.6,61.6,46.2,61.6L46.2,61.6z M53.9,68.7
		c0,0.1,0,0.2,0,0.2C53.9,68.8,53.9,68.7,53.9,68.7L53.9,68.7z M34.8,70c0,0.1-0.1,0.2-0.1,0.2C34.8,70.1,34.8,70.1,34.8,70L34.8,70
		z M45.9,87.8c-0.1,0-0.1,0.1-0.2,0.1C45.8,87.8,45.8,87.8,45.9,87.8L45.9,87.8z"/>
	<path class="st0" d="M100.9,25c-0.6,0.1-1.2,0.2-1.7,0.3c-0.3,0.1-0.6,0.2-0.9,0.3c-0.5,0.1-1,0.2-1.5,0.3c-2.1,0.6-4,1.8-5.6,3.2
		c-1.7,1.5-3.1,3.5-4.2,5.5c-1.1,2-2,4.2-2.5,6.4c-0.5,2.4-0.2,4.9,0.4,7.2c0.3,1.1,0.7,2.2,1.2,3.2c0.5,1.1,1.3,2.1,2,3
		c0.7,0.9,1.7,1.6,2.6,2.2c1,0.7,2.2,1.3,3.3,1.8c1.1,0.4,2.1,0.7,3.3,1c1.3,0.3,2.6,0.4,4,0.5c1.1,0,2.3-0.1,3.4-0.3
		c1.2-0.2,2.4-0.7,3.5-1.2c1-0.5,1.9-1.2,2.7-1.9c0.9-0.7,1.6-1.6,2.4-2.5c0.7-0.9,1.4-1.8,2-2.8c0.6-1.1,1.1-2.2,1.5-3.4
		c0.3-0.9,0.5-1.9,0.7-2.9c0.1-0.4,0.2-0.9,0.2-1.3c0.1-0.6,0.1-1.2,0.2-1.7c0.2-1.8-0.2-3.6-0.7-5.3c-0.3-0.9-0.7-1.8-1.2-2.6
		c-0.3-0.5-0.7-1-1.1-1.5c-0.5-0.6-1-1.2-1.4-1.8c-1.1-1.3-2.3-2.3-3.6-3.2c-1.3-0.9-2.7-1.7-4.2-2.1c-0.7-0.2-1.5-0.3-2.3-0.4
		c-0.2,0-0.5,0-0.7,0C102,24.9,101.5,25,100.9,25L100.9,25z M102.7,28.4c0.7,0.1,1.3,0.3,1.9,0.5c0.4,0.2,0.7,0.3,1.1,0.6
		c0.4,0.3,0.9,0.6,1.3,0.8c0.5,0.4,0.9,0.7,1.4,1.1c0.5,0.5,1,1,1.5,1.6c0.8,0.9,1.6,1.9,2.4,2.9c0.4,0.5,0.7,1,0.9,1.6
		c0.4,1,0.7,1.9,0.9,2.9c0.1,0.8,0,1.7-0.1,2.5c-0.3,1.8-0.6,3.5-1.2,5.2c-0.2,0.5-0.5,1-0.7,1.5c-0.3,0.6-0.7,1.1-1.1,1.6
		c-0.8,1.1-1.8,2-2.8,2.9c-0.6,0.4-1.2,0.8-1.9,1.1c-0.9,0.3-1.7,0.6-2.7,0.7c-1.2,0.1-2.4,0.1-3.6,0c-1.6-0.2-3.1-0.6-4.6-1.2
		c-1.2-0.6-2.4-1.2-3.5-2c-0.7-0.6-1.3-1.2-1.9-1.9c-0.6-0.8-1-1.6-1.4-2.5c-0.5-1.3-0.9-2.7-1.2-4.1c-0.1-0.8-0.1-1.6,0-2.4
		c0.2-1.6,0.7-3.2,1.3-4.7c0.6-1.3,1.2-2.5,2-3.7c0.1,0.1,0.3,0.1,0.4,0.1c0.4,0,0.6-0.1,0.9-0.4c0.8-0.7,1.6-1.3,2.4-2
		c1.1-0.8,2.3-1.5,3.6-2.1c0.7-0.3,1.3-0.5,2-0.6C101,28.4,101.9,28.4,102.7,28.4L102.7,28.4z M87.4,43.8c0,0.1,0,0.2,0,0.2
		C87.4,44,87.4,43.9,87.4,43.8L87.4,43.8z"/>
	<path class="st0" d="M154.7,53.4c-1.1,0.2-2.1,0.7-3,1.2c-1.1,0.6-2,1.3-2.9,2.2c-0.8,0.8-1.5,1.7-2.2,2.6c-0.7,1-1.4,2.1-2,3.2
		c-0.5,1-1,2-1.3,3.1c-0.4,1.2-0.6,2.5-0.8,3.8c-0.1,0.5-0.1,1.1-0.1,1.6c0,0.6,0.2,1.2,0.3,1.8c0.3,1.2,0.8,2.5,1.5,3.5
		c0.6,1,1.5,1.9,2.3,2.7c1,0.9,2,1.7,3,2.4c1,0.7,2,1.2,3.1,1.6c1.2,0.4,2.5,0.6,3.8,0.6c1.2,0,2.4-0.2,3.6-0.3
		c1.3-0.2,2.6-0.5,3.7-1.3c1.7-1.1,2.9-2.6,4.1-4.2c0.4-0.6,0.8-1.1,1.2-1.7c0.5-0.8,0.8-1.8,1.1-2.7c0.6-1.6,1-3.3,1.3-5
		c0.2-1.1,0.3-2.2,0.2-3.2c-0.1-0.6-0.1-1.1-0.2-1.7c-0.1-0.4-0.1-0.8-0.2-1.3c-0.2-1-0.6-1.9-1.2-2.8c-0.5-0.8-1.1-1.6-1.8-2.2
		c-0.6-0.6-1.2-1.1-1.9-1.5c-0.4-0.3-0.9-0.5-1.4-0.7c-0.4-0.2-0.8-0.3-1.1-0.5c-1-0.4-2-0.6-3.1-0.8c-0.3,0-0.6-0.1-0.8-0.1
		c0,0,0,0,0,0c-0.5-0.2-1-0.4-1.5-0.5c-0.7-0.1-1.3-0.2-2-0.2C155.9,53.2,155.3,53.3,154.7,53.4L154.7,53.4z M153.1,56.9
		c1.2-0.1,2.4-0.1,3.6-0.2c1.2,0,2.3,0.1,3.5,0.2c0.8,0.1,1.6,0.3,2.4,0.6c0.8,0.4,1.6,0.8,2.3,1.3c0.5,0.4,1,1,1.4,1.5
		c0.4,0.6,0.8,1.2,1.2,1.9c0.3,0.8,0.4,1.7,0.6,2.5c0.1,0.8,0.1,1.6,0.1,2.4c-0.2,1.1-0.5,2.2-0.7,3.2c-0.2,1-0.6,2-1,2.9
		c-0.3,0.6-0.6,1.2-1,1.7c-0.9,1.1-1.8,2.1-2.8,3c-0.4,0.3-0.9,0.6-1.3,0.8c-0.7,0.2-1.4,0.4-2.1,0.5c-0.3,0-0.5,0.1-0.8,0.1
		c-1.1,0.1-2.2,0.2-3.3,0.1c-0.7-0.1-1.3-0.3-1.9-0.5c-1.3-0.6-2.4-1.4-3.6-2.2c-0.9-0.7-1.8-1.4-2.5-2.3c-0.4-0.5-0.7-1.1-0.9-1.6
		c-0.3-0.7-0.5-1.4-0.7-2.1c-0.1-0.8,0-1.6,0.1-2.5c0.2-1.3,0.5-2.5,1-3.8c0.8-1.7,1.7-3.4,2.8-4.9c0.7-0.9,1.5-1.7,2.3-2.4
		c0.2-0.2,0.5-0.3,0.7-0.5C152.7,56.9,152.9,56.9,153.1,56.9C153.1,56.9,153.1,56.9,153.1,56.9L153.1,56.9z M159.5,79.3
		c-0.1,0-0.2,0-0.3,0C159.3,79.4,159.4,79.4,159.5,79.3L159.5,79.3z M159.1,79.4c-0.1,0-0.1,0-0.2,0C159,79.4,159.1,79.4,159.1,79.4
		L159.1,79.4z"/>
	<path class="st0" d="M36.9,87.7c-0.1,2.3-0.2,4.6-0.3,6.9c0,0.8,0,1.5,0,2.3c0,1.3,0,2.5-0.1,3.8c0,1.8,0,3.7-0.1,5.5
		c0,1.7,0,3.3,0,5c0,2,0,3.9,0,5.9c0,1.8,0.1,3.6,0.2,5.3c0,0.9,0.1,1.7,0.1,2.6c0,0.9,0.1,1.8,0.2,2.7c0.1,1,0.1,2,0.3,3
		c0.1,1,0.3,2.1,0.4,3.1c0.4,3.5,0.8,7,1,10.5c0.2,3.7,0.4,7.4,0.5,11.2c0,1.1,0,2.3,0.1,3.4c0,0.5,0,1,0.1,1.6
		c0.1,0.6,0.1,1.3,0.2,1.9c0.1,0.6,0.2,1.2,0.3,1.8c0.1,0.5,0.2,1,0.3,1.6c0.3,1.2,0.5,2.3,0.8,3.5c0.3,1,1.3,1.6,2.4,1.3
		c0.5-0.1,0.9-0.5,1.1-0.9c0.1-0.2,0.1-0.3,0.2-0.5c0.1-0.3,0.1-0.7,0-1c0-0.1,0-0.3-0.1-0.4c-0.2-1.7-0.4-3.4-0.6-5.1
		c-0.1-0.8-0.1-1.6-0.1-2.4c0-0.9,0-1.8,0-2.7c-0.1-3.8-0.2-7.5-0.6-11.3c-0.4-3.3-0.8-6.6-1.4-9.9c-0.3-1.6-0.6-3.2-0.9-4.7
		c-0.3-1.5-0.5-2.9-0.7-4.4c-0.4-3.7-0.8-7.4-1-11.1c-0.2-3.6-0.3-7.2-0.3-10.7c0-1.4,0-2.8,0-4.3c0-1.6,0-3.1,0.1-4.7
		c0-3,0.2-5.9,0.3-8.9c0-0.6-0.5-1.1-1.1-1.1C37.4,86.6,36.9,87.1,36.9,87.7L36.9,87.7z"/>
	<path class="st0" d="M93.8,57.8c-0.5,1-0.9,2.1-1.3,3.1c-0.3,0.9-0.7,1.8-1,2.7c-0.7,1.8-1.3,3.7-2,5.5c-0.8,2-1.5,3.9-2.2,5.9
		c-0.6,1.8-1.3,3.5-1.9,5.3c-0.7,1.8-1.3,3.6-1.9,5.3c-0.6,1.8-1.3,3.7-2.1,5.5c-1,2.4-2.1,4.8-3.1,7.2c0.1-0.1,0.1-0.3,0.2-0.4
		c-0.5,1.2-1,2.5-1.6,3.7c-0.6,1.3-1.3,2.7-1.9,4c-0.5,1.1-1,2.1-1.6,3.2c-0.4,0.8-0.8,1.5-1.1,2.3c-0.4,0.8-0.8,1.6-1.2,2.4
		c0,0-0.1-0.1-0.1-0.1c-0.1-0.2-0.3-0.3-0.4-0.5c-1.1-1.5-2.2-3.1-3.2-4.7c-1.1-1.9-2.2-3.8-3.3-5.7c-1-1.7-2-3.4-3-5.2
		c-0.4-0.8-0.8-1.5-1.2-2.3c-0.6-1.2-1.2-2.4-1.7-3.7c0-0.1-0.1-0.2-0.1-0.2c-0.7-1.8-1.4-3.6-2.2-5.3c-0.2-0.5-0.4-0.9-0.9-1.2
		c-0.5-0.3-1-0.3-1.5-0.2c-0.5,0.1-0.9,0.5-1.2,0.9c-0.2,0.4-0.4,1-0.2,1.5c0.5,1.4,1.1,2.7,1.6,4.1c0.4,0.9,0.7,1.8,1.1,2.6
		c0.6,1.2,1.1,2.4,1.7,3.7c0.4,0.8,0.8,1.6,1.3,2.4c0.9,1.7,1.9,3.4,2.8,5.2c1,1.9,2,3.9,3,5.8c0.9,1.7,1.8,3.3,2.8,5
		c0.3,0.4,0.5,0.9,0.8,1.3c0.3,0.5,0.7,0.9,1.1,1.3c0.4,0.3,0.8,0.7,1.3,0.8c0.6,0.2,1.3,0.3,1.9,0.1c0.4-0.1,0.7-0.3,1.1-0.5
		c0.3-0.2,0.6-0.5,0.9-0.7c0.5-0.5,0.8-1.1,1.1-1.7c0.5-1.1,1-2.2,1.5-3.3c1.6-3.8,3.1-7.6,4.5-11.5c0.7-2,1.4-3.9,2-5.9
		c0.7-1.9,1.4-3.8,2-5.7c0.7-2.1,1.3-4.1,2-6.2c0.6-1.9,1.4-3.7,2.1-5.5c0.7-1.8,1.4-3.7,2.2-5.5c0.9-2.2,1.9-4.3,2.8-6.5
		c0,0.1,0,0.1-0.1,0.2c0.5-1.2,1-2.4,1.5-3.6c0.5-1.2,1-2.4,1.5-3.6c0.3-0.7-0.2-1.5-0.8-1.9c-0.3-0.1-0.5-0.2-0.8-0.2
		C94.6,57,94,57.3,93.8,57.8L93.8,57.8z M81.5,90.9c0,0.1,0,0.1-0.1,0.2C81.4,91,81.5,90.9,81.5,90.9L81.5,90.9z"/>
	<path class="st0" d="M105.9,58c-0.4,0.1-0.8,0.4-1,0.8c-0.2,0.4-0.3,0.9-0.2,1.3c0.8,1.8,1.5,3.7,2.3,5.6c0.5,1.1,0.9,2.3,1.4,3.4
		c0.3,0.7,0.6,1.5,0.9,2.2c0.8,1.7,1.6,3.5,2.4,5.2c0.8,1.8,1.7,3.5,2.5,5.3c1,2.2,1.9,4.3,2.8,6.5c1.3,3.1,2.6,6.2,3.9,9.3
		c1.4,3.2,2.7,6.5,3.8,9.8c0.6,1.8,1.2,3.6,1.8,5.4c0.3,1,0.6,2,1.2,2.8c0.1,0.2,0.3,0.5,0.5,0.6c0.1,0.1,0.3,0.2,0.4,0.3
		c0.3,0.2,0.7,0.3,1.1,0.3c0.8,0.1,1.5-0.3,2.1-0.8c0.5-0.4,0.9-1,1.3-1.5c0.4-0.5,0.7-0.9,1-1.4c0.5-0.8,1-1.6,1.5-2.4
		c0.5-0.9,1-1.7,1.4-2.6c0.9-1.6,1.7-3.2,2.6-4.7c0.5-0.8,1-1.7,1.5-2.5c0.4-0.7,0.9-1.4,1.4-2.1c0.5-0.8,1-1.7,1.5-2.5
		c0.4-0.7,0.8-1.4,1.2-2.2c1.1-1.9,2.2-3.8,3.1-5.8c0.5-1,0.9-2,1.4-2.9c0.5-1,1-2,1.6-2.9c0.4-0.6,0.1-1.4-0.5-1.8
		c-0.3-0.2-0.7-0.2-1-0.1c-0.4,0.1-0.6,0.3-0.8,0.6c-1.1,1.4-1.8,3.1-2.6,4.6c-0.4,0.8-0.8,1.6-1.3,2.4c-0.4,0.7-0.9,1.4-1.3,2.1
		c-0.5,0.9-1.1,1.7-1.6,2.6c-0.4,0.7-0.8,1.4-1.3,2.1c-1,1.5-2.2,3-3.2,4.5c-1.3,1.9-2.5,3.9-3.7,5.9c-1.2,2-2.3,4.1-3.7,6
		c-0.4-1.1-0.8-2.3-1.2-3.4c-0.6-1.7-1.2-3.3-1.8-4.9c-1.4-3.5-2.9-6.9-4.4-10.4c-1.5-3.4-2.9-6.8-4.5-10.2
		c-1.6-3.4-3.3-6.8-4.8-10.2c-0.6-1.2-1.2-2.4-1.7-3.7c-0.6-1.4-1.2-2.8-1.8-4.3c-0.7-1.7-1.4-3.4-2.1-5.1c-0.2-0.4-0.4-0.8-0.8-1
		c-0.3-0.2-0.6-0.2-0.9-0.2C106.2,57.9,106,57.9,105.9,58L105.9,58z M120.9,97.5C120.9,97.5,120.9,97.5,120.9,97.5
		C120.9,97.5,120.9,97.5,120.9,97.5L120.9,97.5z"/>
	<path class="st0" d="M159.9,81.7c-0.3,0.2-0.6,0.5-0.7,0.8c-0.4,2.7-0.7,5.5-1,8.3c-0.2,2.2-0.4,4.3-0.5,6.5
		c-0.3,4.6-0.6,9.2-0.8,13.8c-0.2,4.7-0.4,9.4-0.5,14c-0.1,4.5-0.2,9.1-0.3,13.6c-0.1,2.3-0.1,4.6-0.2,6.9c-0.1,2.1-0.2,4.3-0.1,6.4
		c0,2.1,0.1,4.2,0.2,6.3c0.1,2.4,0.1,4.8,0.2,7.1c0,1.5,1.2,2.8,2.8,2.8c1.5,0,2.8-1.3,2.8-2.8c0-2.4-0.1-4.8-0.1-7.2
		c-0.1-2.1-0.4-4.2-0.6-6.3c-0.4-4.7-0.5-9.5-0.7-14.2c-0.3-9.2-0.5-18.4-0.3-27.6c0.2-8.6,0.7-17.2,1.9-25.8c0-0.4,0.1-0.7,0.1-1.1
		c0.1-0.4,0.1-0.7-0.1-1.1c-0.2-0.3-0.5-0.6-0.8-0.7c-0.1,0-0.2-0.1-0.4-0.1C160.4,81.5,160.1,81.6,159.9,81.7L159.9,81.7z
		 M161.9,84.5c0,0,0,0.1,0,0.1C161.8,84.6,161.8,84.6,161.9,84.5L161.9,84.5z"/>
	<path class="st0" d="M41.2,163.2c-1,0.3-1.4,1.2-1.2,2.1c0.1,0.8,0.3,1.5,0.7,2.2c0.4,0.8,1,1.4,1.7,1.9c1.5,1.1,3.3,1.8,5.1,2.2
		c1.4,0.3,2.8,0.5,4.2,0.7c0.7,0.1,1.5,0.2,2.2,0.2c1.4,0,2.9,0.1,4.3,0.1c1.6,0,3.1,0,4.7-0.1c5.6-0.1,11.2,0.1,16.8,0.3
		c2.7,0.1,5.4,0.1,8.1,0.2c2.9,0.1,5.8,0.3,8.7,0.4c5.5,0.3,11.1,0.3,16.6,0.4c2.7,0,5.3,0.2,8,0.3c2.9,0.1,5.8,0.2,8.7,0.3
		c2.7,0,5.4,0,8,0.1c1.3,0,2.6,0,3.9,0c1.3,0,2.5-0.1,3.8-0.2c1.3-0.1,2.5-0.3,3.8-0.5c1.3-0.3,2.5-0.8,3.6-1.3
		c1.2-0.5,2.3-1.1,3.2-1.9c0.9-0.8,1.7-1.7,2.6-2.6c0.8-0.8,1-2,0.4-3c-0.6-1.1-2.3-1.7-3.4-0.9c-1.2,0.8-2.3,1.7-3.6,2.4
		c-1.1,0.4-2.2,0.5-3.3,0.7c-2,0.2-4,0.5-6,0.8c-2.7,0.3-5.4,0.4-8.1,0.6c-2.6,0.1-5.1,0.3-7.7,0.3c-2.9,0-5.9,0-8.8,0
		c-2.6,0-5.1,0-7.7,0.1c-3.1,0-6.2,0.1-9.3,0.1c-2.8,0-5.5-0.1-8.3-0.2c-4-0.1-8.1-0.1-12.1-0.1c-1.6,0-3.1,0-4.7,0
		c-4.1,0-8.3-0.1-12.4,0.1c-4.7,0.2-9.4,0.6-14.1,0.1c-1.3-0.2-2.6-0.5-3.9-1c-0.5-0.2-1-0.5-1.5-0.9c-0.1-0.1-0.2-0.2-0.3-0.3
		c-0.1-0.2-0.2-0.4-0.3-0.6c-0.1-0.4-0.2-0.9-0.3-1.3c-0.1-0.8-0.9-1.2-1.7-1.2C41.4,163.2,41.3,163.2,41.2,163.2L41.2,163.2z
		 M44.3,166.7C44.3,166.7,44.4,166.8,44.3,166.7C44.4,166.8,44.3,166.7,44.3,166.7L44.3,166.7z"/>
	<path class="st0" d="M39.9,157.7c0.1,1.1,0.1,2.3,0.2,3.4c0.1,0.9,0.2,1.9,0.3,2.8c0.1,0.9,0.2,1.8,0.3,2.6
		c0.1,0.6,0.2,1.1,0.5,1.7c0.2,0.5,0.5,0.9,0.8,1.3c0.4,0.5,0.8,1,1.2,1.4c0.5,0.5,1.1,0.9,1.8,1.2c1.9,1,4.1,1.2,6.2,1.6
		c1.1,0.2,2.3,0.3,3.4,0.5c1.8,0.2,3.6,0.3,5.4,0.4c3.8,0.1,7.7,0.1,11.5,0.1c3.8,0,7.7-0.1,11.6-0.1c1.9,0,3.8,0,5.7,0
		c1.8,0,3.7-0.1,5.5-0.1c2-0.1,4-0.1,6-0.1c1.8,0,3.7,0,5.5-0.1c2-0.1,4.1-0.2,6.1-0.3c1.8-0.1,3.7-0.1,5.5-0.2
		c1.9-0.1,3.7-0.3,5.6-0.4c2-0.1,4.1-0.2,6.1-0.2c3.7-0.1,7.4-0.4,11.1-0.5c1.8,0,3.7,0,5.5,0c0.4,0,0.9,0,1.4,0
		c1.4,0,2.8,0,4.2-0.1c1.1-0.1,2.3-0.3,3.4-0.5c1.2-0.2,2.4-0.5,3.4-1.1c0.9-0.6,1.4-1.6,1.1-2.7c-0.4-1.3-1.7-2-2.9-1.7
		c-0.8,0.2-1.6,0.4-2.4,0.6c-0.6,0.1-1.2,0.2-1.8,0.3c-0.4,0-0.8,0.1-1.2,0.1c-0.5,0.1-0.9,0-1.4,0.1c-0.9,0-1.8,0-2.7,0
		c-1.8,0-3.7,0-5.5,0c-2,0-4,0.1-5.9,0.2c-1.9,0.1-3.9,0.2-5.8,0.3c-1.8,0.1-3.6,0.1-5.4,0.2c-1.9,0.1-3.8,0.3-5.8,0.4
		c-2,0.1-4,0.2-6.1,0.3c-1.9,0.1-3.7,0.2-5.6,0.3c-3.8,0.2-7.6,0.2-11.4,0.3c-2,0.1-3.9,0.1-5.9,0.2c-1.9,0-3.8,0-5.7,0.1
		c-3.8,0.1-7.6,0.2-11.4,0.3c-2,0-4,0-6,0.1c-1.8,0-3.5,0.1-5.3,0.1c-1.9,0-3.8,0-5.7-0.1c-2.1-0.1-4.3-0.3-6.4-0.6
		c0.2,0,0.4,0,0.5,0.1c-1.1-0.2-2.2-0.4-3.3-0.8c-0.4-0.2-0.9-0.5-1.3-0.7c-0.5-0.4-0.9-0.8-1.3-1.3c-0.2-0.2-0.3-0.5-0.4-0.7
		c-0.3-0.8-0.5-1.6-0.7-2.5c-0.2-0.9-0.3-1.8-0.5-2.7c-0.1-1-0.1-2.1-0.2-3.1c0-0.6-0.5-1.1-1.1-1.1
		C40.4,156.6,39.9,157.1,39.9,157.7L39.9,157.7z M45.4,168.1c0,0,0.1,0.1,0.1,0.1C45.5,168.1,45.4,168.1,45.4,168.1L45.4,168.1z"/>
	<path class="st0" d="M47.2,58.1c-0.8,0.1-1.7,0.1-2.5,0.2c-0.9,0.2-1.8,0.5-2.6,0.8c-0.9,0.4-1.8,0.8-2.8,1.2
		c-0.6,0.3-1.1,0.6-1.7,0.9c-0.7,0.5-1.3,1.2-1.8,1.9c-0.6,0.9-1.1,1.9-1.6,2.9c-0.4,1-0.7,2.1-1,3.2c-0.1,0.6-0.3,1.2-0.4,1.8
		c-0.1,0.7-0.3,1.3-0.4,2c-0.1,0.4-0.1,0.8-0.2,1.3c-0.1,0.9-0.1,1.8,0,2.7c0.2,1.4,0.4,2.8,0.7,4.2c0.4,1.7,1.2,3.3,2.2,4.7
		c0.2,0.2,0.3,0.4,0.5,0.7c0.3,0.3,0.6,0.6,1,0.9c0.5,0.4,1.1,0.7,1.6,1c0.7,0.3,1.3,0.6,2,0.9c1.2,0.5,2.6,0.6,3.9,0.8
		c0.7,0.1,1.4,0.1,2.2,0c0.5,0,0.9-0.1,1.4-0.2c0.5-0.1,1-0.3,1.4-0.5c1.3-0.6,2.4-1.6,3.3-2.7c0.4-0.5,0.7-0.9,1.1-1.4
		c0.4-0.7,0.8-1.4,1-2.2c0.2-0.6,0.5-1.3,0.7-1.9c0.2-0.6,0.4-1.3,0.6-1.9c0.3-0.8,0.5-1.7,0.6-2.5c0.2-1.2,0.2-2.5,0.2-3.8
		c0-0.6,0-1.3,0-1.9c0-1.1-0.1-2.2-0.1-3.4c0-0.5-0.4-1-1-1c-0.6,0-0.9,0.4-1,1c-0.1,1.2-0.1,2.4-0.2,3.6c-0.1,1.4-0.1,2.7-0.3,4.1
		c-0.2,1.4-0.7,2.8-1.2,4.2c-0.3,0.9-0.6,1.8-1,2.7c-0.1,0.3-0.3,0.6-0.4,0.8c-0.2,0.3-0.4,0.6-0.6,0.9c-0.6,0.7-1.3,1.5-2,2.1
		c-0.3,0.2-0.7,0.4-1,0.6c-0.4,0.2-0.9,0.3-1.4,0.4c-0.6,0.1-1.2,0.1-1.8,0c-0.8-0.1-1.6-0.3-2.4-0.5c-0.7-0.2-1.4-0.4-2-0.7
		c-0.7-0.3-1.4-0.7-2.1-1.1c-0.6-0.5-1.1-1.1-1.6-1.7c-0.4-0.5-0.7-1.1-1-1.7c-0.3-0.7-0.5-1.4-0.7-2.1c-0.2-0.9-0.4-1.9-0.6-2.8
		c-0.1-0.8-0.1-1.6,0-2.4c0,0,0,0,0,0c0.1-0.4,0.1-0.8,0.2-1.2c0.1-0.6,0.2-1.2,0.3-1.8c0.1-0.6,0.3-1.2,0.4-1.8c0.2-1,0.5-2,0.9-3
		c0.4-1,0.9-1.9,1.6-2.8c0.3-0.3,0.6-0.6,0.9-0.9c0.6-0.4,1.2-0.7,1.8-1c0.7-0.3,1.3-0.6,2-0.9c0.9-0.4,1.8-0.7,2.8-0.8
		c0.6-0.1,1.2-0.1,1.8-0.1c0.4,0,0.8-0.3,0.8-0.8C48,58.5,47.7,58.1,47.2,58.1C47.2,58.1,47.2,58.1,47.2,58.1L47.2,58.1z M37.9,63.5
		C37.9,63.5,37.9,63.5,37.9,63.5C37.9,63.5,37.9,63.5,37.9,63.5L37.9,63.5z M37.8,63.6C37.8,63.6,37.8,63.6,37.8,63.6
		C37.8,63.6,37.8,63.6,37.8,63.6L37.8,63.6z M36.2,66.4c0,0,0,0.1-0.1,0.1C36.2,66.5,36.2,66.4,36.2,66.4L36.2,66.4z M34.4,76.3
		C34.4,76.3,34.4,76.3,34.4,76.3C34.4,76.3,34.4,76.3,34.4,76.3L34.4,76.3z M46.9,87.1c0,0-0.1,0-0.1,0
		C46.8,87.1,46.8,87.1,46.9,87.1L46.9,87.1z"/>
	<path class="st0" d="M103.8,82c-0.4,0.1-0.7,0.3-0.9,0.5c-0.4,0.3-0.7,0.8-1.1,1.2c-0.5,0.6-0.8,1.3-1.2,2.1
		c-0.1,0-0.1,0.1-0.2,0.1c-0.3,0.2-0.5,0.4-0.6,0.8c-0.9,2.5-1.9,4.9-2.8,7.4c-0.3,0.8-0.5,1.6-0.8,2.4c-0.3,0.8-0.6,1.7-0.8,2.6
		c-0.3,1.1-0.6,2.2-1,3.3c-0.3,1-0.5,1.9-0.7,2.9c-0.5,1.9-1,3.8-1.6,5.6c-0.5,1.7-1,3.3-1.6,4.9c-0.6,1.7-1.1,3.3-1.8,4.9
		c-0.3,0.8-0.7,1.5-1.1,2.2c-0.4,0.9-0.8,1.8-0.7,2.8c0.1,1.3,0.6,2.4,1.1,3.6c0.8,1.8,1.6,3.6,2.5,5.4c0.8,1.7,1.6,3.4,2.4,5.2
		c0.4,0.9,0.8,1.9,1.2,2.8c0.2,0.5,0.4,0.9,0.6,1.4c0.2,0.4,0.4,0.8,0.6,1.2c0.4,0.7,0.7,1.3,1.1,2c0.3,0.6,0.7,1.1,1,1.6
		c0.4,0.6,0.8,1.1,1.1,1.7c0.3,0.5,0.7,0.9,1,1.4c0.3,0.5,0.7,1,1,1.6c0.3,0.6,0.7,1.2,1,1.9c0.3,0.5,0.5,1.1,0.8,1.6
		c0.1,0.3,0.3,0.6,0.4,0.9c0.1,0.2,0.2,0.4,0.3,0.6c0,0.1,0.1,0.2,0.2,0.3c0.2,0.3,0.5,0.5,0.7,0.7c0.3,0.2,0.5,0.2,0.9,0.2
		c0.4,0,0.9-0.2,1.2-0.5c0.4-0.4,0.7-0.9,0.9-1.4c0.2-0.4,0.4-0.8,0.5-1.3c0.3-0.7,0.6-1.5,0.9-2.2c0.5-1.2,0.9-2.4,1.3-3.7
		c0.4-1.3,0.9-2.5,1.4-3.8c0.5-1.3,1-2.6,1.5-3.9c0.8-1.8,1.5-3.6,2.3-5.5c0.7-1.8,1.4-3.6,2.1-5.4c0.3-0.9,0.7-1.7,1-2.6
		c0.1-0.2,0.2-0.5,0.2-0.7c0.1-0.6,0-1.3-0.1-2c-0.1-0.5-0.2-1-0.3-1.6c-0.2-0.9-0.4-1.8-0.7-2.8c-0.2-1-0.4-2.1-0.6-3.1
		c-0.2-1-0.3-2-0.5-3.1c-0.2-2-0.5-4-0.8-6c-0.3-1.9-0.9-3.8-1.4-5.7c-0.5-1.8-0.9-3.6-1.4-5.4c-0.3-0.9-0.6-1.9-0.9-2.8
		c-0.3-0.9-0.6-1.8-0.8-2.6c-0.5-1.7-1.1-3.5-1.7-5.2c-0.6-1.8-1.3-3.5-2.3-5.1c-0.2-0.3-0.4-0.6-0.6-0.8c-0.1-0.1-0.2-0.2-0.3-0.3
		c-0.1-0.1-0.2-0.2-0.4-0.3c-0.2-0.1-0.4-0.2-0.6-0.2c-0.1,0-0.3-0.1-0.4-0.1C104.3,81.9,104,82,103.8,82L103.8,82z M92,125.7
		c0.2,0,0.5,0,0.7,0c0.4,0,0.7,0,1.1,0c0.6,0,1.2-0.1,1.8-0.1c0.6,0,1.1,0,1.7-0.1c0.5,0,1-0.1,1.5-0.1c1.2-0.2,2.4-0.4,3.7-0.5
		c0.3,0,0.5-0.1,0.8-0.1c0-0.1,0-0.1,0-0.2c0-2.2,0-4.4,0-6.5c0-2,0-4,0-6c0-2,0-4,0-6c-0.1-5-0.1-10.1-0.3-15.1
		c0-0.4,0.3-0.7,0.7-0.7c0.4,0,0.7,0.3,0.7,0.7c0,1.2,0.1,2.5,0.1,3.7c0.1,4.4,0.1,8.8,0.2,13.2c0,2.2,0,4.4,0,6.6
		c0,2.1,0,4.1,0.1,6.2c0,1.3,0.1,2.6,0.1,4c0.3,0,0.6,0,0.9,0c1.1-0.1,2.2-0.1,3.4-0.1c1.2,0,2.5,0,3.7,0.2c0.3,0,0.6,0.3,0.7,0.6
		c0.2,0.3,0.2,0.6,0.1,1c-0.1,0.5-0.7,1-1.2,0.9c-0.6,0-1.2-0.1-1.8-0.1c-0.5,0-1.1,0-1.6,0c-1.1,0-2.2,0-3.3,0c-0.3,0-0.6,0-0.9,0
		c0,0.9,0.1,1.8,0.1,2.7c0.1,1.1,0.1,2.2,0.2,3.3c0.1,2,0.2,4.1,0.2,6.1c0,2.1,0.1,4.2,0,6.3c0,0.6-0.5,1.1-1.1,1.1
		c-0.3,0-0.6-0.1-0.8-0.3c-0.2-0.2-0.3-0.5-0.3-0.8c-0.1-0.9-0.2-1.7-0.2-2.6c0-1,0.1-2,0.1-3c0-1.1,0-2.1,0-3.2c0-1,0-2,0-3.1
		c0-1,0-1.9,0-2.9c0-1.2,0-2.4,0-3.5c-0.3,0-0.5,0-0.8,0c-1.2,0-2.3,0.1-3.5,0.2c-0.6,0-1.2,0-1.8,0c-0.6,0-1.1,0-1.6,0
		c-0.6,0-1.3,0-1.9,0.1c-0.6,0-1.2,0-1.8,0c-0.5,0-0.9-0.4-0.9-0.9c0-0.4,0.2-0.7,0.6-0.8c0,0,0-0.1,0-0.1c0,0,0,0.1,0,0.1
		C91.8,125.7,91.9,125.7,92,125.7L92,125.7z M106,111.2c-0.2,0-0.3-0.3-0.3-0.5c0.4-1.2,0.9-2.4,1.3-3.6c0.2-0.5,0.3-0.9,0.5-1.4
		c0.2-0.7,0.5-1.5,0.7-2.2c0-0.2,0.2-0.3,0.4-0.3c0,0,0.1,0,0.1,0c0.2,0.1,0.3,0.3,0.3,0.5c-0.2,0.8-0.5,1.5-0.7,2.3
		c-0.1,0.5-0.3,0.9-0.4,1.4c-0.4,1.2-0.8,2.4-1.3,3.6c-0.1,0.2-0.2,0.3-0.4,0.3C106.1,111.2,106,111.2,106,111.2L106,111.2z
		 M109.1,113.5c-0.2-0.1-0.4-0.2-0.5-0.4c-0.1-0.2-0.1-0.4-0.1-0.7c0.3-2,0.6-3.9,1-5.9c0-0.2,0.2-0.5,0.4-0.6
		c0.1-0.1,0.3-0.1,0.5-0.1c0.1,0,0.2,0,0.3,0c0.2,0.1,0.5,0.2,0.6,0.4c0.1,0.2,0.1,0.5,0.1,0.7c-0.3,2-0.6,3.9-1.1,5.9
		c-0.1,0.4-0.5,0.7-0.9,0.7C109.2,113.6,109.1,113.6,109.1,113.5L109.1,113.5z M111,117.1c-0.2,0-0.3-0.2-0.4-0.3
		c-0.1-0.2-0.1-0.4-0.1-0.5c0.3-1.4,0.5-2.8,0.8-4.2c0.1-0.3,0.4-0.5,0.7-0.5c0.1,0,0.1,0,0.2,0c0.2,0,0.3,0.2,0.4,0.3
		c0.1,0.2,0.1,0.4,0.1,0.6c-0.3,1.4-0.5,2.8-0.8,4.2c-0.1,0.3-0.4,0.5-0.7,0.5C111.1,117.1,111.1,117.1,111,117.1L111,117.1z
		 M114.6,128.2c0,0.1,0,0.1,0,0.2C114.7,128.3,114.7,128.2,114.6,128.2L114.6,128.2z M114.7,128.5c0,0.1,0,0.1,0,0.2
		C114.7,128.6,114.7,128.6,114.7,128.5L114.7,128.5z M95.9,132.7c-0.3-0.5-0.1-1.1,0.4-1.4c0.2-0.1,0.3-0.1,0.5-0.1
		c0.1,0,0.2,0,0.3,0c0.3,0.1,0.5,0.2,0.6,0.5c0.5,0.7,1,1.5,1.4,2.2c0.3,0.4,0.1,1.1-0.3,1.3c-0.2,0.1-0.5,0.2-0.7,0.1
		c-0.3-0.1-0.4-0.2-0.6-0.4c-0.3-0.4-0.6-0.8-0.8-1.2c0.4,1.4,0.7,2.8,1.1,4.1c0.1,0.3-0.1,0.7-0.5,0.8c-0.1,0-0.1,0-0.2,0
		c-0.3,0-0.5-0.2-0.6-0.5c-0.4-1.4-0.8-2.8-1.2-4.2c-0.1-0.4,0.1-0.8,0.5-0.9c0.1,0,0.1,0,0.2,0c0.1,0,0.2,0,0.3,0.1
		C96.1,133,96,132.9,95.9,132.7L95.9,132.7z M104.8,154.3l0.2-0.5C104.9,154,104.8,154.2,104.8,154.3
		C104.8,154.3,104.8,154.3,104.8,154.3L104.8,154.3z"/>
	<path class="st0" d="M94.8,37.5c-0.2,0.1-0.3,0.2-0.4,0.3c-0.4,0.5-0.7,1-1,1.6c-0.2,0.3-0.3,0.7-0.5,1c-0.1,0.3-0.3,0.7-0.4,1
		c-0.3,0.7-0.5,1.5-0.7,2.3c-0.1,0.4,0.1,0.7,0.5,0.8c0.4,0.1,0.7-0.1,0.8-0.5c0.3-1,0.6-2,1-3c0.2-0.4,0.4-0.8,0.6-1.1
		c0.3-0.4,0.6-0.9,0.8-1.3c0.2-0.3,0.1-0.8-0.3-1c-0.1-0.1-0.2-0.1-0.4-0.1C94.9,37.5,94.8,37.5,94.8,37.5L94.8,37.5z M94.2,41
		c0,0,0,0.1-0.1,0.1C94.2,41.1,94.2,41,94.2,41L94.2,41z"/>
	<path class="st0" d="M96.1,40.7c-0.2,0.1-0.3,0.3-0.4,0.5c-0.4,1.2-0.8,2.3-1.2,3.5c-0.2,0.5-0.3,1-0.5,1.5
		c-0.1,0.3-0.2,0.5-0.3,0.8c0,0.1-0.1,0.3-0.1,0.4c-0.1,0.4-0.1,0.8-0.2,1.1c0,0.3,0.2,0.6,0.5,0.7c0.4,0.1,0.8-0.1,0.9-0.5
		c0.2-0.7,0.4-1.4,0.7-2.1c0.2-0.5,0.4-1,0.5-1.5c0.4-1.2,0.8-2.3,1.3-3.5c0.2-0.4-0.2-0.9-0.6-1c-0.1,0-0.1,0-0.2,0
		C96.4,40.5,96.2,40.6,96.1,40.7L96.1,40.7z"/>
	<path class="st0" d="M98.1,43.6c-0.2,0.1-0.4,0.3-0.4,0.6c-0.4,2.6-0.8,5.1-1.1,7.7c0,0.4,0.3,0.7,0.6,0.8c0.2,0.1,0.5,0,0.7-0.1
		c0.2-0.1,0.4-0.3,0.4-0.5c0.4-2.5,0.8-4.9,1.2-7.4c0-0.3,0-0.5-0.1-0.7c-0.1-0.2-0.3-0.4-0.6-0.4c-0.1,0-0.2,0-0.3,0
		C98.4,43.5,98.2,43.6,98.1,43.6L98.1,43.6z"/>
	<path class="st0" d="M39.7,69.2c-0.4,0.4-0.8,0.8-1.2,1.3c-0.4,0.5-0.7,1.1-1.1,1.6c-0.3,0.5-0.6,1.1-0.7,1.7
		c-0.1,0.3-0.1,0.6-0.2,0.9c0,0.3,0,0.6,0.1,0.9c0.1,0.3,0.4,0.5,0.7,0.5c0.4,0,0.7-0.3,0.7-0.7c0-0.1,0-0.2,0-0.4
		c0.1-0.3,0.1-0.5,0.2-0.8c0.4-1,1-2,1.7-2.8c0.3-0.4,0.6-0.7,0.9-1c0.2-0.1,0.3-0.4,0.3-0.6c0-0.2-0.1-0.4-0.3-0.6
		c-0.2-0.2-0.4-0.2-0.6-0.2C40,69,39.9,69.1,39.7,69.2L39.7,69.2z"/>
	<path class="st0" d="M41.4,71.7c-0.2,0.1-0.5,0.2-0.6,0.5c-0.3,0.6-0.5,1.3-0.8,1.9c-0.2,0.4-0.3,0.8-0.5,1.1
		c-0.2,0.4-0.3,0.8-0.5,1.2c-0.1,0.2-0.2,0.5-0.3,0.7c-0.2,0.5-0.2,0.9-0.3,1.4c0,0.2,0,0.3,0.1,0.4c0.1,0.2,0.3,0.3,0.5,0.4
		c0.5,0.1,1-0.2,1.1-0.6c0.3-1,0.7-2,1.1-2.9c0.2-0.6,0.5-1.2,0.8-1.8c0.1-0.3,0.3-0.6,0.4-0.9c0.1-0.3,0.2-0.5,0.1-0.8
		c-0.1-0.2-0.2-0.5-0.5-0.6c-0.1-0.1-0.3-0.1-0.5-0.1C41.5,71.6,41.4,71.6,41.4,71.7L41.4,71.7z M42.2,73.8c0,0.1-0.1,0.1-0.1,0.2
		C42.1,74,42.1,73.9,42.2,73.8L42.2,73.8z"/>
	<path class="st0" d="M42.6,75.8c-0.1,0.1-0.2,0.3-0.2,0.4c-0.1,1.8-0.2,3.5-0.3,5.3c0,0.3,0.3,0.6,0.6,0.6c0.3,0,0.6-0.3,0.6-0.6
		c0.1-1.8,0.2-3.6,0.3-5.3c0-0.3-0.3-0.6-0.6-0.6C42.9,75.6,42.8,75.7,42.6,75.8L42.6,75.8z"/>
	<path class="st0" d="M53.1,125.4c-1.2,3.1-2.3,6.1-3.5,9.2c-0.2,0.6-0.4,1.2-0.6,1.8c-0.3,0.7-0.5,1.4-0.7,2.2
		c-0.1,0.4-0.1,0.9,0,1.3c0.1,0.2,0.2,0.4,0.3,0.6c0.2,0.4,0.3,0.7,0.5,1.1c0.2,0.6,0.5,1.2,0.7,1.8c0.7,1.7,1.5,3.3,2.2,5
		c0.4,1.1,0.9,2.2,1.3,3.3c0.2,0.6,0.5,1.3,0.7,1.9c0.3,0.7,0.5,1.5,0.9,2.1c0.3,0.4,0.8,0.9,1.3,0.8c0,0,0.1,0,0.1,0
		c0.2,0,0.5-0.1,0.7-0.2c0.2-0.1,0.3-0.2,0.5-0.3c0.1-0.1,0.3-0.4,0.4-0.5c0.1-0.1,0.2-0.3,0.2-0.5c0.2-0.3,0.3-0.7,0.4-1
		c0.2-0.6,0.5-1.2,0.7-1.8c0.5-1.2,0.9-2.4,1.4-3.6c0.5-1.2,0.9-2.4,1.4-3.6c0.2-0.6,0.5-1.2,0.8-1.7c0.1-0.3,0.2-0.5,0.4-0.8
		c0.1-0.3,0.3-0.6,0.3-0.9c0.1-0.5,0-1.1-0.1-1.6c-0.3-1.3-0.8-2.6-1.3-3.9c-0.5-1.2-1-2.3-1.4-3.5c-0.5-1.1-0.9-2.3-1.3-3.4
		c-0.3-0.6-0.5-1.3-0.8-1.9c-0.3-0.8-0.7-1.5-1.3-2.1c-0.2-0.2-0.4-0.3-0.6-0.4c-0.4-0.1-0.7,0-1.1,0.1c-0.2,0.1-0.3,0.2-0.4,0.4
		c0-0.4-0.3-0.7-0.7-0.8c-0.1,0-0.2,0-0.2,0C53.6,124.8,53.2,125.1,53.1,125.4L53.1,125.4z M50.7,137.2c0.1-0.5,0.3-1,0.5-1.4
		c0.3-0.8,0.6-1.7,0.9-2.5c0.8-2.2,1.7-4.5,2.5-6.7c0,0.2,0.1,0.4,0.2,0.6c0.3,0.3,0.4,0.7,0.6,1.1c0.1,0.2,0.2,0.4,0.3,0.6
		c0.2,0.4,0.4,0.8,0.6,1.2c0.4,1,0.8,1.9,1.3,2.9c0.8,1.8,1.6,3.6,2.4,5.5c0.1,0.3,0.3,0.7,0.4,1c0.3,0.7,0.5,1.4,0.7,2.1
		c0,0,0,0,0,0.1c-0.1,0.5-0.4,1.1-0.6,1.6c0,0,0,0,0,0c-0.2,0.5-0.4,1-0.6,1.4c0,0,0-0.1,0-0.1c-0.8,2-1.6,3.9-2.5,5.9c0,0,0,0,0,0
		c0,0,0,0,0,0c0,0.1-0.1,0.2-0.1,0.2c0,0,0-0.1,0-0.1c-0.2,0.5-0.4,1-0.6,1.5c-0.1,0.3-0.3,0.5-0.4,0.8c-0.2-0.6-0.5-1.2-0.7-1.7
		c-0.3-0.6-0.5-1.3-0.8-1.9c-0.3-0.6-0.5-1.2-0.8-1.8c-0.6-1.1-1.2-2.3-1.7-3.4c-0.5-1.1-1.1-2.3-1.6-3.4c-0.2-0.4-0.4-0.9-0.7-1.3
		c0,0,0-0.1,0-0.1c0-0.1,0-0.2,0-0.2C50.3,138.3,50.5,137.7,50.7,137.2L50.7,137.2z M50.3,139.3C50.3,139.3,50.3,139.4,50.3,139.3
		C50.3,139.4,50.3,139.3,50.3,139.3L50.3,139.3z M62,145.1c0,0.1-0.1,0.1-0.1,0.2C61.9,145.2,61.9,145.1,62,145.1L62,145.1z
		 M57.5,150.5c0-0.1,0-0.1,0.1-0.2c0,0,0,0,0,0C57.5,150.4,57.5,150.5,57.5,150.5L57.5,150.5z"/>
	<path class="st0" d="M144.9,122.4c-1.1,1.9-2.2,3.7-3.3,5.6c-0.7,1.2-1.4,2.4-2.1,3.7c-0.7,1.2-1.3,2.5-1.9,3.8
		c-0.2,0.4-0.4,0.9-0.4,1.4c0,0.4,0.1,0.9,0.2,1.3c0.2,0.5,0.4,1.1,0.6,1.6c0.3,0.7,0.5,1.4,0.8,2.1c0.9,2.6,1.5,5.3,2.1,7.9
		c0.1,0.6,0.3,1.2,0.5,1.9c0.1,0.2,0.1,0.4,0.2,0.6c0.1,0.2,0.2,0.4,0.4,0.5c0.2,0.2,0.4,0.3,0.7,0.4c0.2,0.1,0.6,0.1,0.8,0
		c0,0,0.1,0,0.1,0c0.2-0.1,0.4-0.2,0.6-0.4c0.2-0.1,0.3-0.3,0.4-0.5c0.3-0.4,0.5-0.8,0.7-1.2c0.5-0.8,0.9-1.7,1.3-2.6
		c0.3-0.6,0.5-1.2,0.8-1.8c0.6-1.3,1.2-2.6,1.9-3.8c0.3-0.6,0.7-1.1,1-1.7c0.2-0.3,0.4-0.6,0.6-0.9c0.2-0.4,0.5-0.7,0.6-1.1
		c0.4-0.8,0.5-1.7,0.4-2.6c-0.1-0.9-0.3-1.8-0.5-2.6c-0.2-0.7-0.4-1.3-0.6-2c-0.4-1.3-0.9-2.6-1.2-4c-0.2-0.9-0.5-1.7-0.7-2.6
		c-0.2-0.8-1.1-1.3-1.9-1.1c-0.8,0.2-1.2,1.1-1.1,1.9c0.4,1.6,0.9,3.3,1.4,4.9c0.2,0.7,0.5,1.3,0.7,2c0.4,1.2,0.8,2.4,1,3.7
		c0,0.3,0,0.6,0,1c0,0.1,0,0.2-0.1,0.3c-0.2,0.4-0.5,0.9-0.8,1.3c-0.3,0.5-0.6,1-0.9,1.5c-0.5,0.9-1,1.7-1.4,2.7
		c-0.5,1-1,2.1-1.4,3.1c-0.4,0.8-0.7,1.6-1.1,2.4c-0.1-0.4-0.2-0.8-0.4-1.3c-0.3-1-0.5-2-0.8-3c-0.2-0.6-0.3-1.1-0.5-1.7
		c-0.2-0.6-0.4-1.2-0.6-1.8c-0.2-0.5-0.4-1-0.6-1.6c-0.3-0.7-0.6-1.4-0.9-2.1c0,0.1,0.1,0.2,0.1,0.3c-0.1-0.3-0.3-0.6-0.3-1
		c0,0,0-0.1,0-0.1c0-0.1,0.1-0.3,0.1-0.4c0.5-1.1,1-2.1,1.5-3.1c0.5-1,1.1-1.9,1.6-2.9c0.5-0.9,1.1-1.8,1.6-2.7
		c0.8-1.4,1.7-2.9,2.5-4.3c0.3-0.5,0.1-1.2-0.4-1.5c-0.2-0.1-0.4-0.1-0.5-0.1C145.5,121.9,145.1,122,144.9,122.4L144.9,122.4z
		 M142.3,150.9C142.3,150.9,142.3,150.9,142.3,150.9C142.3,150.9,142.3,150.9,142.3,150.9L142.3,150.9z"/>
	<path class="st0" d="M54.6,127.2c0,2.3,0.1,4.6,0.2,6.9c0,0.6,0.1,1.1,0.1,1.7c0,0.5,0.1,1,0.2,1.5c0.1,1.1,0.2,2.2,0.3,3.3
		c0.1,1,0.1,2,0.1,3c0,0.4,0,0.7,0,1.1c0,0.6,0,1.1,0,1.7c0,1,0,2-0.1,3c0,0.5,0,0.9,0,1.3c0,0.6-0.1,1.3,0.1,1.9
		c0.1,0.3,0.4,0.5,0.6,0.5c0.3,0,0.7-0.3,0.7-0.7c-0.1-0.6,0-1.2,0-1.9c0-0.5,0-0.9,0-1.4c0-1,0.1-2,0.1-3c0-1.1,0-2.1,0-3.2
		c0-0.6,0-1.3,0-1.9c0-0.1,0-0.3,0-0.4c0-0.4-0.1-0.8-0.1-1.2c-0.1-1-0.2-1.9-0.3-2.9c-0.1-0.9-0.1-1.8-0.2-2.7
		c0-1.1-0.1-2.1-0.1-3.2c0-1.2,0-2.3-0.1-3.5c0-0.4-0.3-0.8-0.8-0.8C55,126.4,54.6,126.7,54.6,127.2L54.6,127.2z"/>
	<path class="st0" d="M49.4,137.3c-0.2,0.3-0.1,0.7,0.2,0.9c1,0.5,2,1.1,3,1.5c0.9,0.4,1.8,0.8,2.8,1.2c0.2,0.1,0.5,0.2,0.7,0.3
		c0.2,0.1,0.4,0.1,0.6,0.2c0.3,0,0.6,0,0.8,0c0.6,0,1.2,0.1,1.8,0.1c1,0.1,2,0.2,3,0.3c0,0,0,0,0,0c0.5,0.1,1,0.1,1.5,0.2
		c0.2,0,0.4,0,0.6-0.1c0.2-0.1,0.3-0.3,0.3-0.5c0.1-0.4-0.1-0.8-0.5-0.9c-0.6-0.1-1.3-0.2-1.9-0.3c-0.5-0.1-1-0.1-1.6-0.1
		c-0.5,0-1-0.1-1.6-0.1c-0.2,0-0.5,0-0.7,0c-0.2,0-0.5,0-0.7,0c-0.3,0-0.5,0.1-0.8,0.1c0,0-0.1,0-0.1,0c-0.4-0.1-0.7-0.2-1-0.3
		c-0.3-0.1-0.5-0.2-0.8-0.3c-0.7-0.3-1.5-0.6-2.2-1c-0.3-0.1-0.7-0.3-1-0.5c-0.5-0.3-1-0.5-1.5-0.8c-0.1-0.1-0.2-0.1-0.3-0.1
		C49.7,136.9,49.5,137,49.4,137.3L49.4,137.3z M62.2,141.7c0,0,0.1,0,0.1,0C62.3,141.7,62.3,141.7,62.2,141.7L62.2,141.7z"/>
	<path class="st0" d="M146.2,124.5c-0.3,1.6-0.6,3.3-0.9,4.9c-0.2,1-0.4,2-0.6,3.1c-0.4,2.2-0.9,4.3-1.3,6.5
		c-0.1,0.5-0.2,0.9-0.3,1.4c-0.1,0.5-0.2,1-0.3,1.5c-0.2,1-0.3,1.9-0.4,2.9c-0.3,2.3-0.5,4.5-0.8,6.8c0,0.1,0,0.2,0.1,0.4
		c0.1,0.2,0.2,0.3,0.4,0.3c0.4,0.1,0.8-0.1,0.9-0.5c0.2-0.9,0.3-1.8,0.4-2.6c0.1-0.8,0.2-1.6,0.3-2.4c0.1-0.7,0.2-1.4,0.2-2.1
		c0.1-0.6,0.1-1.2,0.2-1.8c0.1-0.5,0.2-0.9,0.2-1.4c0.1-0.5,0.2-1,0.3-1.5c0.2-1.1,0.5-2.1,0.7-3.2c0.4-2,0.8-4,1.2-5.9
		c0.4-1.9,0.7-3.9,1.1-5.8c0-0.2,0-0.4-0.1-0.6c-0.1-0.2-0.3-0.3-0.5-0.4c-0.1,0-0.1,0-0.2,0C146.7,124,146.3,124.2,146.2,124.5
		L146.2,124.5z"/>
	<path class="st0" d="M137.9,134.7c-0.2,0.1-0.4,0.4-0.5,0.6c-0.1,0.3,0,0.6,0.1,0.8c0.1,0.2,0.4,0.4,0.6,0.5
		c1.2,0.2,2.3,0.4,3.5,0.6c0.7,0.1,1.4,0.2,2.1,0.4c0.9,0.2,1.7,0.4,2.5,0.6c0.4,0.1,0.8,0.2,1.2,0.4c0.6,0.2,1.2,0.5,1.9,0.4
		c0.2,0,0.4-0.1,0.6-0.3c0.2-0.2,0.3-0.4,0.3-0.6c0-0.2-0.1-0.5-0.3-0.6c-0.2-0.2-0.3-0.2-0.5-0.2c-0.1,0-0.2,0-0.2-0.1
		c-0.4-0.2-0.8-0.4-1.3-0.6c-0.4-0.1-0.8-0.3-1.2-0.4c-0.8-0.2-1.6-0.4-2.4-0.6c-0.7-0.1-1.4-0.3-2-0.4c-1.2-0.2-2.3-0.4-3.5-0.6
		c-0.1,0-0.2,0-0.3,0C138.2,134.5,138,134.6,137.9,134.7L137.9,134.7z M149.2,137.2C149.2,137.2,149.3,137.2,149.2,137.2
		C149.3,137.2,149.2,137.2,149.2,137.2L149.2,137.2z"/>
	<path class="st0" d="M148,160.2c-1.2,0-2.4,0-3.6,0.1c-1.2,0-2.4,0.1-3.6,0.1c-1.2,0.1-2.4,0.2-3.6,0.3c-0.9,0.1-1.7,0.2-2.6,0.3
		c-0.9,0.1-1.8,0.2-2.7,0.4c-0.5,0.1-0.9,0.1-1.4,0.2c-0.5,0.1-1,0.2-1.6,0.3c-1.1,0.2-2.2,0.5-3.3,0.6c-1.5,0.2-3,0.1-4.5,0.2
		c-1.3,0.1-2.5,0.1-3.8,0.1c-1.1,0-2.2,0-3.3-0.1c-1.2-0.1-2.5-0.1-3.7-0.1c-0.8,0-1.7,0-2.5,0c-0.8,0-1.6,0.1-2.5,0.1
		c-0.4,0-0.8,0.1-1.2,0.2c-0.4,0.1-0.8,0.2-1.2,0.2c-0.4,0.1-0.8,0.2-1.2,0.2c-0.4,0.1-0.7,0.1-1.1,0.2c-0.2,0-0.5,0-0.7,0
		c-0.2,0-0.4,0-0.7,0c-0.4,0-0.8-0.1-1.2-0.1c-1.1-0.2-2.3-0.4-3.4-0.5c-1.1-0.2-2.3-0.2-3.5-0.1c-1.2,0-2.3,0.1-3.5,0
		c-0.6,0-1.2,0-1.7,0c-0.6,0-1.2-0.1-1.8-0.1c-1.2,0-2.4-0.1-3.6,0c-1.2,0-2.4,0.1-3.6,0.1c-2.4,0-4.8,0-7.2,0.1c-2.3,0-4.6,0-7-0.1
		c-1.2-0.1-2.4-0.1-3.5-0.2c-1.2-0.1-2.4-0.1-3.5-0.3c-0.4,0-0.8-0.1-1.2-0.1c-0.5-0.1-0.9-0.1-1.4-0.2c-0.4-0.1-0.8-0.1-1.3-0.2
		c-0.9-0.2-1.8-0.3-2.8-0.5c-0.9-0.2-1.7-0.3-2.6-0.5c-0.4-0.1-0.8-0.1-1.3-0.2c-0.7-0.1-1.3-0.2-2-0.3c-0.2,0-0.4,0.1-0.5,0.2
		c-0.1,0.1-0.2,0.3-0.2,0.5c0,0.2,0.1,0.4,0.2,0.5c0.1,0.1,0.3,0.2,0.5,0.2c0.3,0,0.6,0.1,0.9,0.1c0,0,0,0,0,0
		c0.6,0.1,1.2,0.2,1.8,0.3c0.5,0.1,1,0.2,1.6,0.3c1.1,0.2,2.3,0.5,3.4,0.7c1.2,0.2,2.4,0.5,3.6,0.6c1.2,0.1,2.3,0.3,3.5,0.4
		c2.3,0.2,4.7,0.4,7,0.6c2.4,0.1,4.8,0.2,7.2,0.3c2.3,0.1,4.7,0.2,7,0.1c1.2,0,2.4,0,3.6,0c0.6,0,1.2,0,1.7,0c0.6,0,1.2,0,1.7,0
		c0.4,0,0.8,0,1.1,0c0.2,0,0.5,0,0.7,0c0.6,0,1.2-0.1,1.8-0.1c1.2-0.1,2.3-0.2,3.5-0.2c0.6,0,1.3,0,1.9,0c0.6,0,1.1,0,1.7,0
		c1.1,0,2.3-0.1,3.4-0.2c1.1-0.1,2.2-0.3,3.3-0.4c0.5-0.1,1.1-0.1,1.6-0.1c0.7,0,1.3,0,2,0c1.2,0,2.3,0.1,3.5,0.1
		c1.1,0,2.2,0.1,3.3,0.2c0.6,0,1.3,0.1,1.9,0.1c0.6,0,1.3,0,1.9,0c1.1,0,2.2-0.1,3.3-0.1c0.7,0,1.3,0,2,0c0.5,0,0.9,0,1.4,0
		c0.9,0,1.7-0.2,2.6-0.3c0.6-0.1,1.2-0.2,1.8-0.3c0.6-0.1,1.1-0.2,1.7-0.3c1.1-0.1,2.1-0.2,3.2-0.3c1.2-0.1,2.5-0.1,3.7-0.2
		c1.2-0.1,2.5-0.1,3.7-0.1c1.1,0,2.2,0,3.3,0c0.6,0,1.2,0,1.8,0c0.6,0,1.1,0,1.7-0.1c1.3-0.1,2.5-0.3,3.8-0.4
		c0.2-0.1,0.4-0.2,0.5-0.3c0.2-0.2,0.3-0.5,0.3-0.8c0-0.6-0.5-1.1-1.1-1.1c-0.2,0-0.4,0-0.6,0C150.1,160.1,149,160.1,148,160.2
		L148,160.2z"/>
	<path class="st0" d="M98.6,70.1c-0.2,0.3-0.4,0.6-0.6,0.9c-0.1,0.1-0.1,0.2-0.2,0.3c-0.1,0.2-0.2,0.5-0.4,0.7
		c-0.2,0.4-0.4,0.8-0.6,1.2c-0.2,0.5-0.5,0.9-0.7,1.4c-0.3,0.5-0.5,0.9-0.8,1.4c-1,1.8-1.9,3.7-2.7,5.7c-0.8,1.9-1.5,3.8-2.2,5.7
		c-0.4,1.1-0.8,2.1-1.2,3.2c-0.3,0.9-0.6,1.7-1,2.6c-0.2,0.4-0.3,0.8-0.5,1.2c-0.9,2-1.8,3.9-2.7,5.9c-0.4,1-0.8,2-1.2,3
		c-0.2,0.5-0.4,0.9-0.5,1.4c-0.1,0.4-0.3,0.8-0.4,1.2c-1.4,3.9-2.7,7.9-3.8,11.9c-0.2,0.7-0.4,1.4-0.6,2c-0.1,0.3,0.1,0.7,0.5,0.8
		c0.4,0.1,0.7-0.1,0.8-0.5c0.3-1.2,0.6-2.3,1-3.5c0.1-0.5,0.3-0.9,0.4-1.4c0.2-0.6,0.4-1.2,0.6-1.9c0.6-1.9,1.4-3.8,2.1-5.7
		c0.5-1.3,1-2.6,1.5-3.9c0.4-0.9,0.7-1.7,1.1-2.6c0.5-1,0.9-2,1.4-3c0.5-1,1-2,1.4-3c0.2-0.5,0.4-1,0.7-1.5c0.2-0.5,0.4-1,0.6-1.6
		c0.8-2,1.5-3.9,2.2-5.9c0.7-1.8,1.3-3.7,1.9-5.5c0.1-0.3,0.2-0.6,0.3-0.9c0.1-0.3,0.3-0.7,0.4-1c0.3-0.7,0.7-1.5,1-2.2
		c0.3-0.8,0.7-1.6,1-2.4c0.2-0.6,0.5-1.1,0.7-1.7c0.1-0.2,0.2-0.5,0.3-0.7c0.1-0.2,0.2-0.3,0.2-0.5c0.2-0.3,0.4-0.6,0.6-0.9
		c0.1-0.2,0-0.5-0.2-0.6c-0.1,0-0.1-0.1-0.2-0.1C98.9,69.8,98.7,69.9,98.6,70.1L98.6,70.1z M97.5,74.3
		C97.5,74.3,97.5,74.3,97.5,74.3C97.5,74.3,97.5,74.3,97.5,74.3L97.5,74.3z"/>
	<path class="st0" d="M47.1,97.3c-1.6,2.4-3.2,4.8-4.7,7.3c-0.6,0.9-1.2,1.8-1.8,2.7c-0.2,0.3-0.4,0.6-0.6,0.9c-0.3,0.5-0.7,1-1,1.6
		c-0.1,0.2-0.2,0.4-0.3,0.7c-0.1,0.2-0.1,0.5,0.2,0.7c0.2,0.1,0.5,0.1,0.7-0.2c0.2-0.3,0.4-0.7,0.6-1c0.2-0.3,0.4-0.6,0.6-0.9
		c0.2-0.3,0.4-0.6,0.6-0.9c0.6-1,1.3-1.9,1.9-2.8c1.5-2.2,2.9-4.5,4.4-6.7c0.1-0.2,0.3-0.4,0.4-0.6c0.2-0.2,0.1-0.6-0.2-0.7
		c-0.1,0-0.2-0.1-0.3-0.1C47.4,97.1,47.3,97.2,47.1,97.3L47.1,97.3z"/>
	<path class="st0" d="M47.4,102.8c-1.3,2.5-2.6,4.9-3.9,7.4c-0.5,1-1,2-1.5,3c-0.4,0.8-0.8,1.7-1.3,2.5c-0.2,0.5-0.4,1-0.6,1.5
		c-0.3,0.7-0.6,1.3-0.8,2c-0.1,0.2,0,0.5,0.1,0.7c0.1,0.2,0.3,0.3,0.5,0.4c0.2,0.1,0.5,0,0.7-0.1c0.2-0.1,0.3-0.3,0.4-0.5
		c0.1-0.1,0.1-0.3,0.2-0.4c0,0,0,0,0,0.1c0,0,0-0.1,0-0.1c0,0,0-0.1,0-0.1c0,0,0,0.1,0,0.1c0.2-0.4,0.4-0.8,0.6-1.3
		c0.2-0.5,0.4-0.9,0.6-1.4c0.4-0.9,0.9-1.8,1.4-2.7c1.1-2.1,2.2-4.1,3.2-6.2c0.7-1.3,1.3-2.6,2-3.9c0.2-0.4,0.1-1-0.3-1.2
		c-0.1-0.1-0.3-0.1-0.5-0.1C47.8,102.4,47.5,102.5,47.4,102.8L47.4,102.8z M41.1,119.2C41.1,119.2,41.1,119.2,41.1,119.2
		C41.1,119.2,41.1,119.2,41.1,119.2C41.1,119.2,41.1,119.2,41.1,119.2L41.1,119.2z"/>
	<path class="st0" d="M47,111.3c-1.4,3-2.9,6-4.3,9.1c-0.9,1.9-1.8,3.9-2.6,5.9c-0.4,1-0.9,2.1-1.3,3.2c-0.2,0.4,0.1,0.9,0.5,1.1
		c0.2,0.1,0.5,0.2,0.8,0.1c0.2-0.1,0.5-0.2,0.6-0.5c1-2.2,2-4.4,3.1-6.5c1.1-2.3,2.3-4.7,3.4-7c0.7-1.4,1.3-2.8,2-4.1
		c0.1-0.3,0.2-0.6,0.1-0.9c-0.1-0.3-0.3-0.5-0.5-0.7c-0.2-0.1-0.4-0.2-0.6-0.2C47.6,110.8,47.2,110.9,47,111.3L47,111.3z"/>
	<path class="st0" d="M47,121.4c-0.2,0.1-0.3,0.2-0.3,0.4c-0.5,1.4-1.1,2.8-1.6,4.2c-0.5,1.2-0.9,2.4-1.4,3.6
		c-0.4,0.9-0.7,1.8-1.1,2.7c-0.4,0.9-0.7,1.7-1.1,2.6c-0.7,1.7-1.4,3.4-2,5.1c-0.1,0.4,0.1,0.8,0.5,0.9c0.2,0,0.4,0,0.5-0.1
		c0.2-0.1,0.3-0.2,0.3-0.4c0.7-1.9,1.5-3.7,2.3-5.6c0,0.1,0,0.1-0.1,0.2c0.4-1,0.8-2,1.2-2.9c0.3-0.7,0.6-1.4,0.9-2.1
		c0.5-1.2,0.9-2.4,1.4-3.6c0.5-1.3,1-2.7,1.5-4c0.1-0.4-0.1-0.8-0.5-0.9c-0.1,0-0.1,0-0.2,0C47.2,121.3,47.1,121.3,47,121.4
		L47,121.4z"/>
	<path class="st0" d="M76.8,149.5c-2.5,4.6-4.9,9.2-7.4,13.8c-0.5,0.9-0.9,1.7-1.4,2.6c-0.1,0.3-0.3,0.5-0.4,0.8
		c-0.2,0.4-0.5,0.8-0.7,1.2c-0.1,0.2-0.2,0.4-0.3,0.6c0,0.1-0.1,0.2-0.1,0.3c0,0.2,0,0.3,0,0.5c0.1,0.2,0.3,0.4,0.5,0.5
		c0.3,0.1,0.7-0.1,0.8-0.3c0.2-0.4,0.5-0.8,0.7-1.2c0.1-0.1,0.1-0.3,0.1-0.5c0.1-0.2,0.2-0.3,0.3-0.5c0.1-0.2,0.2-0.3,0.3-0.5
		c0.3-0.5,0.6-1.1,0.8-1.6c0.5-1,1.1-2,1.6-3.1c1.1-2.1,2.2-4.1,3.3-6.2c1-1.9,2-3.8,3-5.6c0.2-0.4,0.1-0.9-0.3-1.1
		c-0.1-0.1-0.3-0.1-0.4-0.1C77.3,149.1,77,149.2,76.8,149.5L76.8,149.5z"/>
	<path class="st0" d="M80.4,151.6c-0.2,0.1-0.5,0.2-0.6,0.4c-1,2.3-2.1,4.7-3.2,7c-0.9,1.8-1.7,3.6-2.6,5.5
		c-0.3,0.7-0.6,1.4-0.9,2.1c0,0.2,0,0.3,0,0.5c0.1,0.2,0.2,0.4,0.4,0.5c0.4,0.2,1,0.1,1.2-0.3c1-2.1,2-4.1,2.9-6.2c0.5-1,1-2,1.4-3
		c0.5-1,0.9-2,1.4-3c0.3-0.7,0.6-1.4,1-2.1c0.1-0.2,0.2-0.5,0.1-0.7c-0.1-0.2-0.2-0.5-0.4-0.6c-0.1-0.1-0.3-0.1-0.5-0.1
		C80.6,151.6,80.5,151.6,80.4,151.6L80.4,151.6z"/>
	<path class="st0" d="M84,154.7c-0.2,0.1-0.4,0.4-0.5,0.6c-0.9,2.4-1.9,4.7-2.8,7.1c-0.8,2.1-1.6,4.2-2.4,6.4
		c-0.2,0.5,0.2,1,0.6,1.1c0.2,0.1,0.5,0,0.7-0.1c0.2-0.1,0.3-0.3,0.4-0.5c0.9-2.1,1.7-4.2,2.6-6.3c1-2.4,1.9-4.7,2.8-7.1
		c0.1-0.2,0-0.6-0.1-0.8c-0.1-0.2-0.4-0.4-0.6-0.5c-0.1,0-0.2,0-0.3,0C84.3,154.6,84.1,154.6,84,154.7L84,154.7z"/>
	<path class="st0" d="M88.9,157.5c-0.3,0.1-0.5,0.2-0.6,0.5c-0.1,0.3-0.1,0.5-0.1,0.8c0,0.1,0,0.1,0,0.2c0.1,1,0,2.1-0.1,3.2
		c-0.2,1.2-0.5,2.4-0.8,3.6c-0.2,0.8-0.4,1.6-0.6,2.3c-0.3,1.3-0.6,2.6-1,3.9c-0.2,0.5,0.2,1.1,0.7,1.3c0.5,0.1,1.1-0.2,1.3-0.7
		c0.4-1.5,0.8-3.1,1.2-4.6c0.3-1,0.5-2.1,0.7-3.1c0.2-1.1,0.4-2.1,0.5-3.2c0.1-0.5,0.1-1,0.1-1.6c0-0.3,0-0.5,0-0.8
		c0-0.3-0.1-0.7-0.1-1c0-0.2-0.3-0.5-0.5-0.6c-0.2-0.1-0.3-0.1-0.5-0.1C89.1,157.5,89,157.5,88.9,157.5L88.9,157.5z M88.1,161.9
		c0,0,0,0.1,0,0.1C88.1,162,88.1,162,88.1,161.9L88.1,161.9z"/>
	<path class="st0" d="M126.2,137.4c-1.1,2.2-2.2,4.3-3.3,6.5c-0.4,0.7-0.7,1.5-1,2.2c-0.4,0.9-0.8,1.8-1.1,2.8
		c-0.1,0.3,0.1,0.7,0.3,0.9c0.2,0.1,0.4,0.1,0.6,0.1c0.2,0,0.4-0.2,0.5-0.3c0.4-0.8,0.7-1.7,1.1-2.5c0.3-0.7,0.7-1.5,1-2.2
		c1.1-2.2,2.2-4.3,3.3-6.5c0.2-0.4,0.1-0.9-0.3-1.2c-0.1-0.1-0.3-0.1-0.4-0.1C126.6,137,126.3,137.1,126.2,137.4L126.2,137.4z"/>
	<path class="st0" d="M128,141.1c-1.5,4.6-3.1,9.2-4.2,14c-0.1,0.5,0.2,1.1,0.7,1.3c0.5,0.1,1.1-0.2,1.3-0.7c1-4.8,2.6-9.4,4.1-14
		c0.2-0.5-0.2-1.1-0.7-1.2c-0.1,0-0.2,0-0.3,0C128.5,140.3,128.1,140.6,128,141.1L128,141.1z"/>
	<path class="st0" d="M153.6,63c-0.9,1.6-1.8,3.1-2.7,4.7c-0.4,0.6-0.7,1.2-1,1.8c-0.1,0.2-0.2,0.5-0.4,0.7
		c-0.1,0.2-0.2,0.4-0.3,0.5c-0.1,0.3-0.2,0.5-0.4,0.8c-0.1,0.1-0.1,0.3-0.1,0.4c0,0.1,0.1,0.3,0.3,0.3c0.2,0.1,0.6,0.1,0.8-0.2
		c0.3-0.7,0.7-1.3,1.1-2c0.4-0.6,0.7-1.2,1.1-1.8c0.9-1.6,1.8-3.1,2.8-4.7c0.2-0.3,0.1-0.7-0.2-0.8c-0.1-0.1-0.2-0.1-0.3-0.1
		C153.9,62.7,153.7,62.9,153.6,63L153.6,63z"/>
	<path class="st0" d="M155.8,65.6c-0.1,0-0.2,0.1-0.3,0.2c-1.3,2.9-2.7,5.8-3.9,8.8c0,0.1,0,0.2,0,0.2c0,0.1,0.1,0.2,0.2,0.3
		c0.1,0.1,0.2,0.1,0.3,0c0.1,0,0.2-0.1,0.3-0.2c1.3-2.9,2.6-5.7,3.9-8.6c0.1-0.1,0.1-0.2,0-0.4c0-0.1-0.1-0.2-0.2-0.3
		c-0.1,0-0.2-0.1-0.2-0.1C155.9,65.6,155.9,65.6,155.8,65.6L155.8,65.6z"/>
	<path class="st0" d="M155.6,70.4c-0.2,0.1-0.3,0.1-0.4,0.2c-0.1,0.1-0.3,0.3-0.4,0.4c-0.2,0.2-0.2,0.6,0,0.8c0.2,0.2,0.5,0.2,0.8,0
		c0,0.1,0,0.2,0,0.3c-0.1,0.5-0.2,1-0.3,1.5c-0.1,0.6-0.3,1.2-0.4,1.9c-0.1,0.3,0.1,0.6,0.4,0.7c0.3,0.1,0.6-0.1,0.7-0.4
		c0.2-0.9,0.4-1.8,0.6-2.8c0.1-0.3,0.1-0.7,0.2-1c0-0.2,0-0.4,0.1-0.6c0-0.1,0-0.2,0-0.3c0-0.1-0.1-0.3-0.1-0.4
		c-0.1-0.1-0.2-0.2-0.4-0.3c-0.1,0-0.2-0.1-0.2-0.1c0,0-0.1,0-0.2,0C155.8,70.4,155.7,70.4,155.6,70.4L155.6,70.4z"/>
	<path class="st0" d="M68.9,68.9c-0.4,0.3-0.7,0.7-1,1.1c-0.3,0.4-0.5,0.8-0.7,1.3c-0.5,0.9-0.8,1.9-1.2,2.8c0,0,0-0.1,0-0.1
		c-0.2,0.4-0.4,0.9-0.5,1.3c0-0.1,0-0.1,0.1-0.2c0,0.1-0.1,0.2-0.1,0.2c0,0.1-0.1,0.1-0.1,0.2c0,0,0,0,0-0.1
		c-1.2,2.8-2.4,5.7-3.5,8.6c-0.6,1.5-1.2,3.1-1.7,4.7c-0.4,1.1-0.7,2.1-1,3.2c-0.2,0.7-0.4,1.4-0.6,2.1c-0.2,0.6-0.4,1.2-0.5,1.9
		c-0.2,0.8,0.3,1.7,1.1,1.9c0.8,0.2,1.6-0.3,1.9-1.1c0.4-1.2,0.7-2.4,1.1-3.6c0.1-0.3,0.2-0.6,0.3-0.9c0.3-0.7,0.5-1.4,0.8-2.2
		c0.3-0.8,0.5-1.5,0.8-2.3c0.4-1,0.8-2,1.2-3c0.5-1,0.9-2.1,1.4-3.1c0.5-1.1,1.1-2.3,1.6-3.4c0.6-1.3,1.1-2.6,1.6-3.9
		c0.2-0.5,0.4-1,0.6-1.6c0.1-0.3,0.2-0.7,0.3-1c0.1-0.2,0.1-0.3,0.1-0.5l0,0c0.2,0.2,0.4,0.3,0.5,0.5c0.7,0.9,1.2,1.9,1.7,2.9
		c0.4,0.8,0.8,1.7,1.2,2.5c0.5,1.2,0.9,2.3,1.5,3.5c0.5,1.1,1,2.3,1.5,3.4c0.7,1.7,1.2,3.4,1.6,5.2c0.2,0.9,0.4,1.8,0.5,2.7
		c0.1,0.4,0.1,0.8,0.2,1.2c0.1,0.4,0.2,0.8,0.4,1.2c0.2,0.3,0.5,0.6,0.8,0.8c0.5,0.3,1,0.3,1.5,0.1c0.7-0.2,1.3-0.9,1.3-1.7
		c0-0.4-0.2-0.8-0.4-1.1c-0.1-0.2-0.1-0.4-0.2-0.7c-0.1-0.4-0.2-0.8-0.4-1.2c-0.2-0.7-0.4-1.4-0.7-2.1c-0.5-1.5-1-3-1.6-4.4
		c-0.3-0.8-0.7-1.5-1.1-2.3c-0.4-0.8-0.8-1.6-1.2-2.4c-0.7-1.5-1.4-2.9-2.1-4.4c-0.4-0.8-0.8-1.6-1.2-2.3c-0.4-0.7-0.8-1.4-1.2-2
		c-0.6-1-1.5-1.9-2.7-2c-0.2,0-0.3,0-0.5,0C69.7,68.6,69.3,68.7,68.9,68.9L68.9,68.9z M70.3,71.2c0,0-0.1,0-0.1,0
		C70.3,71.2,70.3,71.2,70.3,71.2L70.3,71.2z M70.7,71.3c0.1,0,0.1,0.1,0.1,0.1C70.8,71.4,70.8,71.4,70.7,71.3L70.7,71.3z M74,77.3
		c0,0.1,0.1,0.1,0.1,0.2C74.1,77.4,74,77.3,74,77.3L74,77.3z M65.3,75.6c0,0,0-0.1,0.1-0.1c0,0,0-0.1,0-0.1
		C65.4,75.4,65.3,75.5,65.3,75.6L65.3,75.6z"/>
	<path class="st0" d="M130.8,69.3c-0.3,0.1-0.5,0.2-0.8,0.4c-0.4,0.4-0.7,0.8-1,1.3c-0.5,0.8-0.8,1.6-1.2,2.4
		c-0.3,0.8-0.7,1.6-1,2.3c-1.4,3.3-2.7,6.7-4,10.1c-0.6,1.6-1.2,3.2-1.8,4.8c-0.3,0.8,0.3,1.7,1.1,1.9c0.4,0.1,0.8,0.1,1.2-0.2
		c0.4-0.2,0.6-0.5,0.7-0.9c0.8-2.2,1.6-4.3,2.4-6.4c0.6-1.5,1.2-3.1,1.8-4.6c1-2.6,2.2-5.2,3.3-7.8c0,0,0,0,0,0
		c0.6,0.8,1.1,1.7,1.5,2.5c0.4,0.7,0.8,1.5,1.3,2.2c0.4,0.7,0.8,1.4,1.1,2.1c0.3,0.7,0.7,1.4,1,2.1c0.4,1,0.8,2,1.2,3
		c0.5,1,1,2.1,1.4,3.1c0.4,0.9,0.8,1.9,1.1,2.9c0.4,1.1,0.8,2.3,1.4,3.4c0.4,0.7,1.3,1.1,2.1,0.9c0.9-0.3,1.6-1.3,1.3-2.3
		c-0.3-0.9-0.7-1.8-1.1-2.7c-0.4-0.8-0.7-1.6-1.1-2.5c-0.7-1.6-1.6-3.1-2.3-4.6c-0.8-1.5-1.4-3.1-2.2-4.5c-0.9-1.6-1.9-3.1-2.9-4.7
		c-0.7-1.2-1.5-2.4-2.5-3.3c-0.2-0.2-0.4-0.3-0.6-0.5c-0.1-0.1-0.5-0.3-0.6-0.3c-0.2,0-0.4-0.1-0.6-0.1
		C131,69.3,130.9,69.3,130.8,69.3L130.8,69.3z M131.7,72.7C131.7,72.7,131.8,72.7,131.7,72.7C131.8,72.7,131.7,72.7,131.7,72.7
		L131.7,72.7z"/>
	<path class="st0" d="M68.4,57.1c-0.4,0.1-0.7,0.2-1.1,0.3c-0.5,0.2-1,0.3-1.5,0.6c-0.3,0.1-0.7,0.3-1,0.5c-0.4,0.2-0.7,0.6-1,0.9
		c-0.6,0.6-1.1,1.3-1.4,2c-0.2,0.4-0.3,0.8-0.4,1.3c-0.1,0.6-0.1,1.1,0.1,1.6c0.1,0.4,0.3,0.8,0.5,1.1c0.2,0.3,0.4,0.6,0.7,0.9
		c0.3,0.4,0.7,0.7,1,1c0.5,0.5,1.1,0.9,1.6,1.4c0.6,0.5,1.2,1,1.9,1.4c0.4,0.2,0.9,0.4,1.3,0.6c0.5,0.2,1,0.3,1.5,0.3
		c0.3,0.1,0.6,0.1,0.9-0.1c0.3-0.2,0.5-0.4,0.5-0.7c0.1-0.3,0-0.6-0.1-0.9c-0.1-0.2-0.4-0.5-0.7-0.5c-0.5-0.1-1-0.2-1.5-0.4
		c-0.6-0.3-1.2-0.6-1.7-1c-0.5-0.4-1-0.8-1.5-1.2c-0.6-0.5-1.2-1-1.7-1.6c-0.2-0.3-0.4-0.6-0.6-0.9c0-0.1-0.1-0.2-0.1-0.4
		c0-0.1,0-0.1,0-0.2c0-0.3,0.1-0.5,0.2-0.8c0.2-0.5,0.5-0.9,0.8-1.3c0.2-0.3,0.4-0.5,0.7-0.7c0.3-0.2,0.6-0.3,0.9-0.5
		c0.7-0.3,1.5-0.6,2.3-0.7c0.2,0,0.4,0,0.7,0c0.4,0.1,0.8,0.2,1.2,0.4c0.6,0.3,1.2,0.6,1.7,0.9c0.2,0.2,0.4,0.4,0.6,0.6
		c0.3,0.4,0.5,0.7,0.7,1.1c0.1,0.3,0.2,0.7,0.2,1.1c0.1,0.9,0.2,1.8,0.1,2.7c0,0.2-0.1,0.3-0.1,0.5c-0.1,0.1-0.1,0.2-0.2,0.3
		c-0.2,0.3-0.5,0.5-0.7,0.7c-0.1,0.1-0.1,0.1-0.2,0.2c-0.3,0.2-0.5,0.4-0.6,0.7c-0.1,0.3,0,0.7,0.1,1c0.2,0.3,0.4,0.5,0.7,0.6
		c0.3,0.1,0.7,0.1,1-0.1c0.3-0.3,0.7-0.5,1-0.8c0.3-0.3,0.5-0.6,0.7-0.9c0.5-0.7,0.7-1.6,0.7-2.5c0-0.8-0.1-1.7-0.2-2.5
		c-0.1-0.4-0.1-0.8-0.2-1.2c-0.1-0.4-0.3-0.7-0.5-1c-0.4-0.7-0.9-1.4-1.5-1.9c-0.5-0.4-1-0.8-1.6-1c-0.6-0.3-1.2-0.5-1.8-0.7
		C70.4,57.1,70,57,69.5,57C69.1,57,68.8,57,68.4,57.1L68.4,57.1z"/>
	<path class="st0" d="M129.8,57.9c-0.8,0.3-1.5,0.8-2.2,1.2c-0.8,0.5-1.4,1.2-1.9,2c-0.4,0.8-0.6,1.7-0.7,2.6c-0.1,1,0,1.9,0.2,2.9
		c0.2,0.9,0.6,1.8,1.1,2.6c0.2,0.4,0.6,0.8,0.9,1.1c0.3,0.4,0.8,0.7,1.2,1c0.7,0.5,1.5,0.9,2.3,1.3c0.3,0.2,0.7,0.3,1,0.5
		c0.4,0.2,0.7,0.3,1.1,0.1c0.4-0.1,0.7-0.3,0.9-0.7c0.3-0.6,0.2-1.4-0.3-1.8c0.4,0.1,0.8,0.1,1.1-0.1c1.2-0.7,2.3-1.6,3-2.9
		c0.2-0.4,0.4-0.9,0.6-1.3c0.2-0.4,0.3-0.9,0.4-1.4c0.2-1,0.2-1.9,0-2.9c-0.1-0.4-0.3-0.8-0.4-1.2c-0.2-0.4-0.4-0.8-0.6-1.2
		c-0.5-0.8-1.2-1.6-2.1-2c-0.8-0.4-1.7-0.4-2.5-0.5c-0.1,0-0.1,0-0.2,0C131.5,57.5,130.6,57.6,129.8,57.9L129.8,57.9z M133.3,59.7
		c0.3,0,0.5,0.1,0.8,0.2c0.1,0.1,0.2,0.1,0.4,0.2c0.2,0.2,0.4,0.3,0.5,0.5c0.3,0.4,0.5,0.9,0.8,1.4c0.1,0.4,0.3,0.7,0.3,1.1
		c0,0.3,0,0.6,0,0.9c-0.1,0.5-0.2,1-0.4,1.6c-0.2,0.5-0.4,0.9-0.7,1.4c-0.3,0.3-0.5,0.6-0.8,0.8c-0.3,0.2-0.5,0.4-0.8,0.6
		c0,0,0.1-0.1,0.1-0.1c-0.1,0.1-0.3,0.2-0.4,0.3c-0.3,0.2-0.5,0.4-0.6,0.8c-0.1,0.3,0,0.7,0.1,1c0.1,0.1,0.2,0.2,0.3,0.3
		c-1.2-0.6-2.3-1.1-3.4-1.8c-0.3-0.3-0.6-0.6-0.9-0.9c-0.3-0.4-0.5-0.8-0.8-1.3c-0.2-0.4-0.3-0.9-0.3-1.3c-0.1-0.7-0.1-1.3,0-2
		c0.1-0.4,0.1-0.7,0.3-1c0.1-0.2,0.2-0.4,0.3-0.6c0.2-0.3,0.5-0.5,0.8-0.8c0.5-0.4,1.1-0.8,1.7-1c0.3-0.1,0.7-0.2,1-0.3
		C132.1,59.6,132.7,59.6,133.3,59.7L133.3,59.7z M131.4,59.7c0,0-0.1,0-0.1,0C131.3,59.7,131.4,59.7,131.4,59.7L131.4,59.7z"/>
	<path class="st0" d="M67.4,84c-0.1,0-0.2,0.1-0.3,0.2c-1.3,2.9-2.5,5.7-3.8,8.6c-0.7,1.7-1.5,3.4-2.2,5c-0.6,1.5-1.3,3-1.9,4.5
		c-0.1,0.2,0,0.4,0.2,0.5c0.1,0.1,0.2,0.1,0.3,0c0.1,0,0.2-0.1,0.3-0.2c0.9-2,1.8-4,2.7-6c0.9-2,1.8-4.1,2.7-6.1
		c0.9-2,1.7-4,2.6-5.9c0.1-0.1,0.1-0.2,0-0.4c0-0.1-0.1-0.2-0.2-0.3c-0.1,0-0.2-0.1-0.2-0.1C67.5,84,67.5,84,67.4,84L67.4,84z"/>
	<path class="st0" d="M71.4,83.6c-0.1,0.1-0.2,0.2-0.3,0.3c-1.2,2.9-2.4,5.8-3.6,8.7c-0.8,1.9-1.6,3.9-2.3,5.8
		c-0.3,0.7-0.5,1.3-0.8,2c-0.2,0.6-0.5,1.2-0.7,1.8c-0.1,0.2-0.1,0.3-0.2,0.5c-0.1,0.3-0.2,0.7-0.3,1c-0.1,0.4-0.2,0.7-0.2,1.1
		c0,0.3,0.1,0.5,0.3,0.6c0.3,0.1,0.5-0.1,0.6-0.3c0.1-0.4,0.2-0.7,0.3-1.1c0.1-0.3,0.3-0.7,0.4-1c0.1-0.2,0.2-0.4,0.2-0.6
		c0.3-0.7,0.5-1.3,0.8-2c0.3-0.8,0.7-1.6,1-2.5c0.8-1.9,1.6-3.9,2.4-5.8c1.1-2.6,2.1-5.2,3.2-7.8c0.1-0.1,0-0.3-0.1-0.4
		c-0.1-0.1-0.2-0.2-0.4-0.3c-0.1,0-0.1,0-0.2,0C71.6,83.5,71.5,83.6,71.4,83.6L71.4,83.6z"/>
	<path class="st0" d="M74.5,85.6c-0.2,0.1-0.2,0.2-0.3,0.4c-1.2,3-2.3,6-3.5,8.9c-0.5,1.2-0.9,2.4-1.4,3.6c-0.2,0.6-0.5,1.3-0.7,1.9
		c-0.4,1.2-0.9,2.4-1.3,3.6c-0.3,0.8-0.5,1.6-0.8,2.4c-0.7,2-1.3,4-1.9,6.1c-0.1,0.3,0.1,0.6,0.4,0.7c0.3,0.1,0.6-0.1,0.7-0.4
		c0.7-2.2,1.4-4.5,2.1-6.7c0.2-0.5,0.3-1,0.5-1.4c0.1-0.3,0.2-0.6,0.3-0.9c0.5-1.3,1-2.6,1.4-4c0.6-1.7,1.3-3.4,1.9-5
		c1.1-2.8,2.1-5.6,3.2-8.3c0.1-0.2,0-0.4-0.1-0.5c-0.1-0.1-0.2-0.2-0.4-0.3c-0.1,0-0.1,0-0.2,0C74.7,85.5,74.6,85.6,74.5,85.6
		L74.5,85.6z"/>
	<path class="st0" d="M78.4,88.1c-0.1,0-0.3,0.1-0.3,0.2c-0.7,1.7-1.5,3.4-2.2,5.2c-0.5,1.3-1.1,2.5-1.6,3.8c-0.5,1.2-1,2.3-1.5,3.5
		c-0.3,0.7-0.6,1.4-0.8,2c-0.8,1.9-1.5,3.8-2.3,5.7c-0.3,0.9-0.7,1.7-1,2.6c-0.4,1-0.8,2.1-1.2,3.1c-0.1,0.2,0.1,0.5,0.3,0.5
		c0.1,0,0.2,0,0.3,0c0.1-0.1,0.2-0.1,0.2-0.3c0.9-2.1,1.7-4.3,2.6-6.4c0.8-2.1,1.7-4.1,2.5-6.2c0.1-0.2,0.1-0.3,0.2-0.5
		c1.1-2.7,2.3-5.4,3.4-8.1c0,0,0,0,0,0c0,0,0,0,0-0.1c0,0,0,0,0-0.1c0,0,0,0,0,0c0,0,0,0,0-0.1c0,0,0,0,0,0.1c0,0,0,0,0,0
		c0.6-1.4,1.2-2.9,1.8-4.3c0.1-0.1,0.1-0.3,0.1-0.4c0-0.1-0.1-0.3-0.2-0.3c-0.1,0-0.2-0.1-0.3-0.1C78.4,88.1,78.4,88.1,78.4,88.1
		L78.4,88.1z M77.1,93.2C77.1,93.2,77.1,93.2,77.1,93.2C77.1,93.3,77.1,93.3,77.1,93.2C77.1,93.3,77.1,93.3,77.1,93.2L77.1,93.2z
		 M77.1,93.3C77.1,93.3,77.1,93.3,77.1,93.3C77.1,93.3,77.1,93.3,77.1,93.3C77.1,93.3,77.1,93.3,77.1,93.3L77.1,93.3z M73.6,101.5
		C73.6,101.5,73.6,101.5,73.6,101.5C73.6,101.5,73.6,101.5,73.6,101.5L73.6,101.5z"/>
	<path class="st0" d="M80.7,89.7c-0.1,0.1-0.2,0.2-0.3,0.3c-1.8,4.9-3.5,9.9-5.3,14.8c-0.6,1.8-1.3,3.7-1.9,5.5
		c-0.6,1.8-1.3,3.6-1.9,5.5c-0.1,0.3,0.1,0.5,0.4,0.6c0.3,0.1,0.5-0.1,0.6-0.4c1.5-4.2,2.9-8.3,4.4-12.5c1.6-4.4,3.2-8.9,4.7-13.3
		c0.1-0.3-0.1-0.6-0.4-0.7c0,0-0.1,0-0.1,0C80.9,89.6,80.8,89.6,80.7,89.7L80.7,89.7z"/>
	<path class="st0" d="M135.9,71.5c-0.9,1.5-1.7,3-2.6,4.5c-0.7,1.2-1.3,2.4-2,3.6c-0.9,1.7-1.9,3.3-2.8,5c-1,1.9-2,3.8-3,5.8
		c-1,2-2.1,4.1-3,6.2c-0.1,0.2-0.1,0.3-0.1,0.5c0,0.2,0.2,0.3,0.3,0.4c0.3,0.2,0.7,0.1,0.9-0.2c1.1-2.1,2.1-4.2,3.2-6.2
		c1-2,2.1-3.9,3.1-5.9c0.9-1.6,1.8-3.2,2.7-4.9c0.6-1.2,1.3-2.3,1.9-3.5c0.8-1.5,1.7-2.9,2.6-4.4c0.2-0.3,0.1-0.8-0.3-1
		c-0.1-0.1-0.2-0.1-0.4-0.1C136.3,71.2,136,71.3,135.9,71.5L135.9,71.5z"/>
	<path class="st0" d="M136,79.2c-1.3,2.4-2.6,4.7-4,7.1c-0.2,0.3-0.3,0.6-0.5,0.8c-0.4,0.7-0.7,1.3-1.1,2c-0.4,0.8-0.8,1.5-1.2,2.3
		c-1.4,2.8-2.8,5.6-4.1,8.5c-0.1,0.1-0.1,0.2,0,0.4c0,0.1,0.1,0.2,0.2,0.3c0.2,0.1,0.5,0.1,0.7-0.2c0.9-1.8,1.8-3.7,2.7-5.6
		c0.5-1.1,1.1-2.1,1.6-3.2c0.2-0.3,0.4-0.7,0.5-1c0.4-0.7,0.7-1.3,1.1-2c0.3-0.6,0.6-1.2,1-1.8c0.3-0.5,0.6-1,0.9-1.5
		c1-1.9,2.1-3.7,3.1-5.6c0.1-0.2,0.1-0.6-0.2-0.7c-0.1,0-0.2-0.1-0.3-0.1C136.3,78.9,136.1,79,136,79.2L136,79.2z"/>
	<path class="st0" d="M136.3,84c0,0.3,0.1,0.6,0.1,1c-0.1,0.7-0.4,1.4-0.6,2.1c0,0,0-0.1,0-0.1c0,0,0,0.1-0.1,0.1c0,0,0,0,0,0.1
		c0,0,0,0,0,0c-0.3,0.6-0.5,1.2-0.8,1.7c-0.3,0.7-0.6,1.4-1,2.1c-0.7,1.4-1.4,2.7-2,4c-0.6,1.1-1.1,2.2-1.7,3.4
		c-0.9,1.8-1.8,3.6-2.6,5.3c-0.5,1-1,2.1-1.5,3.1c-0.1,0.1-0.1,0.3-0.1,0.4c0,0.1,0.1,0.3,0.3,0.3c0.3,0.2,0.6,0.1,0.8-0.2
		c1.1-2,2.1-4,3.2-6.1c1.1-2,2.1-4.1,3.1-6.1c0.5-0.9,0.9-1.8,1.4-2.7c0.5-1,0.9-1.9,1.4-2.9c0.4-0.9,0.8-1.8,1.2-2.7
		c0.2-0.5,0.3-1,0.4-1.5c0-0.2,0.1-0.4,0.1-0.7c0-0.1,0-0.2,0-0.3c0-0.1,0-0.3,0-0.4c0-0.2-0.1-0.4-0.2-0.5
		c-0.1-0.1-0.3-0.2-0.5-0.2C136.7,83.3,136.3,83.6,136.3,84L136.3,84z M135.7,87.1C135.7,87.1,135.7,87.1,135.7,87.1
		C135.7,87,135.7,87,135.7,87.1C135.7,87,135.7,87.1,135.7,87.1L135.7,87.1z"/>
	<path class="st0" d="M141.7,86.1c-0.1,0-0.3,0.2-0.4,0.3c-0.6,1.3-1.1,2.7-1.7,4c-0.6,1.4-1.2,2.7-1.8,4.1c-0.3,0.8-0.7,1.5-1,2.3
		c-0.4,1-0.9,1.9-1.3,2.9c-0.7,1.5-1.4,3-2,4.5c-0.3,0.8-0.7,1.5-1,2.3c-0.4,0.8-0.7,1.7-1.1,2.5c0,0,0,0,0,0
		c-0.1,0.3-0.2,0.5-0.3,0.8c-0.1,0.2,0.1,0.6,0.3,0.7c0.1,0.1,0.3,0.1,0.5,0.1c0.1,0,0.3-0.1,0.4-0.3c1.8-4.2,3.8-8.3,5.7-12.4
		c0.6-1.4,1.2-2.8,1.9-4.2c0.4-1,0.9-2,1.3-3c0.5-1.2,1-2.3,1.5-3.5c0.1-0.2,0.1-0.3,0.1-0.5c0-0.2-0.2-0.3-0.3-0.4
		c-0.1-0.1-0.2-0.1-0.3-0.1C141.8,86.1,141.8,86.1,141.7,86.1L141.7,86.1z M131.2,109c0,0,0-0.1,0.1-0.1
		C131.3,108.9,131.2,109,131.2,109L131.2,109z"/>
</g>
</svg>
