<?xml version="1.0" encoding="utf-8"?>
<!-- Generator: Adobe Illustrator 23.0.6, SVG Export Plug-In . SVG Version: 6.00 Build 0)  -->
<svg version="1.1" id="Layer_1" xmlns="http://www.w3.org/2000/svg" xmlns:xlink="http://www.w3.org/1999/xlink" x="0px" y="0px"
	 viewBox="0 0 80 80" style="enable-background:new 0 0 80 80;" xml:space="preserve">
<style type="text/css">
	.st0{fill:#1A1A1A;}
</style>
<g>
	<path class="st0" d="M47.7,10c-0.6,0-1.2,0.1-1.8,0.1c-1,0.1-2.1,0.1-3.1,0.1c-1.2,0-2.4,0-3.6,0.1c-1.2,0.1-2.4,0.2-3.5,0.4
		c-0.9,0.1-1.7,0.2-2.6,0.3c-0.9,0.1-1.7,0.2-2.6,0.3c-0.5,0.1-0.9,0.1-1.4,0.2c-0.4,0.1-0.8,0.2-1.1,0.3c-0.3,0-0.7,0.1-1,0.1
		c-0.3,0-0.7,0.1-0.9,0.2c-0.3,0.2-0.6,0.4-0.8,0.7c-0.1,0.1-0.1,0.2-0.2,0.3c-0.3,0.1-0.5,0.3-0.8,0.4c-0.3,0.2-0.5,0.7-0.3,1
		c0.1,0.2,0.3,0.3,0.5,0.3c0,0,0,0,0,0c-0.1,0.6-0.2,1.3-0.3,1.9c0,0.2-0.1,0.5-0.1,0.7c0,0.1,0,0.3,0,0.4c0,0.4,0,0.8,0.2,1.1
		c0.2,0.4,0.6,0.6,1,0.7c0.3,0.1,0.7,0.2,1.1,0.2c0.3,0,0.6,0,0.8,0c0.5,0,1.1,0,1.6,0c0.2,0,0.4,0,0.6,0c0,0,0,0,0.1,0
		c0,0.1,0.1,0.1,0.1,0.2c0.2,0.6,0.3,1.1,0.4,1.7c0.1,1.3,0.2,2.6,0.2,3.9c0,1.3-0.1,2.6-0.3,3.9c0,0.2-0.1,0.3-0.1,0.5
		c-0.3,0.1-0.5,0.3-0.8,0.4c-0.3,0.1-0.5,0.3-0.8,0.4c-0.4,0.2-0.9,0.5-1.3,0.8c-0.5,0.3-1,0.7-1.5,1c-0.5,0.3-0.9,0.7-1.4,1.1
		c-0.7,0.5-1.3,1.1-1.9,1.6c-0.6,0.6-1.2,1.3-1.7,2c-0.4,0.5-0.7,1-1.1,1.5c-0.3,0.5-0.7,1-1,1.5c-0.1,0.2-0.2,0.4-0.3,0.6
		c-0.1,0.3-0.3,0.5-0.4,0.8c-0.1,0.3-0.3,0.5-0.4,0.8c-0.1,0.2-0.2,0.4-0.3,0.7c-0.2,0.6-0.5,1.1-0.7,1.7c-0.1,0.3-0.2,0.7-0.4,1
		c-0.2,0.6-0.4,1.2-0.5,1.8c-0.3,1.3-0.4,2.7-0.5,4c0,0.6,0,1.1-0.1,1.7c0,0.5,0,1,0,1.5c0,0.3,0,0.7,0.1,1c0,0.3,0.1,0.6,0.1,0.9
		c0.1,0.6,0.2,1.1,0.3,1.7c0.1,0.3,0.2,0.6,0.2,0.9c0.1,0.3,0.2,0.6,0.3,0.9c0.1,0.2,0.2,0.4,0.2,0.6c0.1,0.3,0.2,0.6,0.4,0.9
		c0.3,0.5,0.5,1.1,0.8,1.6c0.3,0.5,0.6,1,0.9,1.5c0.3,0.4,0.6,0.9,0.9,1.3c0.2,0.3,0.4,0.6,0.7,0.9c0.2,0.2,0.3,0.4,0.5,0.6
		c0.8,0.9,1.5,1.7,2.3,2.5c0.2,0.2,0.5,0.5,0.7,0.7c0.5,0.5,1.1,1,1.8,1.5c1,0.7,2,1.3,3.1,1.9c0.3,0.2,0.6,0.3,0.9,0.5
		c0.2,0.1,0.4,0.2,0.7,0.3c0.6,0.3,1.2,0.5,1.8,0.7c0.5,0.2,1.1,0.4,1.6,0.6c0.5,0.2,1.1,0.3,1.6,0.5c1.1,0.2,2.2,0.5,3.3,0.6
		c0.7,0.1,1.4,0.2,2.1,0.3c0.3,0,0.6,0.1,1,0.1c0.3,0,0.5,0.1,0.8,0.1c0.3,0,0.6,0,0.9,0c0.3,0,0.5,0,0.8,0c0.3,0,0.6,0,1,0
		c0.2,0,0.5,0,0.7,0c1.6-0.2,3.3-0.3,4.9-0.8c1.1-0.3,2.1-0.8,3-1.3c0.5-0.2,0.9-0.5,1.3-0.8c0.2-0.2,0.5-0.3,0.7-0.5
		c0.3-0.2,0.6-0.4,0.8-0.6c0.5-0.4,0.9-0.8,1.3-1.2c0.8-0.8,1.6-1.5,2.3-2.4c0.8-1,1.6-2.1,2.4-3.2c0.1-0.2,0.2-0.4,0.3-0.5
		c0.2-0.3,0.3-0.5,0.5-0.8c0.3-0.5,0.5-0.9,0.8-1.4c0.3-0.5,0.5-1.1,0.8-1.6c0.3-0.7,0.6-1.3,0.8-2c0.4-1,0.7-2.1,1-3.2
		c0.3-1.2,0.5-2.5,0.6-3.7c0.1-1.1,0.2-2.2,0.2-3.3c0-1.2-0.1-2.4-0.3-3.6c-0.2-1.1-0.4-2.2-0.7-3.2c-0.1-0.3-0.2-0.6-0.3-0.9
		c-0.1-0.3-0.2-0.6-0.3-0.9c-0.2-0.6-0.5-1.1-0.8-1.7c-0.6-1-1.2-2-1.8-3c-0.4-0.5-0.8-1.1-1.2-1.6c-0.4-0.4-0.7-0.8-1.1-1.2
		c-0.5-0.5-1-1-1.5-1.5c-0.6-0.6-1.4-1.1-2.1-1.5c-0.5-0.3-1-0.6-1.4-0.8c-0.6-0.3-1.2-0.6-1.8-0.8c-0.3-0.1-0.5-0.2-0.7-0.3
		c-0.2-0.1-0.5-0.1-0.7-0.2c-0.4-0.1-0.8-0.2-1.2-0.3c-0.4-0.1-0.9-0.2-1.3-0.3c-0.5-0.1-1-0.2-1.5-0.3c-0.1,0-0.2-0.1-0.2-0.1
		c-0.1-0.1-0.1-0.1-0.2-0.2c-0.1-0.1-0.1-0.2-0.2-0.4c-0.2-0.6-0.3-1.2-0.4-1.8c-0.1-0.5-0.1-1-0.1-1.5c0-0.6,0-1.2,0-1.8
		c0-0.5,0-1.1,0-1.6c0-0.3,0-0.6,0-0.8c0-0.3,0-0.5,0-0.8c0,0,0,0,0,0c0,0,0,0,0.1-0.1c0.1-0.1,0.3-0.2,0.4-0.2
		c0.5-0.2,1.1-0.4,1.6-0.5c0.3-0.1,0.7-0.3,1-0.4c0.3-0.1,0.6-0.3,0.8-0.6c0.5-0.5,0.8-1.2,1-1.9c0.1-0.5,0.2-1.1,0.1-1.7
		c0-0.4-0.1-0.7-0.1-1c0-0.2-0.1-0.4-0.1-0.7c0-0.2-0.1-0.3-0.1-0.5c-0.1-0.4-0.4-0.7-0.7-1c-0.5-0.5-1.3-0.7-2-0.8
		c-0.3,0-0.7-0.1-1-0.1C47.8,10,47.8,10,47.7,10L47.7,10z M43.6,12c0.8,0,1.6,0,2.4-0.1c0.8,0,1.6-0.1,2.4,0
		c0.3,0.1,0.6,0.1,0.9,0.2c0.1,0,0.2,0.1,0.3,0.1c0.1,0.1,0.1,0.1,0.2,0.2c0,0,0,0,0,0c0.2,0.5,0.3,1,0.4,1.5c0,0.1,0,0.1,0,0.2
		c0,0.3,0,0.6,0,0.9c-0.1,0.3-0.1,0.6-0.2,0.9c-0.1,0.1-0.1,0.2-0.2,0.3c-0.1,0.1-0.2,0.2-0.2,0.2c-0.2,0.2-0.5,0.3-0.7,0.4
		c-0.5,0.2-1.1,0.3-1.6,0.5c-0.6,0.2-1.3,0.5-1.7,1.1c-0.2,0.4-0.3,0.9-0.3,1.3c-0.1,1.1-0.1,2.2-0.2,3.4c0,1.1,0,2.2,0.1,3.3
		c0.1,0.6,0.1,1.1,0.3,1.7c0.2,0.9,0.7,1.6,1.5,2.2c0.6,0.5,1.5,0.6,2.2,0.8c0.6,0.2,1.2,0.3,1.9,0.5c0.4,0.1,0.8,0.2,1.1,0.4
		c0.2,0.1,0.4,0.2,0.7,0.3c1.3,0.7,2.6,1.4,3.8,2.3c0.8,0.6,1.4,1.3,2.1,2c0.4,0.5,0.8,0.9,1.2,1.4c0.5,0.7,1,1.4,1.4,2.2
		c0.3,0.4,0.5,0.9,0.8,1.4c0.2,0.4,0.4,0.8,0.6,1.2c0.1,0.3,0.3,0.7,0.4,1c0.2,0.5,0.3,1,0.4,1.5c0.1,0.5,0.2,1,0.3,1.5
		c0.1,0.3,0.1,0.7,0.2,1c0,0.4,0.1,0.8,0.1,1.2c0,0.5,0,1.1,0,1.6c0,1-0.1,1.9-0.2,2.9c-0.1,0.6-0.2,1.1-0.3,1.7
		c-0.1,0.6-0.3,1.3-0.5,1.9c-0.3,1.2-0.8,2.3-1.2,3.4c-0.3,0.6-0.6,1.2-0.9,1.8c-0.3,0.6-0.6,1.2-1,1.7c-0.2,0.3-0.4,0.7-0.6,1
		c-0.2,0.3-0.3,0.5-0.5,0.7c-0.3,0.5-0.7,1-1,1.4c-0.3,0.3-0.5,0.7-0.8,1c-0.4,0.4-0.8,0.9-1.2,1.3c-0.4,0.4-0.8,0.7-1.2,1.1
		c-0.3,0.3-0.6,0.6-1,0.8c-0.2,0.2-0.5,0.4-0.7,0.5c-0.3,0.2-0.6,0.4-0.8,0.5c-0.7,0.4-1.4,0.8-2.2,1.2c-0.8,0.3-1.5,0.5-2.3,0.7
		c-0.4,0.1-0.8,0.1-1.2,0.2c-0.5,0.1-1.1,0.1-1.6,0.2c-0.4,0-0.8,0-1.2,0.1c-0.4,0-0.8,0-1.1,0c-1.4,0-2.8-0.2-4.1-0.3
		c0.1,0,0.2,0,0.2,0c-0.6-0.1-1.2-0.2-1.8-0.3c-0.5-0.1-0.9-0.2-1.4-0.2c-0.3-0.1-0.7-0.2-1-0.3c-0.3-0.1-0.6-0.1-0.8-0.2
		c-0.5-0.2-0.9-0.3-1.4-0.5c-0.6-0.2-1.1-0.4-1.7-0.7c-0.4-0.2-0.9-0.4-1.3-0.6c-1.1-0.5-2.1-1.1-3-1.8c-1-0.8-2-1.8-2.9-2.7
		c-0.7-0.7-1.4-1.5-2-2.3c-0.6-0.8-1.1-1.5-1.6-2.3c-0.3-0.5-0.6-0.9-0.8-1.4c-0.2-0.4-0.4-0.8-0.6-1.2c-0.1-0.3-0.2-0.6-0.4-0.9
		c-0.1-0.3-0.2-0.7-0.3-1s-0.2-0.7-0.2-1c-0.1-0.3-0.1-0.7-0.2-1c0-0.3-0.1-0.6-0.1-0.9c0-0.3,0-0.6,0-0.9c0-0.6,0-1.3,0-1.9
		c0-0.5,0-1.1,0.1-1.6c0-0.3,0-0.7,0.1-1c0-0.3,0.1-0.5,0.1-0.8c0.1-0.8,0.3-1.6,0.6-2.4c0.1-0.4,0.2-0.7,0.4-1.1
		c0,0.1-0.1,0.1-0.1,0.2c0.4-1,0.9-2.1,1.4-3.1c0.3-0.6,0.6-1.1,1-1.7c0.3-0.5,0.7-1,1-1.5c0,0.1-0.1,0.1-0.1,0.2
		c0.3-0.4,0.6-0.8,1-1.2c0.2-0.2,0.4-0.5,0.6-0.7c0.5-0.5,1-1,1.5-1.4c0.3-0.2,0.6-0.4,0.9-0.7c0.3-0.2,0.6-0.4,1-0.6
		c0.7-0.4,1.4-0.8,2-1.2c0.6-0.4,1.3-0.7,2-1c0.5-0.2,1-0.4,1.5-0.8c0.2-0.2,0.5-0.5,0.5-0.8c0-0.1,0.1-0.3,0.1-0.4
		c0-0.1,0-0.3,0-0.4c0-0.1,0-0.3-0.1-0.4C32.1,29,32,27.9,32,26.8c0-1.1-0.1-2.2-0.3-3.3c-0.1-0.6-0.2-1.2-0.2-1.9
		c0-0.2-0.1-0.4-0.1-0.7c-0.1-0.5-0.2-0.9-0.3-1.4c-0.1-0.3-0.2-0.6-0.4-0.7c-0.1-0.1-0.3-0.2-0.4-0.3c-0.2-0.1-0.4-0.2-0.5-0.2
		c-0.2-0.1-0.5-0.1-0.8-0.2c-0.2,0-0.3,0-0.5-0.1C28,18.1,27.4,18,26.9,18c-0.1,0-0.1,0-0.2,0c-0.2,0-0.3-0.1-0.5-0.1
		c0-0.8,0-1.6,0.1-2.4c0.1-0.4,0.2-0.9,0.3-1.3c0.4-0.2,0.7-0.3,1.1-0.5c0.9-0.4,2-0.6,3-0.7c1-0.1,2-0.3,3-0.3
		c0.5,0,1.1-0.1,1.6-0.1c0.6-0.1,1.2-0.1,1.7-0.2c1.8-0.2,3.6-0.2,5.5-0.2c0.2,0,0.4,0,0.5,0C43.2,12,43.4,12,43.6,12L43.6,12z
		 M49.8,12.6C49.8,12.6,49.8,12.6,49.8,12.6C49.8,12.6,49.8,12.6,49.8,12.6L49.8,12.6z M30.6,12.9C30.6,12.9,30.6,12.9,30.6,12.9
		C30.6,12.9,30.6,12.9,30.6,12.9L30.6,12.9z M47.6,19.1C47.6,19.1,47.6,19.1,47.6,19.1C47.6,19.1,47.6,19.1,47.6,19.1L47.6,19.1z
		 M29.6,20C29.6,20,29.6,20,29.6,20C29.6,20,29.6,20,29.6,20L29.6,20z M29.6,20C29.6,20,29.7,20,29.6,20C29.7,20,29.6,20,29.6,20
		L29.6,20z M29.5,20c0,0,0.1,0,0.1,0C29.6,20,29.5,20,29.5,20L29.5,20z M29.8,20.3C29.8,20.3,29.9,20.4,29.8,20.3
		C29.9,20.4,29.8,20.3,29.8,20.3L29.8,20.3z"/>
	<path class="st0" d="M40.9,1.9c-0.4,0-0.7,0-1.1,0.1C39.4,2,38.9,2,38.5,2c-0.8,0.1-1.6,0-2.5,0.1c-0.9,0.1-1.8,0.2-2.7,0.3
		c0,0,0,0,0,0c0,0,0,0,0,0c0,0,0,0,0,0c0,0,0,0,0,0c-0.4,0-0.7,0.1-1.1,0.1c-0.6,0.1-1.2,0.1-1.9,0.2c-0.6,0.1-1.1,0.2-1.6,0.5
		c-0.2,0.1-0.3,0.2-0.4,0.4c-0.1,0.1-0.2,0.3-0.2,0.4c0,0.1,0,0.3,0,0.4c0,0.1,0,0.3,0.1,0.4c0.1,0.4,0.2,0.8,0.2,1.2
		c0.2,0.8,0.4,1.6,0.5,2.4c0.2,0.8,0.4,1.5,0.6,2.3c0.2,0.4,0.3,0.9,0.5,1.3c0.1,0.2,0.2,0.4,0.4,0.5c0.2,0.1,0.4,0.1,0.6,0.1
		c0.2-0.1,0.4-0.2,0.5-0.4c0.1-0.2,0.2-0.4,0.1-0.6c-0.2-0.4-0.3-0.8-0.4-1.2c-0.1-0.2-0.2-0.4-0.2-0.7c-0.2-0.6-0.3-1.3-0.5-1.9
		c-0.1-0.6-0.3-1.2-0.4-1.7c-0.1-0.5-0.2-1-0.3-1.5c0,0,0,0,0,0c0.4-0.1,0.8-0.2,1.2-0.3c0.8-0.1,1.7-0.2,2.5-0.3
		c0.6-0.1,1.3-0.2,1.9-0.3c0.5-0.1,1-0.1,1.5-0.1c0.6,0,1.1-0.1,1.7-0.1c0.6-0.1,1.1-0.1,1.7-0.2c0.3,0,0.6-0.1,0.9-0.1
		c0.3,0,0.6-0.1,0.8,0c0,0,0,0,0,0c0,0,0,0,0,0c0,0,0.1,0.1,0.1,0.1c0.1,0.1,0.1,0.2,0.2,0.3c0.1,0.4,0.2,0.7,0.3,1.1
		c0.1,0.9,0,1.9,0,2.8c0,0.4,0,0.8-0.1,1.1c0,0.4-0.1,0.9,0,1.3c0,0.4,0.3,0.7,0.7,0.7c0.4,0,0.8-0.3,0.8-0.7c0-0.4,0-0.8,0-1.2
		c0-0.4,0-0.8,0-1.2c0-0.9,0.1-1.9-0.1-2.8c-0.1-0.5-0.2-1-0.3-1.5c-0.2-0.5-0.5-1-1-1.2c-0.2-0.1-0.5-0.1-0.7-0.2
		c-0.1,0-0.2,0-0.3,0c-0.1,0-0.3,0-0.4,0C41.1,1.9,41,1.9,40.9,1.9L40.9,1.9z M42.1,3.2C42.1,3.2,42.1,3.2,42.1,3.2
		C42.1,3.2,42.1,3.2,42.1,3.2L42.1,3.2z M29.9,4.5C29.9,4.5,29.9,4.5,29.9,4.5C29.9,4.5,29.9,4.5,29.9,4.5
		C29.9,4.5,29.9,4.5,29.9,4.5L29.9,4.5z M33.2,2.5c0,0,0.1,0,0.1,0C33.3,2.5,33.2,2.5,33.2,2.5L33.2,2.5z"/>
	<path class="st0" d="M31,18.8c-0.2,0-0.4,0-0.6,0c-0.2,0-0.5,0-0.7,0c-0.7,0.1-1.4,0.1-2.2,0.2c-0.1,0-0.2,0-0.3,0.1
		c-0.1,0.1-0.1,0.2-0.1,0.3c0,0.1,0,0.2,0.1,0.3c0.1,0.1,0.2,0.1,0.3,0.1c0.7-0.1,1.4-0.1,2.1-0.2c0.2,0,0.4,0,0.5,0
		c0.2,0,0.5,0,0.7,0c0.9,0,1.9-0.1,2.8-0.1c1.1,0,2.2-0.1,3.3-0.2c0.2,0,0.3-0.1,0.3-0.3c0-0.2-0.2-0.3-0.3-0.3c-0.7,0-1.3,0-2,0
		C33.7,18.8,32.3,18.8,31,18.8L31,18.8z"/>
	<path class="st0" d="M47.1,17.7c-1,0.1-2,0.2-3,0.3c-1,0.1-2,0.2-3,0.3c-0.3,0-0.6,0.1-0.9,0.1c-0.1,0-0.2,0-0.3,0.1
		c-0.1,0.1-0.1,0.2-0.1,0.3c0,0.1,0,0.2,0.1,0.3c0.1,0.1,0.2,0.1,0.3,0.1c1.2-0.1,2.3-0.3,3.5-0.4c1-0.1,2-0.2,3-0.3
		c0.2,0,0.3,0,0.5,0c0.1,0,0.2,0,0.2-0.1c0.1-0.1,0.1-0.2,0.1-0.2C47.5,17.8,47.3,17.7,47.1,17.7C47.1,17.7,47.1,17.7,47.1,17.7
		L47.1,17.7z"/>
	<path class="st0" d="M49.7,36.5c-0.2,0-0.5,0-0.7,0.1c-0.4,0.1-0.8,0.1-1.1,0.2c-0.7,0.2-1.4,0.4-2.1,0.8c-1.2,0.5-2.3,1.3-3.3,2
		c-1.2,0.8-2.3,1.5-3.6,2.1c-0.4,0.1-0.7,0.3-1.1,0.4c-0.3,0.1-0.7,0.2-1.1,0.2c-0.7,0.1-1.4,0.1-2.1,0.1c-0.3,0-0.6,0-0.9,0
		c-0.3-0.1-0.7-0.3-1.1-0.4c-0.3-0.1-0.6-0.2-1-0.3c-0.2-0.1-0.4-0.1-0.6-0.2c-0.4-0.1-0.8-0.1-1.2-0.1c0,0-0.1,0-0.1,0
		c-0.6,0-1.1,0.1-1.7,0.2c-0.4,0.1-0.8,0.1-1.1,0.2c-0.3,0-0.5,0.1-0.8,0.2c-0.2,0-0.4,0.1-0.6,0.2c0,0,0,0-0.1-0.1
		c-0.1-0.1-0.3-0.2-0.5-0.2c-0.2,0-0.4,0.1-0.5,0.2c-0.5,0.6-0.9,1.2-1.3,1.8c-0.5,0.7-0.9,1.4-1.2,2.1c-0.4,0.7-0.7,1.4-0.9,2.1
		c-0.2,0.7-0.3,1.5-0.3,2.3c0,1-0.1,2,0.1,2.9c0.1,0.8,0.3,1.6,0.5,2.3c0.3,1.1,0.7,2.2,1.1,3.2c0.2,0.5,0.4,1,0.7,1.5
		c0.3,0.5,0.6,0.9,0.8,1.4c0.6,1,1.3,2,2.1,2.9c0.7,0.8,1.5,1.7,2.3,2.4c0.4,0.3,0.7,0.6,1.1,0.9c0.4,0.3,0.8,0.6,1.3,0.8
		c0.5,0.3,0.9,0.5,1.4,0.8c0.6,0.3,1.2,0.6,1.8,0.9c0.7,0.3,1.4,0.6,2.2,0.7c0.4,0.1,0.9,0.1,1.3,0.2c1.2,0.2,2.4,0.2,3.6,0.3
		c0.5,0,1.1,0,1.6,0c0.6,0,1.2-0.1,1.9-0.3c0.5-0.1,1-0.2,1.5-0.4c0.5-0.1,1.1-0.4,1.6-0.6c0.6-0.2,1.1-0.5,1.6-0.8
		c0.5-0.2,0.9-0.5,1.4-0.7c0.3-0.2,0.7-0.4,1-0.6c0.9-0.5,1.7-1.1,2.4-1.8c0,0,0,0,0,0c0,0.1,0.1,0.1,0.2,0.1
		c0.4,0.2,0.9,0.1,1.1-0.3c0.8-1.3,1.6-2.6,2.4-4c0.2-0.3,0.3-0.5,0.4-0.8c0.1-0.2,0.2-0.4,0.3-0.7c0.1-0.1,0.1-0.3,0.2-0.4
		c0.3-0.7,0.6-1.5,0.9-2.2c0.3-0.7,0.5-1.4,0.7-2.1c0.2-0.7,0.4-1.3,0.6-2c0.1-0.7,0.2-1.5,0.4-2.2c0.1-0.3,0.1-0.6,0.2-1
		c0.1-0.4,0.1-0.9,0.2-1.3c0.1-0.6,0-1.1-0.1-1.7c0-0.2-0.1-0.4-0.1-0.6c-0.1-0.4-0.2-0.8-0.3-1.1c-0.1-0.2-0.2-0.4-0.3-0.6
		c-0.1-0.2-0.3-0.4-0.4-0.6c0,0,0,0,0,0c-0.1-0.4-0.1-0.8-0.3-1.2c-0.1-0.4-0.3-0.8-0.5-1.1c-0.1-0.3-0.3-0.6-0.5-0.9
		c-0.2-0.3-0.5-0.7-0.7-1c-0.2-0.3-0.5-0.6-0.7-0.8c-0.2-0.2-0.5-0.5-0.7-0.7c-0.3-0.3-0.6-0.5-0.9-0.7c-0.3-0.2-0.6-0.4-0.9-0.6
		c-0.6-0.4-1.3-0.8-2-1c-0.3-0.1-0.6-0.2-1-0.3c-0.4-0.1-0.7-0.1-1.1-0.2c-0.4-0.1-0.7-0.1-1.1-0.1C49.8,36.5,49.8,36.5,49.7,36.5
		L49.7,36.5z M47,47.7c-0.5,0-1,0-1.6-0.1c-0.8-0.1-1.5-0.3-2.2-0.6c-0.3-0.1-0.5-0.2-0.8-0.3c-0.7-0.3-1.3-0.6-1.9-0.9
		c-0.6-0.3-1.3-0.7-1.9-1c-0.6-0.3-1.3-0.6-1.9-0.9c-0.4-0.2-0.7-0.4-1.1-0.6c0.2,0,0.3,0,0.5,0c0.9,0,1.7-0.2,2.6-0.4
		c1-0.3,2-0.8,2.9-1.3c0.6-0.3,1.2-0.7,1.8-1c0.5-0.3,1-0.6,1.5-0.8c0.5-0.3,1-0.5,1.5-0.7c0.4-0.2,0.9-0.3,1.4-0.5
		c0.5-0.1,0.9-0.2,1.4-0.3c0.1,0,0.3,0,0.4,0c0.4,0,0.8,0,1.2,0c0.3,0,0.7,0.1,1,0.2c0.4,0.1,0.7,0.2,1.1,0.3
		c0.4,0.2,0.8,0.4,1.2,0.6c0.4,0.2,0.8,0.5,1.2,0.8c0.4,0.3,0.8,0.6,1.1,1c0.4,0.4,0.7,0.8,1,1.2c0.2,0.3,0.4,0.5,0.5,0.8
		c0.2,0.3,0.3,0.6,0.5,1c0,0.1,0.1,0.2,0.1,0.3c-0.3,0-0.6,0-0.9,0c-0.3,0-0.7,0.1-1,0.3c0.3,0.5,0.5,0.9,0.6,1.4
		c0.3,0.8,0.5,1.7,0.6,2.6c0.1,0.6,0.2,1.3,0.2,1.9c0,0.3,0,0.6,0,1c0,0.3,0,0.7,0,1c-0.1,0.8-0.2,1.6-0.3,2.4
		c-0.1,0.5-0.7,0.8-1.2,0.7c-0.2-0.1-0.5-0.2-0.6-0.4c-0.1-0.2-0.1-0.3-0.1-0.5c0.1-0.6,0.1-1.1,0.2-1.7c0,0,0,0,0,0.1
		c0-0.2,0.1-0.4,0.1-0.6c0-0.5,0.1-0.9,0.1-1.4c0-0.3,0-0.6,0-0.9c0-0.6,0-1.2-0.1-1.8c0,0,0,0,0,0c-0.1-0.8-0.3-1.6-0.6-2.4
		c-0.1-0.3-0.2-0.5-0.4-0.7c-0.6,0.3-1.2,0.6-1.8,0.8c-0.6,0.2-1.2,0.5-1.8,0.7c-1,0.3-1.9,0.7-3,0.8c-0.3,0-0.6,0-0.9,0.1
		c-0.2,0-0.3,0-0.5,0C47.1,47.7,47,47.7,47,47.7L47,47.7z M36.7,42.2C36.7,42.2,36.7,42.2,36.7,42.2C36.7,42.2,36.7,42.2,36.7,42.2
		L36.7,42.2z M32.8,43.3C32.8,43.3,32.8,43.3,32.8,43.3l-0.1,0C32.7,43.3,32.8,43.3,32.8,43.3L32.8,43.3z M59.6,46.2
		C59.6,46.2,59.7,46.2,59.6,46.2C59.7,46.2,59.7,46.2,59.6,46.2C59.7,46.2,59.6,46.2,59.6,46.2L59.6,46.2z M24.7,52
		c-0.2,0-0.3-0.3-0.2-0.4c0.4-1.1,0.9-2.2,1.4-3.2c0-0.1,0.1-0.1,0.2-0.2c0,0,0.1,0,0.1,0c0.1,0,0.1,0,0.2,0c0.1,0,0.1,0.1,0.2,0.2
		c0,0.1,0,0.2,0,0.3c-0.3,0.8-0.7,1.6-1,2.3c-0.1,0.2-0.2,0.5-0.3,0.7c0,0.1-0.1,0.2-0.2,0.2C24.9,52,24.8,52.1,24.7,52
		C24.7,52.1,24.7,52.1,24.7,52L24.7,52z M25.8,55c-0.3-0.1-0.4-0.3-0.3-0.6c0.2-0.6,0.4-1.2,0.7-1.8c0.3-0.7,0.6-1.3,0.9-2
		c0.1-0.1,0.2-0.2,0.3-0.2c0,0,0.1,0,0.1,0c0.1,0,0.2,0,0.3,0.1c0.1,0.1,0.2,0.2,0.2,0.3c0,0.1,0,0.3-0.1,0.4
		c-0.4,0.8-0.7,1.6-1,2.3c0,0,0,0,0,0c-0.1,0.2-0.1,0.3-0.2,0.5v0c0,0,0,0,0,0c0,0,0,0,0,0c-0.1,0.2-0.2,0.5-0.3,0.7
		c0,0.1-0.1,0.2-0.2,0.3C26.1,55,26,55,26,55C25.9,55,25.9,55,25.8,55L25.8,55z M26.9,58.6c-0.3-0.1-0.4-0.4-0.4-0.6
		c0.2-0.8,0.5-1.6,0.8-2.3c0.1-0.3,0.3-0.7,0.4-1c0.2-0.5,0.4-1,0.6-1.4c0.1-0.1,0.2-0.2,0.3-0.3c0,0,0.1,0,0.2,0
		c0.1,0,0.2,0,0.3,0.1c0.1,0.1,0.2,0.2,0.3,0.3c0,0.2,0,0.3-0.1,0.4c-0.3,0.6-0.6,1.3-0.9,1.9c-0.3,0.8-0.7,1.7-1,2.5
		c0,0.1-0.1,0.2-0.2,0.3c-0.1,0-0.2,0.1-0.3,0.1C27,58.6,27,58.6,26.9,58.6L26.9,58.6z M26.9,53.4C26.9,53.4,26.9,53.4,26.9,53.4
		C26.9,53.4,26.9,53.4,26.9,53.4L26.9,53.4z M26.7,53.9C26.7,53.9,26.7,53.9,26.7,53.9C26.7,53.9,26.7,53.9,26.7,53.9L26.7,53.9z
		 M29.4,60.6c-0.1,0-0.2-0.1-0.3-0.2c-0.1-0.1-0.1-0.2,0-0.3c0.1-0.6,0.3-1.2,0.4-1.9c0.1-0.3,0.1-0.5,0.2-0.8
		c0.1-0.4,0.2-0.7,0.3-1.1c0-0.2,0.2-0.3,0.4-0.3c0,0,0.1,0,0.1,0c0.2,0.1,0.4,0.3,0.3,0.5c-0.1,0.4-0.2,0.7-0.3,1.1
		c-0.1,0.3-0.2,0.5-0.2,0.8c-0.2,0.6-0.3,1.2-0.4,1.9c0,0.2-0.2,0.3-0.4,0.3C29.5,60.6,29.4,60.6,29.4,60.6L29.4,60.6z M53.8,60.9
		c0-0.4,0.4-0.8,0.8-0.8c0.4,0,0.8,0.4,0.8,0.8s-0.4,0.8-0.8,0.8C54.2,61.6,53.8,61.3,53.8,60.9L53.8,60.9z M35.9,65.7
		c-0.3-0.1-0.4-0.3-0.3-0.6c0.3-1,0.5-2.1,0.8-3.1c0.1-0.2,0.3-0.3,0.5-0.3c0,0,0.1,0,0.1,0c0.2,0.1,0.4,0.3,0.3,0.6
		c-0.3,1-0.6,2.1-0.8,3.1c0,0.2-0.3,0.4-0.5,0.4C36,65.7,35.9,65.7,35.9,65.7L35.9,65.7z M38,65.8c0.1-1,0.2-2,0.2-3
		c0-0.3,0.2-0.6,0.6-0.6c0.3,0,0.6,0.3,0.6,0.6c0,1-0.1,2-0.2,3c0,0.3-0.2,0.6-0.6,0.6C38.3,66.3,38,66.1,38,65.8L38,65.8z M47.4,68
		c-0.2-0.2-0.2-0.6,0-0.8c0.7-0.7,1.4-1.4,2.2-2.1c0.8-0.8,1.7-1.6,2.5-2.4c0.1-0.1,0.3-0.2,0.5-0.2c0.2,0,0.3,0.1,0.5,0.2
		c0.2,0.2,0.3,0.7,0,0.9c-0.8,0.8-1.7,1.6-2.5,2.4c-0.7,0.7-1.4,1.4-2.2,2c-0.1,0.1-0.3,0.2-0.4,0.2C47.6,68.2,47.5,68.2,47.4,68
		L47.4,68z M53.9,64C53.9,64,53.8,64.1,53.9,64C53.8,64.1,53.9,64,53.9,64L53.9,64z"/>
	<path class="st0" d="M26.7,54C26.7,54,26.7,54,26.7,54L26.7,54C26.7,54,26.7,54,26.7,54C26.7,54,26.7,54,26.7,54
		C26.7,54,26.7,54,26.7,54L26.7,54z"/>
	<polygon class="st0" points="26.7,54 26.7,54 26.7,54 	"/>
	<path class="st0" d="M34.6,21.5c-0.7,1.2-1.4,2.3-2.1,3.5c-0.2,0.4-0.5,0.8-0.7,1.3c-0.2,0.4-0.4,0.7-0.6,1.1
		c-0.1,0.3-0.3,0.5-0.4,0.8c0,0.1-0.1,0.2,0,0.3c0,0.1,0.1,0.2,0.2,0.2c0.2,0.1,0.4,0,0.5-0.1c0.5-1,1.1-1.9,1.7-2.8
		c0.5-0.8,1-1.6,1.5-2.4c0.3-0.4,0.5-0.9,0.8-1.3c0.1-0.2,0-0.5-0.2-0.6c-0.1,0-0.1-0.1-0.2-0.1C34.8,21.3,34.7,21.4,34.6,21.5
		L34.6,21.5z"/>
	<path class="st0" d="M36.2,23.5c-0.1,0-0.2,0.1-0.3,0.2c-1.5,1.9-3,3.9-4.4,5.9c-0.2,0.2-0.3,0.5-0.5,0.7c-0.1,0.2-0.1,0.4,0.1,0.6
		c0.1,0.1,0.2,0.1,0.3,0.1c0.1,0,0.3,0,0.3-0.1c1.4-1.8,2.8-3.6,4.2-5.4c0.3-0.4,0.6-0.8,0.9-1.2c0.1-0.1,0.1-0.3,0.1-0.4
		c0-0.1-0.1-0.2-0.2-0.3c-0.1,0-0.2-0.1-0.3-0.1C36.3,23.5,36.2,23.5,36.2,23.5L36.2,23.5z"/>
	<path class="st0" d="M35.2,27.5c-1.1,2-2.1,3.9-3.2,5.9c-0.2,0.4-0.4,0.8-0.7,1.2c-0.1,0.2,0,0.4,0.1,0.5c0.2,0.1,0.4,0,0.5-0.1
		c1-1.8,2-3.6,3-5.4c0.3-0.6,0.6-1.1,0.9-1.7c0.1-0.2,0.1-0.4-0.1-0.6c-0.1,0-0.1-0.1-0.2-0.1C35.4,27.3,35.2,27.3,35.2,27.5
		L35.2,27.5z"/>
	<path class="st0" d="M22.4,42.2c-0.7,1.1-1.5,2.2-2.2,3.3c0,0.1-0.1,0.2-0.1,0.2c-0.2,0.2-0.3,0.5-0.5,0.7c-0.3,0.5-0.6,1-0.9,1.4
		c0,0.1-0.1,0.2-0.1,0.2c-0.1,0.2-0.3,0.5-0.4,0.7c-0.1,0.2-0.3,0.5-0.4,0.7c-0.1,0.1-0.1,0.2-0.2,0.3c-0.4,0.8-0.9,1.6-1.3,2.4
		c0,0.1,0,0.2,0.1,0.2c0.1,0,0.2,0,0.2-0.1c0.2-0.5,0.5-1,0.8-1.4c0.2-0.4,0.4-0.8,0.6-1.1c0.3-0.5,0.6-1.1,0.9-1.6
		c0.2-0.3,0.4-0.6,0.6-0.9c0.3-0.5,0.6-0.9,0.9-1.4c0-0.1,0.1-0.2,0.1-0.2c0.1-0.1,0.2-0.3,0.3-0.4c0.3-0.5,0.6-0.9,0.9-1.4
		c0.4-0.5,0.7-1.1,1.1-1.6c0-0.1,0-0.2-0.1-0.2c0,0,0,0-0.1,0C22.5,42.1,22.4,42.1,22.4,42.2L22.4,42.2z"/>
	<path class="st0" d="M22.4,46c-0.4,0.8-0.7,1.5-1.1,2.3c-0.3,0.6-0.6,1.1-0.8,1.7c-0.3,0.5-0.5,1.1-0.8,1.6
		c-0.1,0.3-0.2,0.5-0.4,0.8c-0.4,0.9-0.9,1.9-1.3,2.8c-0.2,0.4-0.4,0.9-0.6,1.3c-0.2,0.5-0.5,1-0.6,1.6c-0.1,0.2,0.1,0.3,0.2,0.4
		c0.1,0,0.2,0,0.2,0c0.1,0,0.1-0.1,0.1-0.2c0-0.1,0-0.1,0.1-0.2c0.4-0.9,0.8-1.8,1.2-2.7c0.4-0.9,0.9-1.9,1.3-2.8
		c0.4-0.8,0.7-1.5,1.1-2.3c0.3-0.5,0.5-1.1,0.8-1.6c0.4-0.7,0.7-1.5,1.1-2.2c0-0.1,0.1-0.2,0-0.3c0-0.1-0.1-0.2-0.2-0.2
		c-0.1,0-0.1,0-0.2,0C22.6,45.8,22.4,45.9,22.4,46L22.4,46z M17.5,58C17.5,58,17.5,58,17.5,58C17.5,58,17.5,58,17.5,58L17.5,58z"/>
	<path class="st0" d="M20.5,53.6c-0.1,0.1-0.1,0.1-0.2,0.2c-0.5,1.3-1,2.6-1.6,3.8c-0.2,0.4-0.4,0.9-0.5,1.3
		c-0.1,0.2-0.1,0.3-0.2,0.5c-0.1,0.2-0.2,0.4-0.2,0.6c-0.1,0.3-0.2,0.6-0.3,0.8c0,0.2,0.1,0.3,0.2,0.4c0.2,0,0.3-0.1,0.4-0.2
		c0.4-1,0.8-2,1.2-3c0.4-0.9,0.7-1.7,1.1-2.6c0.2-0.5,0.4-1,0.6-1.5c0-0.1,0-0.2,0-0.3c0-0.1-0.1-0.1-0.2-0.2c0,0-0.1,0-0.1,0
		C20.6,53.5,20.6,53.5,20.5,53.6L20.5,53.6z"/>
	<path class="st0" d="M21.4,56.4c-0.4,1.1-0.8,2.3-1.1,3.4c-0.1,0.3-0.2,0.6-0.3,0.9c-0.1,0.2-0.1,0.4-0.2,0.6
		c-0.1,0.5-0.2,1.1-0.3,1.6c0,0.1,0,0.1,0.1,0.2c0.1,0.1,0.1,0.2,0.3,0.2c0.1,0,0.2,0,0.3,0c0.1,0,0.2-0.1,0.2-0.3
		c0.1-0.5,0.2-1,0.3-1.5c0.1-0.2,0.1-0.4,0.2-0.6c0.1-0.3,0.2-0.6,0.3-0.9c0.4-1.1,0.8-2.3,1.1-3.4c0.1-0.2-0.1-0.5-0.3-0.5
		c0,0-0.1,0-0.1,0C21.7,56.1,21.5,56.2,21.4,56.4L21.4,56.4z"/>
	<path class="st0" d="M40.1,23.4c0,0.7,0,1.4-0.1,2.1c0,0.3,0,0.7,0,1c0,0.4,0,0.7,0,1.1c0,0.3,0.1,0.6,0.1,1
		c0.1,0.3,0.2,0.6,0.3,0.8c0.1,0.1,0.2,0.2,0.3,0.3c0.1,0.1,0.2,0.2,0.3,0.2c0.3,0.1,0.6,0.1,0.8-0.1c0.3-0.1,0.4-0.3,0.6-0.5
		c0.2-0.3,0.3-0.5,0.4-0.8c0.1-0.3,0.2-0.6,0.2-0.9c0.1-0.3,0.1-0.7,0.2-1.1c0.1-0.5,0.1-1.1,0.2-1.6c0-0.1,0-0.3,0-0.5
		c0-0.1,0-0.2,0-0.3c0-0.1,0-0.1-0.1-0.2c0-0.1-0.1-0.1-0.1-0.2c-0.1-0.1-0.2-0.1-0.2-0.2c-0.1,0-0.2,0-0.3,0
		c-0.2,0.1-0.4,0.2-0.6,0.3c-0.2,0.1-0.3,0.3-0.5,0.4c-0.2,0.1-0.3,0.3-0.4,0.4c-0.2,0.2-0.4,0.3-0.6,0.5c-0.1,0.1-0.1,0.4,0,0.5
		c0.1,0.1,0.2,0.1,0.3,0.1c0.1,0,0.2,0,0.3-0.1c0.4-0.4,0.8-0.7,1.3-1.1c0.1-0.1,0.2-0.1,0.3-0.2c0,0.1,0,0.3,0,0.4
		c0,0.1,0,0.1,0,0.2c0,0.1,0,0.3,0,0.4c0,0.4-0.1,0.9-0.1,1.3c0,0.3-0.1,0.6-0.2,0.9c-0.1,0.3-0.1,0.6-0.2,0.8
		c-0.1,0.2-0.2,0.4-0.3,0.5c-0.1,0.1-0.1,0.1-0.2,0.2c0,0-0.1,0-0.1,0.1c-0.1,0-0.1,0-0.2,0c-0.1,0-0.1,0-0.2,0c0,0,0,0-0.1,0
		c0,0,0,0,0,0c-0.1-0.1-0.1-0.1-0.2-0.2c-0.1-0.1-0.1-0.2-0.2-0.3c-0.1-0.3-0.2-0.5-0.2-0.8c-0.1-0.7-0.1-1.5-0.1-2.3
		c0-0.8,0.1-1.6,0.1-2.4c0-0.1-0.1-0.3-0.3-0.3C40.2,23.2,40.1,23.3,40.1,23.4L40.1,23.4z M42.8,24.4C42.8,24.4,42.8,24.4,42.8,24.4
		C42.8,24.4,42.8,24.4,42.8,24.4L42.8,24.4z M42.6,24.7C42.6,24.7,42.6,24.7,42.6,24.7C42.6,24.7,42.6,24.7,42.6,24.7L42.6,24.7z"/>
	<path class="st0" d="M42.7,12.4c-0.2,0-0.4,0.1-0.6,0.2c-0.2,0.1-0.5,0.2-0.7,0.3c-0.2,0.1-0.4,0.2-0.5,0.3
		c-0.2,0.1-0.3,0.2-0.5,0.4c-0.1,0.1-0.3,0.3-0.3,0.5c-0.1,0.2,0,0.4,0,0.6c0,0.1,0.1,0.2,0.1,0.3c0,0.1,0.1,0.2,0.2,0.3
		c0.1,0.1,0.1,0.1,0.2,0.2c0.1,0.1,0.2,0.1,0.3,0.2c0.2,0.1,0.4,0.2,0.6,0.2c0.2,0,0.5,0,0.7,0c0.5-0.1,0.9-0.2,1.2-0.6
		c0.1-0.2,0.2-0.3,0.3-0.5c0-0.1,0-0.2,0.1-0.3c0-0.1,0-0.2,0-0.3c0-0.1,0-0.2-0.1-0.3c-0.1-0.1-0.1-0.2-0.2-0.3
		c-0.1-0.1-0.1-0.1-0.2-0.2C43.1,13.1,43.1,13,43,13c0.1-0.1,0.1-0.2,0.1-0.3C43.1,12.5,42.9,12.4,42.7,12.4
		C42.8,12.4,42.8,12.4,42.7,12.4L42.7,12.4z M42.4,13.1c0,0.1,0,0.2,0.1,0.3c0.1,0.1,0.3,0.3,0.4,0.4c0,0.1,0.1,0.1,0.1,0.2
		c0,0,0,0,0,0c0,0,0,0.1,0,0.1c0,0.1,0,0.3-0.1,0.4c0,0.1-0.1,0.1-0.1,0.2c0,0-0.1,0.1-0.1,0.1c-0.1,0.1-0.2,0.1-0.3,0.2
		c-0.1,0.1-0.3,0.1-0.4,0.1c-0.1,0-0.3,0-0.4,0c-0.1,0-0.2,0-0.3-0.1c-0.1-0.1-0.2-0.1-0.3-0.2c-0.1,0-0.1-0.1-0.1-0.1
		c0-0.1-0.1-0.1-0.1-0.2c0-0.1,0-0.1-0.1-0.2c0,0,0-0.1,0-0.1c0,0,0,0,0,0c0,0,0-0.1,0.1-0.1c0.1-0.1,0.2-0.2,0.3-0.3
		c0.3-0.2,0.6-0.4,0.9-0.5C42.1,13.2,42.2,13.2,42.4,13.1L42.4,13.1z M42,13.3C42,13.3,42,13.3,42,13.3C42,13.3,42,13.3,42,13.3
		L42,13.3z M43,13.9C43,13.9,43,13.9,43,13.9C43,13.9,43,13.9,43,13.9L43,13.9z"/>
	<path class="st0" d="M49.1,33.7c-0.3,0-0.6,0.2-0.8,0.3c-0.3,0.1-0.5,0.3-0.8,0.5c-0.2,0.2-0.4,0.4-0.6,0.7
		c-0.2,0.3-0.3,0.5-0.4,0.8c-0.2,0.6-0.3,1.2-0.3,1.8c0,0.3,0.1,0.6,0.1,0.9c0.1,0.3,0.2,0.6,0.3,0.9c0.3,0.6,0.6,1.2,1,1.6
		c0.2,0.2,0.4,0.4,0.7,0.6c0.3,0.2,0.6,0.4,0.9,0.5c0.3,0.1,0.6,0.2,0.8,0.2c0.3,0,0.6,0,0.8,0c0.3,0,0.5-0.1,0.8-0.3
		c0.3-0.1,0.5-0.3,0.7-0.5c0.2-0.2,0.3-0.4,0.4-0.6c0.1-0.2,0.2-0.5,0.2-0.7c0.1-0.3,0.1-0.6,0.1-0.8c0-0.3,0-0.7-0.1-1
		c0-0.3-0.1-0.6-0.1-0.9c-0.1-0.3-0.2-0.6-0.3-0.8c-0.1-0.3-0.3-0.5-0.4-0.7c-0.2-0.3-0.3-0.5-0.5-0.8c-0.3-0.4-0.6-0.8-0.9-1.3
		c-0.1-0.1-0.1-0.1-0.2-0.1c-0.1,0-0.2,0-0.2,0c-0.1,0-0.1,0.1-0.1,0.2c-0.1-0.1-0.1-0.1-0.2-0.2c-0.1-0.1-0.2-0.2-0.3-0.3
		c-0.1-0.1-0.2-0.1-0.4-0.2c-0.1,0-0.1,0-0.2,0C49.3,33.7,49.2,33.7,49.1,33.7L49.1,33.7z M49.4,34.2c0,0,0.1,0,0.1,0
		c0,0,0.1,0,0.1,0.1c0.1,0.1,0.3,0.2,0.4,0.4c0.1,0.1,0.2,0.3,0.3,0.4c0.1,0.2,0.3,0.4,0.4,0.6c0.1,0.2,0.3,0.4,0.4,0.6
		c0.1,0.1,0.2,0.1,0.3,0.1c0,0,0,0,0,0c0.1,0.2,0.2,0.4,0.3,0.5c0.1,0.2,0.2,0.4,0.3,0.6c0.2,0.5,0.3,0.9,0.3,1.4c0,0,0,0,0,0
		c0.1,0.4,0.1,0.9,0.1,1.3c0,0.3-0.1,0.6-0.2,0.9c-0.1,0.1-0.1,0.3-0.2,0.4c-0.1,0.1-0.2,0.2-0.3,0.3c-0.2,0.1-0.3,0.2-0.5,0.3
		c-0.2,0.1-0.4,0.1-0.6,0.2c-0.2,0-0.4,0-0.7,0c-0.3,0-0.5-0.1-0.7-0.2c-0.2-0.1-0.5-0.3-0.7-0.4c-0.3-0.2-0.6-0.5-0.8-0.8
		c-0.3-0.4-0.5-0.8-0.7-1.2c-0.2-0.4-0.3-0.9-0.4-1.3c0-0.4-0.1-0.7,0-1.1c0.1-0.3,0.1-0.7,0.3-1c0.1-0.2,0.2-0.4,0.4-0.6
		c0.2-0.2,0.4-0.4,0.6-0.6c0.2-0.2,0.5-0.3,0.7-0.4c0.2-0.1,0.3-0.1,0.5-0.1C49.3,34.2,49.4,34.2,49.4,34.2
		C49.5,34.2,49.5,34.2,49.4,34.2L49.4,34.2z M48.8,34.3C48.8,34.3,48.8,34.3,48.8,34.3C48.8,34.3,48.8,34.3,48.8,34.3L48.8,34.3z
		 M48.8,34.3C48.8,34.3,48.8,34.3,48.8,34.3C48.8,34.3,48.8,34.3,48.8,34.3L48.8,34.3z M52.2,41.3C52.2,41.3,52.2,41.3,52.2,41.3
		C52.2,41.3,52.2,41.3,52.2,41.3L52.2,41.3z M52.6,38.8C52.6,38.8,52.6,38.7,52.6,38.8C52.6,38.7,52.6,38.8,52.6,38.8L52.6,38.8z"/>
	<path class="st0" d="M20.7,24.3c-0.2,0-0.4,0.1-0.7,0.1c-0.2,0-0.4,0.2-0.4,0.4c-0.2,0.1-0.3,0.3-0.5,0.4c-0.3,0.3-0.5,0.6-0.7,0.9
		c-0.1,0.2-0.2,0.4-0.2,0.6c-0.1,0.2-0.1,0.4-0.1,0.6c0,0.3,0,0.7,0.1,1c0,0.1,0.1,0.2,0.1,0.3c0.1,0.1,0.1,0.2,0.2,0.2
		c0.1,0.1,0.3,0.3,0.4,0.4c0.2,0.1,0.4,0.2,0.6,0.3c0.2,0.1,0.4,0.1,0.6,0.1c0.4,0,0.8,0,1.2-0.1c0.7-0.3,1.3-0.8,1.6-1.5
		c0.2-0.4,0.3-0.8,0.3-1.2c0-0.4,0-0.8-0.1-1.2c0-0.4-0.1-0.8-0.4-1.1c-0.1-0.1-0.3-0.3-0.5-0.4c-0.2-0.1-0.4-0.1-0.6-0.1
		C21.3,24.2,21,24.3,20.7,24.3L20.7,24.3z M21.8,25.4C21.8,25.4,21.8,25.4,21.8,25.4C21.8,25.4,21.8,25.4,21.8,25.4
		c0.1,0,0.1,0.1,0.1,0.1c0,0,0,0.1,0.1,0.1c0,0.1,0.1,0.2,0.1,0.4c0,0.4,0.1,0.8,0.1,1.2c0,0.2-0.1,0.3-0.1,0.5
		c-0.1,0.2-0.2,0.3-0.3,0.4c-0.1,0.1-0.2,0.2-0.3,0.3c-0.1,0.1-0.2,0.1-0.4,0.2c-0.1,0.1-0.3,0.1-0.4,0.1c-0.1,0-0.3,0-0.4,0
		c-0.1,0-0.2-0.1-0.4-0.1c-0.1-0.1-0.2-0.1-0.3-0.2c-0.1-0.1-0.1-0.1-0.2-0.2c0-0.1-0.1-0.1-0.1-0.2c0-0.1-0.1-0.2-0.1-0.3
		c0-0.1,0-0.3,0-0.4c0-0.2,0.1-0.4,0.1-0.5c0.1-0.2,0.2-0.4,0.4-0.6c0.1-0.2,0.3-0.3,0.5-0.5c0.1-0.1,0.2-0.1,0.3-0.2
		c0.1,0,0.2,0,0.3-0.1c0.1,0,0.3,0,0.4,0c0.1,0,0.2,0,0.3-0.1C21.6,25.4,21.7,25.4,21.8,25.4L21.8,25.4z"/>
	<path class="st0" d="M56.9,18.6c-0.3,0-0.6,0.2-0.9,0.4c-0.3,0.2-0.5,0.4-0.7,0.7c-0.2,0.3-0.3,0.6-0.4,0.9
		c-0.2,0.6-0.3,1.3-0.1,1.9c0.1,0.3,0.2,0.6,0.4,0.9c0.2,0.3,0.5,0.5,0.8,0.6c0.6,0.3,1.4,0.3,2,0c0.6-0.3,1.2-0.8,1.4-1.4
		c0.1-0.3,0.2-0.7,0.1-1c0-0.2,0-0.3-0.1-0.5c0-0.2-0.1-0.4-0.2-0.5c-0.1-0.3-0.3-0.6-0.4-0.8c-0.1-0.1-0.2-0.3-0.3-0.4
		c-0.1-0.1-0.2-0.1-0.2-0.1c0-0.1,0-0.1,0-0.2c0-0.1,0-0.2-0.1-0.3c-0.1-0.1-0.2-0.1-0.3-0.1c-0.1,0-0.2,0-0.3,0
		C57.2,18.6,57.1,18.6,56.9,18.6L56.9,18.6z M57.2,19.5C57.2,19.5,57.2,19.5,57.2,19.5c0,0.2,0,0.3,0,0.4c0.1,0.1,0.2,0.2,0.3,0.2
		c0,0,0,0,0.1,0c0,0,0,0,0,0c0,0,0.1,0,0.1,0.1c0.1,0.1,0.1,0.2,0.1,0.3c0.1,0.1,0.1,0.2,0.2,0.3c0.1,0.2,0.2,0.5,0.2,0.7
		c0,0.1,0,0.3,0,0.4c0,0.1-0.1,0.2-0.1,0.3c0,0.1-0.1,0.2-0.1,0.2c-0.1,0.1-0.2,0.2-0.3,0.3c-0.1,0.1-0.2,0.1-0.3,0.2
		c-0.1,0.1-0.3,0.1-0.4,0.1c-0.1,0-0.3,0-0.4,0c-0.1,0-0.2,0-0.3-0.1c-0.1,0-0.2-0.1-0.2-0.1c-0.1-0.1-0.2-0.2-0.2-0.2
		c-0.1-0.1-0.1-0.2-0.2-0.3c0-0.1-0.1-0.3-0.1-0.4c0-0.2,0-0.4,0-0.6c0-0.2,0.1-0.5,0.2-0.7c0.1-0.2,0.2-0.3,0.3-0.5
		c0.1-0.1,0.2-0.3,0.4-0.4c0.1-0.1,0.3-0.2,0.4-0.2c0.1,0,0.2-0.1,0.3-0.1C57.2,19.5,57.2,19.5,57.2,19.5L57.2,19.5z M57.7,20.2
		C57.7,20.2,57.7,20.2,57.7,20.2C57.7,20.2,57.7,20.2,57.7,20.2C57.7,20.2,57.7,20.2,57.7,20.2L57.7,20.2z M57.7,20.2
		C57.7,20.2,57.7,20.2,57.7,20.2C57.7,20.2,57.7,20.2,57.7,20.2C57.7,20.2,57.7,20.2,57.7,20.2L57.7,20.2z"/>
	<path class="st0" d="M55.3,7.4c-0.1,0-0.2,0.1-0.3,0.2c0,0-0.1-0.1-0.1-0.1c-0.1-0.1-0.2-0.1-0.3,0c-0.2,0-0.4,0.1-0.6,0.2
		c-0.2,0.1-0.4,0.4-0.6,0.6C53.2,8.7,53,9.2,53,9.7c0,0.2,0,0.5,0.1,0.7c0.1,0.3,0.3,0.5,0.4,0.7c0.2,0.2,0.4,0.3,0.6,0.4
		c0.3,0.1,0.5,0.2,0.8,0.2c0.1,0,0.2,0,0.3,0c0.1,0,0.2,0,0.3-0.1c0.2-0.1,0.5-0.2,0.7-0.4c0.2-0.2,0.3-0.4,0.4-0.6
		c0.1-0.2,0.2-0.5,0.3-0.7c0.1-0.2,0.1-0.5,0.1-0.7c0-0.3-0.1-0.5-0.3-0.7c-0.1-0.1-0.1-0.2-0.2-0.3c-0.1-0.1-0.2-0.2-0.3-0.3
		c-0.1-0.1-0.2-0.1-0.3-0.2c-0.1-0.1-0.2-0.1-0.3-0.2c-0.1,0-0.2-0.1-0.2-0.1C55.4,7.4,55.3,7.4,55.3,7.4L55.3,7.4z M54.8,8.3
		c0.1,0,0.2-0.1,0.2-0.2c0,0,0.1,0.1,0.1,0.1c0.1,0.1,0.2,0.1,0.3,0.2c0.1,0.1,0.2,0.1,0.3,0.2c0,0,0,0,0,0c0.1,0.1,0.2,0.2,0.3,0.3
		c0,0,0.1,0.1,0.1,0.1c0,0,0,0,0,0.1c0,0.1,0,0.1,0,0.2c0,0.2-0.1,0.4-0.2,0.6c-0.1,0.2-0.2,0.4-0.4,0.6c-0.1,0.1-0.1,0.1-0.2,0.2
		c-0.1,0-0.1,0.1-0.2,0.1c-0.1,0-0.1,0-0.2,0.1c-0.1,0-0.2,0-0.2,0c-0.1,0-0.2,0-0.2-0.1c-0.1-0.1-0.2-0.1-0.3-0.2
		c-0.1-0.1-0.2-0.1-0.2-0.2c-0.1-0.1-0.1-0.1-0.1-0.2c0-0.1,0-0.2-0.1-0.2c0-0.1,0-0.2,0-0.4c0-0.1,0.1-0.3,0.1-0.4
		C54,9,54.1,8.8,54.2,8.7c0.1-0.1,0.1-0.1,0.2-0.2c0.1,0,0.1-0.1,0.2-0.1C54.7,8.3,54.7,8.3,54.8,8.3L54.8,8.3z M54.3,8.6
		C54.3,8.6,54.2,8.6,54.3,8.6C54.2,8.6,54.2,8.6,54.3,8.6L54.3,8.6z M56.2,9.2C56.2,9.2,56.2,9.2,56.2,9.2
		C56.2,9.2,56.2,9.2,56.2,9.2L56.2,9.2z M55.7,10.4C55.7,10.4,55.7,10.4,55.7,10.4C55.7,10.4,55.7,10.4,55.7,10.4L55.7,10.4z"/>
	<path class="st0" d="M10.4,49.1c-0.3,1.1-0.5,2.1-0.8,3.2c-0.2,0.9-0.4,1.9-0.3,2.9c0,0.6,0.1,1.1,0.2,1.7c0.1,0.3,0.4,0.5,0.7,0.5
		c0.2,0,0.4-0.1,0.5-0.2c0.1-0.1,0.2-0.3,0.2-0.5c-0.1-0.9-0.1-1.9,0-2.8c0.1-0.7,0.3-1.4,0.5-2.1c0.2-0.7,0.4-1.5,0.5-2.2
		c0.1-0.4-0.1-0.9-0.6-1c-0.1,0-0.1,0-0.2,0C10.9,48.5,10.5,48.7,10.4,49.1L10.4,49.1z M11,53.9C11,54,11,54,11,53.9
		C11,54,11,54,11,53.9L11,53.9z"/>
	<path class="st0" d="M7.7,49.3c-0.1,0.1-0.2,0.3-0.2,0.5c-0.1,0.9-0.2,1.8-0.3,2.7c0,0.5-0.1,1-0.1,1.5c0,0.5,0,1,0,1.4
		c0,0.6,0.2,1.3,0.3,1.9c0.1,0.4,0.2,0.7,0.3,1.1c0.1,0.3,0.4,0.5,0.8,0.4C8.8,58.8,9,58.4,9,58.1c-0.2-0.7-0.3-1.4-0.4-2.1
		c-0.1-1-0.1-2,0-3c0.1-1,0.2-2,0.3-3.1c0-0.2-0.1-0.4-0.2-0.5c-0.1-0.1-0.3-0.2-0.5-0.2C8,49.1,7.8,49.2,7.7,49.3L7.7,49.3z"/>
	<path class="st0" d="M67.3,40.6c-0.3,0.2-0.5,0.7-0.3,1c0.6,0.8,1.1,1.6,1.5,2.6c0.2,0.5,0.4,1.1,0.5,1.7c0.1,0.3,0.1,0.6,0.1,0.9
		c0.1,0.4,0.1,0.8,0.2,1.2c0,0.3,0.1,0.5,0.1,0.8c0,0.2,0.1,0.3,0.2,0.5c0.1,0.1,0.3,0.2,0.5,0.2c0.4,0,0.7-0.3,0.7-0.7
		c0-0.5,0-0.9-0.1-1.4c0-0.4-0.1-0.8-0.1-1.2c0-0.4-0.1-0.7-0.2-1.1c-0.1-0.5-0.3-1-0.5-1.5c-0.4-0.9-1-1.8-1.6-2.6
		c-0.1-0.2-0.3-0.3-0.4-0.3c-0.1,0-0.1,0-0.2,0C67.6,40.5,67.4,40.5,67.3,40.6L67.3,40.6z"/>
	<path class="st0" d="M70.8,40.5c-0.2,0.1-0.4,0.2-0.5,0.3c-0.1,0.2-0.1,0.4-0.1,0.6c0.2,1.2,0.4,2.3,0.6,3.5
		c0.1,0.6,0.2,1.3,0.3,1.9c0.1,0.9,0.2,1.8,0.3,2.7c0,0.2,0.1,0.4,0.2,0.5c0.1,0.1,0.3,0.2,0.5,0.2c0.4,0,0.7-0.3,0.7-0.7
		c-0.1-1-0.2-1.9-0.3-2.9c0,0,0,0,0,0.1c-0.1-0.7-0.2-1.4-0.3-2.1c-0.2-1.2-0.4-2.3-0.6-3.5c0-0.2-0.2-0.4-0.3-0.5
		c-0.1-0.1-0.3-0.1-0.4-0.1C70.9,40.5,70.9,40.5,70.8,40.5L70.8,40.5z M71.1,46.9c0,0,0,0.1,0,0.1C71.2,46.9,71.2,46.9,71.1,46.9
		L71.1,46.9z M72.6,46.8c0,0,0-0.1,0-0.1C72.6,46.7,72.6,46.7,72.6,46.8L72.6,46.8z"/>
	<path class="st0" d="M32.2,7.4c0,0.6,0.5,1.1,1.1,1.1c0.6,0,1.1-0.5,1.1-1.1S34,6.2,33.3,6.2C32.7,6.2,32.2,6.7,32.2,7.4L32.2,7.4z
		"/>
	<path class="st0" d="M35.5,5.9c0,0.5,0.4,1,1,1c0.5,0,1-0.4,1-1s-0.4-1-1-1C36,4.9,35.5,5.4,35.5,5.9L35.5,5.9z"/>
	<path class="st0" d="M37.4,8.4c0,0.2,0.2,0.4,0.4,0.4c0.2,0,0.4-0.2,0.4-0.4C38.2,8.2,38,8,37.8,8C37.6,8,37.4,8.2,37.4,8.4
		L37.4,8.4z"/>
</g>
</svg>
